solid OpenSCAD_Model
  facet normal -0 0 -1
    outer loop
      vertex -28 0 0
      vertex -27.5988 4.58574 0
      vertex -27.5746 -4.86215 0
    endloop
  endfacet
  facet normal 0 -0 -1
    outer loop
      vertex -27.5746 -4.86215 0
      vertex -27.5988 4.58574 0
      vertex -26.4951 4.68231 0
    endloop
  endfacet
  facet normal 0 0 -1
    outer loop
      vertex -27.5746 -4.86215 0
      vertex -26.4951 4.68231 0
      vertex -24.4746 5.22369 0
    endloop
  endfacet
  facet normal -0 0 -1
    outer loop
      vertex -24.4746 5.22369 0
      vertex -22.5788 6.1077 0
      vertex -27.5746 -4.86215 0
    endloop
  endfacet
  facet normal -0 0 -1
    outer loop
      vertex -27.5746 -4.86215 0
      vertex -22.5788 6.1077 0
      vertex -3 -5.19615 0
    endloop
  endfacet
  facet normal 0 0 -1
    outer loop
      vertex -3 -5.19615 0
      vertex -2.05212 -5.63816 0
      vertex -27.5746 -4.86215 0
    endloop
  endfacet
  facet normal 0 0 -1
    outer loop
      vertex -2.05212 -5.63816 0
      vertex -1.04189 -5.90885 0
      vertex -27.5746 -4.86215 0
    endloop
  endfacet
  facet normal 0 0 -1
    outer loop
      vertex -1.04189 -5.90885 0
      vertex 0 -6 0
      vertex -27.5746 -4.86215 0
    endloop
  endfacet
  facet normal -0 0 -1
    outer loop
      vertex 3 -5.19615 0
      vertex 26.4951 4.68231 0
      vertex 2.05212 -5.63816 0
    endloop
  endfacet
  facet normal -0 0 -1
    outer loop
      vertex 3.85673 -4.59627 0
      vertex 20.8654 7.30747 0
      vertex 3 -5.19615 0
    endloop
  endfacet
  facet normal -0 0 -1
    outer loop
      vertex 4.59627 -3.85673 0
      vertex 19.3863 8.78655 0
      vertex 3.85673 -4.59627 0
    endloop
  endfacet
  facet normal -0 -0 -1
    outer loop
      vertex 3 5.19615 0
      vertex -17.3025 20.6042 0
      vertex 3.85673 4.59627 0
    endloop
  endfacet
  facet normal -0 -0 -1
    outer loop
      vertex -16.5788 16.5 0
      vertex -16.7611 18.5838 0
      vertex 3 5.19615 0
    endloop
  endfacet
  facet normal -0 -0 -1
    outer loop
      vertex -16.7611 18.5838 0
      vertex -17.3025 20.6042 0
      vertex 3 5.19615 0
    endloop
  endfacet
  facet normal -0 -0 -1
    outer loop
      vertex -17.3025 20.6042 0
      vertex -17.7708 21.6084 0
      vertex 3.85673 4.59627 0
    endloop
  endfacet
  facet normal 0 0 -1
    outer loop
      vertex 3.85673 4.59627 0
      vertex -17.7708 21.6084 0
      vertex -14 24.2487 0
    endloop
  endfacet
  facet normal -0 -0 -1
    outer loop
      vertex 3.85673 4.59627 0
      vertex -14 24.2487 0
      vertex 4.59627 3.85673 0
    endloop
  endfacet
  facet normal 0 0 -1
    outer loop
      vertex 4.59627 3.85673 0
      vertex -14 24.2487 0
      vertex -9.57656 26.3114 0
    endloop
  endfacet
  facet normal -0 -0 -1
    outer loop
      vertex 4.59627 3.85673 0
      vertex -9.57656 26.3114 0
      vertex 5.19615 3 0
    endloop
  endfacet
  facet normal 0 0 -1
    outer loop
      vertex 5.19615 3 0
      vertex -9.57656 26.3114 0
      vertex -4.86215 27.5746 0
    endloop
  endfacet
  facet normal -0 -0 -1
    outer loop
      vertex 5.19615 3 0
      vertex -4.86215 27.5746 0
      vertex 5.63816 2.05212 0
    endloop
  endfacet
  facet normal 0 -0 -1
    outer loop
      vertex -1 18.5 0
      vertex -4.86215 27.5746 0
      vertex 0 28 0
    endloop
  endfacet
  facet normal -0 -0 -1
    outer loop
      vertex 5.63816 2.05212 0
      vertex 0 28 0
      vertex 5.90885 1.04189 0
    endloop
  endfacet
  facet normal 0 0 -1
    outer loop
      vertex 5.90885 1.04189 0
      vertex 0 28 0
      vertex 4.86215 27.5746 0
    endloop
  endfacet
  facet normal -0 -0 -1
    outer loop
      vertex 5.90885 1.04189 0
      vertex 4.86215 27.5746 0
      vertex 6 0 0
    endloop
  endfacet
  facet normal 0 -0 -1
    outer loop
      vertex 6 0 0
      vertex 4.86215 27.5746 0
      vertex 9.57656 26.3114 0
    endloop
  endfacet
  facet normal -0 0 -1
    outer loop
      vertex 6 0 0
      vertex 9.57656 26.3114 0
      vertex 5.90885 -1.04189 0
    endloop
  endfacet
  facet normal 0 0 -1
    outer loop
      vertex 5.90885 -1.04189 0
      vertex 9.57656 26.3114 0
      vertex 14 24.2487 0
    endloop
  endfacet
  facet normal -0 0 -1
    outer loop
      vertex 5.90885 -1.04189 0
      vertex 14 24.2487 0
      vertex 5.63816 -2.05212 0
    endloop
  endfacet
  facet normal 0 0 -1
    outer loop
      vertex 5.63816 -2.05212 0
      vertex 14 24.2487 0
      vertex 17.7708 21.6084 0
    endloop
  endfacet
  facet normal -0 0 -1
    outer loop
      vertex 5.63816 -2.05212 0
      vertex 17.7708 21.6084 0
      vertex 5.19615 -3 0
    endloop
  endfacet
  facet normal 0 0 -1
    outer loop
      vertex 5.19615 -3 0
      vertex 17.7708 21.6084 0
      vertex 17.3025 20.6042 0
    endloop
  endfacet
  facet normal 0 0 -1
    outer loop
      vertex 5.19615 -3 0
      vertex 17.3025 20.6042 0
      vertex 16.7611 18.5838 0
    endloop
  endfacet
  facet normal -0 0 -1
    outer loop
      vertex 5.19615 -3 0
      vertex 17.3025 12.3958 0
      vertex 4.59627 -3.85673 0
    endloop
  endfacet
  facet normal 0 0 -1
    outer loop
      vertex 16.7611 18.5838 0
      vertex 16.5788 16.5 0
      vertex 5.19615 -3 0
    endloop
  endfacet
  facet normal 0 0 -1
    outer loop
      vertex 16.5788 16.5 0
      vertex 16.7611 14.4162 0
      vertex 5.19615 -3 0
    endloop
  endfacet
  facet normal 0 0 -1
    outer loop
      vertex 16.7611 14.4162 0
      vertex 17.3025 12.3958 0
      vertex 5.19615 -3 0
    endloop
  endfacet
  facet normal 0 0 -1
    outer loop
      vertex 17.3025 12.3958 0
      vertex 18.1865 10.5 0
      vertex 4.59627 -3.85673 0
    endloop
  endfacet
  facet normal 0 0 -1
    outer loop
      vertex 18.1865 10.5 0
      vertex 19.3863 8.78655 0
      vertex 4.59627 -3.85673 0
    endloop
  endfacet
  facet normal 0 0 -1
    outer loop
      vertex 19.3863 8.78655 0
      vertex 20.8654 7.30747 0
      vertex 3.85673 -4.59627 0
    endloop
  endfacet
  facet normal 0 0 -1
    outer loop
      vertex 20.8654 7.30747 0
      vertex 22.5788 6.1077 0
      vertex 3 -5.19615 0
    endloop
  endfacet
  facet normal 0 0 -1
    outer loop
      vertex 22.5788 6.1077 0
      vertex 24.4746 5.22369 0
      vertex 3 -5.19615 0
    endloop
  endfacet
  facet normal 0 0 -1
    outer loop
      vertex 24.4746 5.22369 0
      vertex 26.4951 4.68231 0
      vertex 3 -5.19615 0
    endloop
  endfacet
  facet normal 0 0 -1
    outer loop
      vertex 26.4951 4.68231 0
      vertex 27.5988 4.58574 0
      vertex 2.05212 -5.63816 0
    endloop
  endfacet
  facet normal 0 0 -1
    outer loop
      vertex 2.05212 -5.63816 0
      vertex 27.5988 4.58574 0
      vertex 28 0 0
    endloop
  endfacet
  facet normal -0 0 -1
    outer loop
      vertex 2.05212 -5.63816 0
      vertex 28 0 0
      vertex 1.04189 -5.90885 0
    endloop
  endfacet
  facet normal 0 0 -1
    outer loop
      vertex 1.04189 -5.90885 0
      vertex 28 0 0
      vertex 27.5746 -4.86215 0
    endloop
  endfacet
  facet normal -0 0 -1
    outer loop
      vertex 1.04189 -5.90885 0
      vertex 27.5746 -4.86215 0
      vertex 0 -6 0
    endloop
  endfacet
  facet normal -0 0 -1
    outer loop
      vertex 0 -6 0
      vertex 27.5746 -4.86215 0
      vertex 26.3114 -9.57656 0
    endloop
  endfacet
  facet normal -0 0 -1
    outer loop
      vertex 16.8875 -9.75 0
      vertex 26.3114 -9.57656 0
      vertex 24.2487 -14 0
    endloop
  endfacet
  facet normal 0 0 -1
    outer loop
      vertex -27.5746 -4.86215 0
      vertex 24.2487 -14 0
      vertex 21.4492 -17.9981 0
    endloop
  endfacet
  facet normal 0 0 -1
    outer loop
      vertex -15.0215 -9.25 0
      vertex 21.4492 -17.9981 0
      vertex 17.9981 -21.4492 0
    endloop
  endfacet
  facet normal -0 0 -1
    outer loop
      vertex 9.19253 -25.2865 0
      vertex 14 -24.2487 0
      vertex 9.82803 -26.1941 0
    endloop
  endfacet
  facet normal 0 0 -1
    outer loop
      vertex 7.71345 -23.8075 0
      vertex 14 -24.2487 0
      vertex 9.19253 -25.2865 0
    endloop
  endfacet
  facet normal 0 0 -1
    outer loop
      vertex 6 -22.6077 0
      vertex 14 -24.2487 0
      vertex 7.71345 -23.8075 0
    endloop
  endfacet
  facet normal 0 0 -1
    outer loop
      vertex -16.5215 -10.116 0
      vertex 14 -24.2487 0
      vertex 6 -22.6077 0
    endloop
  endfacet
  facet normal 0 0 -1
    outer loop
      vertex -27.5746 -4.86215 0
      vertex 6 -22.6077 0
      vertex 4.10424 -21.7237 0
    endloop
  endfacet
  facet normal -0 -0 -1
    outer loop
      vertex -2.57167e-15 -21 0
      vertex -27.5746 -4.86215 0
      vertex 2.08378 -21.1823 0
    endloop
  endfacet
  facet normal 0 -0 -1
    outer loop
      vertex -17.0215 -9.25 0
      vertex -27.5746 -4.86215 0
      vertex -16.8875 -8.75 0
    endloop
  endfacet
  facet normal 0 0 -1
    outer loop
      vertex -27.5746 -4.86215 0
      vertex -2.57167e-15 -21 0
      vertex -2.08378 -21.1823 0
    endloop
  endfacet
  facet normal 0 0 -1
    outer loop
      vertex -2.08378 -21.1823 0
      vertex -4.10424 -21.7237 0
      vertex -27.5746 -4.86215 0
    endloop
  endfacet
  facet normal 0 0 -1
    outer loop
      vertex -4.10424 -21.7237 0
      vertex -6 -22.6077 0
      vertex -27.5746 -4.86215 0
    endloop
  endfacet
  facet normal 0 0 -1
    outer loop
      vertex -6 -22.6077 0
      vertex -7.71345 -23.8075 0
      vertex -27.5746 -4.86215 0
    endloop
  endfacet
  facet normal 0 0 -1
    outer loop
      vertex -7.71345 -23.8075 0
      vertex -9.19253 -25.2865 0
      vertex -27.5746 -4.86215 0
    endloop
  endfacet
  facet normal 0 0 -1
    outer loop
      vertex -9.19253 -25.2865 0
      vertex -9.82803 -26.1941 0
      vertex -27.5746 -4.86215 0
    endloop
  endfacet
  facet normal 0 0 -1
    outer loop
      vertex -27.5746 -4.86215 0
      vertex -9.82803 -26.1941 0
      vertex -14 -24.2487 0
    endloop
  endfacet
  facet normal 0 0 -1
    outer loop
      vertex -27.5746 -4.86215 0
      vertex -14 -24.2487 0
      vertex -17.9981 -21.4492 0
    endloop
  endfacet
  facet normal 0 0 -1
    outer loop
      vertex -27.5746 -4.86215 0
      vertex -17.9981 -21.4492 0
      vertex -21.4492 -17.9981 0
    endloop
  endfacet
  facet normal 0 0 -1
    outer loop
      vertex -27.5746 -4.86215 0
      vertex -21.4492 -17.9981 0
      vertex -24.2487 -14 0
    endloop
  endfacet
  facet normal 0 0 -1
    outer loop
      vertex -27.5746 -4.86215 0
      vertex -24.2487 -14 0
      vertex -26.3114 -9.57656 0
    endloop
  endfacet
  facet normal 0 0 -1
    outer loop
      vertex -15.0215 -9.25 0
      vertex 17.9981 -21.4492 0
      vertex -15.1554 -9.75 0
    endloop
  endfacet
  facet normal 0 -0 -1
    outer loop
      vertex 15.5215 -8.38397 0
      vertex 0 -6 0
      vertex 16.0215 -8.25 0
    endloop
  endfacet
  facet normal 0 0 -1
    outer loop
      vertex -27.5746 -4.86215 0
      vertex -17.0215 -9.25 0
      vertex -16.8875 -9.75 0
    endloop
  endfacet
  facet normal 0 0 -1
    outer loop
      vertex -16.0215 -10.25 0
      vertex 14 -24.2487 0
      vertex -16.5215 -10.116 0
    endloop
  endfacet
  facet normal 0 0 -1
    outer loop
      vertex -27.5746 -4.86215 0
      vertex -16.5215 -10.116 0
      vertex 6 -22.6077 0
    endloop
  endfacet
  facet normal 0 0 -1
    outer loop
      vertex -15.5215 -10.116 0
      vertex 14 -24.2487 0
      vertex -16.0215 -10.25 0
    endloop
  endfacet
  facet normal 0 0 -1
    outer loop
      vertex -15.1554 -9.75 0
      vertex 17.9981 -21.4492 0
      vertex 14 -24.2487 0
    endloop
  endfacet
  facet normal 0 0 -1
    outer loop
      vertex -15.1554 -9.75 0
      vertex 14 -24.2487 0
      vertex -15.5215 -10.116 0
    endloop
  endfacet
  facet normal 0 0 -1
    outer loop
      vertex -16.5215 -10.116 0
      vertex -27.5746 -4.86215 0
      vertex -16.8875 -9.75 0
    endloop
  endfacet
  facet normal 0 0 -1
    outer loop
      vertex -15.1554 -8.75 0
      vertex 21.4492 -17.9981 0
      vertex -15.0215 -9.25 0
    endloop
  endfacet
  facet normal 0 -0 -1
    outer loop
      vertex -16.5215 -8.38397 0
      vertex -27.5746 -4.86215 0
      vertex -16.0215 -8.25 0
    endloop
  endfacet
  facet normal 0 0 -1
    outer loop
      vertex -15.5215 -8.38397 0
      vertex 21.4492 -17.9981 0
      vertex -15.1554 -8.75 0
    endloop
  endfacet
  facet normal 0 0 -1
    outer loop
      vertex -27.5746 -4.86215 0
      vertex 21.4492 -17.9981 0
      vertex -15.5215 -8.38397 0
    endloop
  endfacet
  facet normal 0 0 -1
    outer loop
      vertex -27.5746 -4.86215 0
      vertex -15.5215 -8.38397 0
      vertex -16.0215 -8.25 0
    endloop
  endfacet
  facet normal 0 -0 -1
    outer loop
      vertex -16.8875 -8.75 0
      vertex -27.5746 -4.86215 0
      vertex -16.5215 -8.38397 0
    endloop
  endfacet
  facet normal 0 0 -1
    outer loop
      vertex -0.5 17.634 0
      vertex 5.63816 2.05212 0
      vertex -0.866025 18 0
    endloop
  endfacet
  facet normal 0 0 -1
    outer loop
      vertex -0.866025 18 0
      vertex -4.86215 27.5746 0
      vertex -1 18.5 0
    endloop
  endfacet
  facet normal 0 -0 -1
    outer loop
      vertex -0.866025 19 0
      vertex -1 18.5 0
      vertex 0 28 0
    endloop
  endfacet
  facet normal 0 0 -1
    outer loop
      vertex 5.63816 2.05212 0
      vertex -4.86215 27.5746 0
      vertex -0.866025 18 0
    endloop
  endfacet
  facet normal -0 -0 -1
    outer loop
      vertex 0.5 19.366 0
      vertex 0 28 0
      vertex 0.866025 19 0
    endloop
  endfacet
  facet normal 0 -0 -1
    outer loop
      vertex 15.1554 -8.75 0
      vertex 0 -6 0
      vertex 15.5215 -8.38397 0
    endloop
  endfacet
  facet normal 0 0 -1
    outer loop
      vertex 5.63816 2.05212 0
      vertex -0.5 17.634 0
      vertex 0 17.5 0
    endloop
  endfacet
  facet normal 0 0 -1
    outer loop
      vertex -0.5 19.366 0
      vertex 0 28 0
      vertex 0 19.5 0
    endloop
  endfacet
  facet normal 0 0 -1
    outer loop
      vertex 5.63816 2.05212 0
      vertex 0 17.5 0
      vertex 0.5 17.634 0
    endloop
  endfacet
  facet normal 0 0 -1
    outer loop
      vertex 5.63816 2.05212 0
      vertex 0.5 17.634 0
      vertex 0.866025 18 0
    endloop
  endfacet
  facet normal 0 0 -1
    outer loop
      vertex 5.63816 2.05212 0
      vertex 0.866025 18 0
      vertex 1 18.5 0
    endloop
  endfacet
  facet normal 0 0 -1
    outer loop
      vertex 5.63816 2.05212 0
      vertex 1 18.5 0
      vertex 0 28 0
    endloop
  endfacet
  facet normal 0 0 -1
    outer loop
      vertex 1 18.5 0
      vertex 0.866025 19 0
      vertex 0 28 0
    endloop
  endfacet
  facet normal -0 -0 -1
    outer loop
      vertex 0 19.5 0
      vertex 0 28 0
      vertex 0.5 19.366 0
    endloop
  endfacet
  facet normal 0 0 -1
    outer loop
      vertex 15.1554 -8.75 0
      vertex -27.5746 -4.86215 0
      vertex 0 -6 0
    endloop
  endfacet
  facet normal 0 -0 -1
    outer loop
      vertex -0.5 19.366 0
      vertex -0.866025 19 0
      vertex 0 28 0
    endloop
  endfacet
  facet normal 0 0 -1
    outer loop
      vertex 16.5215 -10.116 0
      vertex 24.2487 -14 0
      vertex 16.0215 -10.25 0
    endloop
  endfacet
  facet normal 0 0 -1
    outer loop
      vertex -27.5746 -4.86215 0
      vertex 15.1554 -8.75 0
      vertex 15.0215 -9.25 0
    endloop
  endfacet
  facet normal 0 0 -1
    outer loop
      vertex -27.5746 -4.86215 0
      vertex 15.0215 -9.25 0
      vertex 15.1554 -9.75 0
    endloop
  endfacet
  facet normal 0 0 -1
    outer loop
      vertex -27.5746 -4.86215 0
      vertex 15.1554 -9.75 0
      vertex 15.5215 -10.116 0
    endloop
  endfacet
  facet normal 0 0 -1
    outer loop
      vertex -27.5746 -4.86215 0
      vertex 15.5215 -10.116 0
      vertex 24.2487 -14 0
    endloop
  endfacet
  facet normal 0 0 -1
    outer loop
      vertex 15.5215 -10.116 0
      vertex 16.0215 -10.25 0
      vertex 24.2487 -14 0
    endloop
  endfacet
  facet normal 0 0 -1
    outer loop
      vertex 16.8875 -9.75 0
      vertex 24.2487 -14 0
      vertex 16.5215 -10.116 0
    endloop
  endfacet
  facet normal 0 0 -1
    outer loop
      vertex 17.0215 -9.25 0
      vertex 26.3114 -9.57656 0
      vertex 16.8875 -9.75 0
    endloop
  endfacet
  facet normal 0 0 -1
    outer loop
      vertex 16.8875 -8.75 0
      vertex 26.3114 -9.57656 0
      vertex 17.0215 -9.25 0
    endloop
  endfacet
  facet normal 0 0 -1
    outer loop
      vertex 16.5215 -8.38397 0
      vertex 26.3114 -9.57656 0
      vertex 16.8875 -8.75 0
    endloop
  endfacet
  facet normal 0 0 -1
    outer loop
      vertex 16.0215 -8.25 0
      vertex 26.3114 -9.57656 0
      vertex 16.5215 -8.38397 0
    endloop
  endfacet
  facet normal 0 0 -1
    outer loop
      vertex 0 -6 0
      vertex 26.3114 -9.57656 0
      vertex 16.0215 -8.25 0
    endloop
  endfacet
  facet normal -0 -0 -1
    outer loop
      vertex 2.08378 -21.1823 0
      vertex -27.5746 -4.86215 0
      vertex 4.10424 -21.7237 0
    endloop
  endfacet
  facet normal -0.996195 0.0871558 0
    outer loop
      vertex -28 0 0
      vertex -28 0 7
      vertex -27.5988 4.58574 0
    endloop
  endfacet
  facet normal -0.996195 0.0871558 7.43792e-17
    outer loop
      vertex -27.5988 4.58574 0
      vertex -28 0 7
      vertex -27.687 3.57803 7
    endloop
  endfacet
  facet normal -0.996195 -0.0871558 -0
    outer loop
      vertex -28 0 0
      vertex -27.5746 -4.86215 0
      vertex -28 0 7
    endloop
  endfacet
  facet normal -0.996195 -0.0871558 0
    outer loop
      vertex -28 0 7
      vertex -27.5746 -4.86215 0
      vertex -27.5746 -4.86215 7
    endloop
  endfacet
  facet normal -0.965926 -0.258819 -0
    outer loop
      vertex -27.5746 -4.86215 0
      vertex -26.3114 -9.57656 0
      vertex -27.5746 -4.86215 7
    endloop
  endfacet
  facet normal -0.965926 -0.258819 0
    outer loop
      vertex -27.5746 -4.86215 7
      vertex -26.3114 -9.57656 0
      vertex -26.3114 -9.57656 7
    endloop
  endfacet
  facet normal -0.906308 -0.422618 -0
    outer loop
      vertex -26.3114 -9.57656 0
      vertex -24.2487 -14 0
      vertex -26.3114 -9.57656 7
    endloop
  endfacet
  facet normal -0.906308 -0.422618 0
    outer loop
      vertex -26.3114 -9.57656 7
      vertex -24.2487 -14 0
      vertex -24.2487 -14 7
    endloop
  endfacet
  facet normal -0.819152 -0.573576 -0
    outer loop
      vertex -24.2487 -14 0
      vertex -21.4492 -17.9981 0
      vertex -24.2487 -14 7
    endloop
  endfacet
  facet normal -0.819152 -0.573576 0
    outer loop
      vertex -24.2487 -14 7
      vertex -21.4492 -17.9981 0
      vertex -21.4492 -17.9981 7
    endloop
  endfacet
  facet normal -0.707107 -0.707107 0
    outer loop
      vertex -21.4492 -17.9981 7
      vertex -21.4492 -17.9981 0
      vertex -17.9981 -21.4492 0
    endloop
  endfacet
  facet normal -0.707107 -0.707107 0
    outer loop
      vertex -17.9981 -21.4492 7
      vertex -21.4492 -17.9981 7
      vertex -17.9981 -21.4492 0
    endloop
  endfacet
  facet normal -0.573576 -0.819152 0
    outer loop
      vertex -17.9981 -21.4492 7
      vertex -17.9981 -21.4492 0
      vertex -14 -24.2487 0
    endloop
  endfacet
  facet normal -0.573576 -0.819152 0
    outer loop
      vertex -14 -24.2487 7
      vertex -17.9981 -21.4492 7
      vertex -14 -24.2487 0
    endloop
  endfacet
  facet normal -0.422618 -0.906308 0
    outer loop
      vertex -14 -24.2487 7
      vertex -14 -24.2487 0
      vertex -9.82803 -26.1941 0
    endloop
  endfacet
  facet normal -0.422618 -0.906308 -9.42366e-17
    outer loop
      vertex -10.7448 -25.7666 7
      vertex -14 -24.2487 7
      vertex -10.5172 -25.8728 5.26215
    endloop
  endfacet
  facet normal -0.422618 -0.906308 4.1681e-16
    outer loop
      vertex -10.5172 -25.8728 5.26215
      vertex -14 -24.2487 7
      vertex -9.82803 -26.1941 0
    endloop
  endfacet
  facet normal 0.810981 -0.567855 0.140894
    outer loop
      vertex -10.5172 -25.8728 5.26215
      vertex -9.82803 -26.1941 0
      vertex -9.19253 -25.2865 0
    endloop
  endfacet
  facet normal 0.810981 -0.567855 0.140894
    outer loop
      vertex -10.5585 -25.5005 7
      vertex -10.5172 -25.8728 5.26215
      vertex -9.95858 -24.6438 7
    endloop
  endfacet
  facet normal 0.810981 -0.567855 0.140894
    outer loop
      vertex -9.95858 -24.6438 7
      vertex -10.5172 -25.8728 5.26215
      vertex -9.19253 -25.2865 0
    endloop
  endfacet
  facet normal 0.700053 -0.700053 0.140894
    outer loop
      vertex -9.19253 -25.2865 0
      vertex -7.71345 -23.8075 0
      vertex -8.35624 -23.0414 7
    endloop
  endfacet
  facet normal 0.700053 -0.700053 0.140894
    outer loop
      vertex -9.95858 -24.6438 7
      vertex -9.19253 -25.2865 0
      vertex -8.35624 -23.0414 7
    endloop
  endfacet
  facet normal 0.567855 -0.810981 0.140894
    outer loop
      vertex -7.71345 -23.8075 0
      vertex -7.35673 -22.3416 7
      vertex -8.35624 -23.0414 7
    endloop
  endfacet
  facet normal 0.567855 -0.810981 0.140894
    outer loop
      vertex -6 -22.6077 0
      vertex -6.5 -21.7417 7
      vertex -7.35673 -22.3416 7
    endloop
  endfacet
  facet normal 0.567855 -0.810981 0.140894
    outer loop
      vertex -7.71345 -23.8075 0
      vertex -6 -22.6077 0
      vertex -7.35673 -22.3416 7
    endloop
  endfacet
  facet normal 0.418403 -0.897267 0.140894
    outer loop
      vertex -6 -22.6077 0
      vertex -5.39414 -21.226 7
      vertex -6.5 -21.7417 7
    endloop
  endfacet
  facet normal 0.418402 -0.897267 0.140894
    outer loop
      vertex -4.10424 -21.7237 0
      vertex -4.44626 -20.784 7
      vertex -5.39414 -21.226 7
    endloop
  endfacet
  facet normal 0.418402 -0.897267 0.140894
    outer loop
      vertex -6 -22.6077 0
      vertex -4.10424 -21.7237 0
      vertex -5.39414 -21.226 7
    endloop
  endfacet
  facet normal 0.256237 -0.95629 0.140894
    outer loop
      vertex -4.10424 -21.7237 0
      vertex -3.26766 -20.4682 7
      vertex -4.44626 -20.784 7
    endloop
  endfacet
  facet normal 0.256237 -0.95629 0.140894
    outer loop
      vertex -2.08378 -21.1823 0
      vertex -2.25743 -20.1975 7
      vertex -3.26766 -20.4682 7
    endloop
  endfacet
  facet normal 0.256237 -0.95629 0.140894
    outer loop
      vertex -4.10424 -21.7237 0
      vertex -2.08378 -21.1823 0
      vertex -3.26766 -20.4682 7
    endloop
  endfacet
  facet normal 0.0862862 -0.986257 0.140894
    outer loop
      vertex -2.08378 -21.1823 0
      vertex -1.04189 -20.0912 7
      vertex -2.25743 -20.1975 7
    endloop
  endfacet
  facet normal 0.0862864 -0.986257 0.140894
    outer loop
      vertex -2.57167e-15 -21 0
      vertex -2.44921e-15 -20 7
      vertex -1.04189 -20.0912 7
    endloop
  endfacet
  facet normal 0.0862864 -0.986257 0.140894
    outer loop
      vertex -2.08378 -21.1823 0
      vertex -2.57167e-15 -21 0
      vertex -1.04189 -20.0912 7
    endloop
  endfacet
  facet normal -0.0862862 -0.986257 0.140894
    outer loop
      vertex 1.21554 -20.1063 7
      vertex -2.44921e-15 -20 7
      vertex -2.57167e-15 -21 0
    endloop
  endfacet
  facet normal -0.0862864 -0.986257 0.140894
    outer loop
      vertex 2.08378 -21.1823 0
      vertex 2.25743 -20.1975 7
      vertex 1.21554 -20.1063 7
    endloop
  endfacet
  facet normal -0.0862864 -0.986257 0.140894
    outer loop
      vertex -2.57167e-15 -21 0
      vertex 2.08378 -21.1823 0
      vertex 1.21554 -20.1063 7
    endloop
  endfacet
  facet normal -0.256237 -0.95629 0.140894
    outer loop
      vertex 3.43603 -20.5133 7
      vertex 2.25743 -20.1975 7
      vertex 2.08378 -21.1823 0
    endloop
  endfacet
  facet normal -0.256237 -0.95629 0.140894
    outer loop
      vertex 4.10424 -21.7237 0
      vertex 4.44626 -20.784 7
      vertex 3.43603 -20.5133 7
    endloop
  endfacet
  facet normal -0.256237 -0.95629 0.140894
    outer loop
      vertex 2.08378 -21.1823 0
      vertex 4.10424 -21.7237 0
      vertex 3.43603 -20.5133 7
    endloop
  endfacet
  facet normal -0.418403 -0.897267 0.140894
    outer loop
      vertex 5.55212 -21.2997 7
      vertex 4.44626 -20.784 7
      vertex 4.10424 -21.7237 0
    endloop
  endfacet
  facet normal -0.418402 -0.897267 0.140894
    outer loop
      vertex 6 -22.6077 0
      vertex 6.5 -21.7417 7
      vertex 5.55212 -21.2997 7
    endloop
  endfacet
  facet normal -0.418402 -0.897267 0.140894
    outer loop
      vertex 4.10424 -21.7237 0
      vertex 6 -22.6077 0
      vertex 5.55212 -21.2997 7
    endloop
  endfacet
  facet normal -0.567855 -0.810981 0.140894
    outer loop
      vertex 7.49951 -22.4415 7
      vertex 6.5 -21.7417 7
      vertex 6 -22.6077 0
    endloop
  endfacet
  facet normal -0.567855 -0.810981 0.140894
    outer loop
      vertex 7.71345 -23.8075 0
      vertex 8.35624 -23.0414 7
      vertex 7.49951 -22.4415 7
    endloop
  endfacet
  facet normal -0.567855 -0.810981 0.140894
    outer loop
      vertex 6 -22.6077 0
      vertex 7.71345 -23.8075 0
      vertex 7.49951 -22.4415 7
    endloop
  endfacet
  facet normal -0.700053 -0.700053 0.140894
    outer loop
      vertex 9.95858 -24.6438 7
      vertex 8.35624 -23.0414 7
      vertex 9.19253 -25.2865 0
    endloop
  endfacet
  facet normal -0.700053 -0.700053 0.140894
    outer loop
      vertex 9.19253 -25.2865 0
      vertex 8.35624 -23.0414 7
      vertex 7.71345 -23.8075 0
    endloop
  endfacet
  facet normal -0.810981 -0.567855 0.140894
    outer loop
      vertex 10.6584 -25.6433 7
      vertex 9.95858 -24.6438 7
      vertex 9.19253 -25.2865 0
    endloop
  endfacet
  facet normal -0.810981 -0.567855 0.140894
    outer loop
      vertex 10.7448 -25.7666 7
      vertex 10.6584 -25.6433 7
      vertex 9.82803 -26.1941 0
    endloop
  endfacet
  facet normal -0.810981 -0.567855 0.140894
    outer loop
      vertex 9.82803 -26.1941 0
      vertex 10.6584 -25.6433 7
      vertex 9.19253 -25.2865 0
    endloop
  endfacet
  facet normal 0.422618 -0.906308 -2.00482e-16
    outer loop
      vertex 10.7448 -25.7666 7
      vertex 9.82803 -26.1941 0
      vertex 14 -24.2487 0
    endloop
  endfacet
  facet normal 0.422618 -0.906308 0
    outer loop
      vertex 14 -24.2487 7
      vertex 10.7448 -25.7666 7
      vertex 14 -24.2487 0
    endloop
  endfacet
  facet normal 0.573576 -0.819152 0
    outer loop
      vertex 14 -24.2487 7
      vertex 14 -24.2487 0
      vertex 17.9981 -21.4492 0
    endloop
  endfacet
  facet normal 0.573576 -0.819152 0
    outer loop
      vertex 17.9981 -21.4492 7
      vertex 14 -24.2487 7
      vertex 17.9981 -21.4492 0
    endloop
  endfacet
  facet normal 0.707107 -0.707107 0
    outer loop
      vertex 17.9981 -21.4492 7
      vertex 17.9981 -21.4492 0
      vertex 21.4492 -17.9981 0
    endloop
  endfacet
  facet normal 0.707107 -0.707107 0
    outer loop
      vertex 21.4492 -17.9981 7
      vertex 17.9981 -21.4492 7
      vertex 21.4492 -17.9981 0
    endloop
  endfacet
  facet normal 0.819152 -0.573576 0
    outer loop
      vertex 21.4492 -17.9981 7
      vertex 21.4492 -17.9981 0
      vertex 24.2487 -14 0
    endloop
  endfacet
  facet normal 0.819152 -0.573576 0
    outer loop
      vertex 24.2487 -14 7
      vertex 21.4492 -17.9981 7
      vertex 24.2487 -14 0
    endloop
  endfacet
  facet normal 0.906308 -0.422618 0
    outer loop
      vertex 24.2487 -14 7
      vertex 24.2487 -14 0
      vertex 26.3114 -9.57656 0
    endloop
  endfacet
  facet normal 0.906308 -0.422618 0
    outer loop
      vertex 26.3114 -9.57656 7
      vertex 24.2487 -14 7
      vertex 26.3114 -9.57656 0
    endloop
  endfacet
  facet normal 0.965926 -0.258819 0
    outer loop
      vertex 26.3114 -9.57656 7
      vertex 26.3114 -9.57656 0
      vertex 27.5746 -4.86215 0
    endloop
  endfacet
  facet normal 0.965926 -0.258819 0
    outer loop
      vertex 27.5746 -4.86215 7
      vertex 26.3114 -9.57656 7
      vertex 27.5746 -4.86215 0
    endloop
  endfacet
  facet normal 0.996195 -0.0871558 0
    outer loop
      vertex 27.5746 -4.86215 7
      vertex 27.5746 -4.86215 0
      vertex 28 0 0
    endloop
  endfacet
  facet normal 0.996195 -0.0871558 0
    outer loop
      vertex 28 0 7
      vertex 27.5746 -4.86215 7
      vertex 28 0 0
    endloop
  endfacet
  facet normal 0.996195 0.0871558 3.4108e-16
    outer loop
      vertex 28 0 0
      vertex 27.5988 4.58574 0
      vertex 27.6651 3.82821 5.26215
    endloop
  endfacet
  facet normal 0.996195 0.0871558 -9.58951e-16
    outer loop
      vertex 27.687 3.57803 7
      vertex 28 0 0
      vertex 27.6651 3.82821 5.26215
    endloop
  endfacet
  facet normal 0.996195 0.0871558 0
    outer loop
      vertex 27.687 3.57803 7
      vertex 28 0 7
      vertex 28 0 0
    endloop
  endfacet
  facet normal 0.0862866 0.986257 0.140894
    outer loop
      vertex 27.6651 3.82821 5.26215
      vertex 27.5988 4.58574 0
      vertex 27.3633 3.60635 7
    endloop
  endfacet
  facet normal 0.0862866 0.986257 0.140894
    outer loop
      vertex 27.3633 3.60635 7
      vertex 27.5988 4.58574 0
      vertex 26.4951 4.68231 0
    endloop
  endfacet
  facet normal 0.0862866 0.986257 0.140894
    outer loop
      vertex 27.3633 3.60635 7
      vertex 26.4951 4.68231 0
      vertex 26.3214 3.6975 7
    endloop
  endfacet
  facet normal 0.256237 0.95629 0.140894
    outer loop
      vertex 26.4951 4.68231 0
      vertex 24.4746 5.22369 0
      vertex 26.3214 3.6975 7
    endloop
  endfacet
  facet normal 0.256237 0.95629 0.140894
    outer loop
      vertex 26.3214 3.6975 7
      vertex 24.4746 5.22369 0
      vertex 24.1326 4.284 7
    endloop
  endfacet
  facet normal 0.418402 0.897267 0.140894
    outer loop
      vertex 24.1326 4.284 7
      vertex 24.4746 5.22369 0
      vertex 23.0267 4.79967 7
    endloop
  endfacet
  facet normal 0.418402 0.897267 0.140894
    outer loop
      vertex 24.4746 5.22369 0
      vertex 22.5788 6.1077 0
      vertex 23.0267 4.79967 7
    endloop
  endfacet
  facet normal 0.418402 0.897267 0.140894
    outer loop
      vertex 23.0267 4.79967 7
      vertex 22.5788 6.1077 0
      vertex 22.0788 5.24167 7
    endloop
  endfacet
  facet normal 0.567855 0.810981 0.140894
    outer loop
      vertex 22.0788 5.24167 7
      vertex 22.5788 6.1077 0
      vertex 21.0793 5.94154 7
    endloop
  endfacet
  facet normal 0.567855 0.810981 0.140894
    outer loop
      vertex 22.5788 6.1077 0
      vertex 20.8654 7.30747 0
      vertex 21.0793 5.94154 7
    endloop
  endfacet
  facet normal 0.567855 0.810981 0.140894
    outer loop
      vertex 21.0793 5.94154 7
      vertex 20.8654 7.30747 0
      vertex 20.2226 6.54142 7
    endloop
  endfacet
  facet normal 0.700053 0.700053 0.140894
    outer loop
      vertex 20.2226 6.54142 7
      vertex 20.8654 7.30747 0
      vertex 19.3598 7.40422 7
    endloop
  endfacet
  facet normal 0.700053 0.700053 0.140894
    outer loop
      vertex 20.8654 7.30747 0
      vertex 19.3863 8.78655 0
      vertex 19.3598 7.40422 7
    endloop
  endfacet
  facet normal 0.700053 0.700053 0.140894
    outer loop
      vertex 19.3598 7.40422 7
      vertex 19.3863 8.78655 0
      vertex 18.6203 8.14376 7
    endloop
  endfacet
  facet normal 0.810981 0.567855 0.140894
    outer loop
      vertex 18.6203 8.14376 7
      vertex 19.3863 8.78655 0
      vertex 17.9204 9.14327 7
    endloop
  endfacet
  facet normal 0.810981 0.567855 0.140894
    outer loop
      vertex 17.9204 9.14327 7
      vertex 19.3863 8.78655 0
      vertex 18.1865 10.5 0
    endloop
  endfacet
  facet normal 0.810981 0.567855 0.140894
    outer loop
      vertex 17.3205 10 7
      vertex 17.9204 9.14327 7
      vertex 18.1865 10.5 0
    endloop
  endfacet
  facet normal 0.897267 0.418403 0.140894
    outer loop
      vertex 17.3205 10 7
      vertex 18.1865 10.5 0
      vertex 16.8048 11.1059 7
    endloop
  endfacet
  facet normal 0.897267 0.418402 0.140894
    outer loop
      vertex 16.8048 11.1059 7
      vertex 18.1865 10.5 0
      vertex 17.3025 12.3958 0
    endloop
  endfacet
  facet normal 0.897267 0.418402 0.140894
    outer loop
      vertex 16.3628 12.0537 7
      vertex 16.8048 11.1059 7
      vertex 17.3025 12.3958 0
    endloop
  endfacet
  facet normal 0.95629 0.256237 0.140894
    outer loop
      vertex 16.3628 12.0537 7
      vertex 17.3025 12.3958 0
      vertex 16.047 13.2323 7
    endloop
  endfacet
  facet normal 0.95629 0.256237 0.140894
    outer loop
      vertex 16.047 13.2323 7
      vertex 17.3025 12.3958 0
      vertex 16.7611 14.4162 0
    endloop
  endfacet
  facet normal 0.95629 0.256237 0.140894
    outer loop
      vertex 15.7763 14.2426 7
      vertex 16.047 13.2323 7
      vertex 16.7611 14.4162 0
    endloop
  endfacet
  facet normal 0.986257 0.0862864 0.140894
    outer loop
      vertex 15.7763 14.2426 7
      vertex 16.7611 14.4162 0
      vertex 15.67 15.4581 7
    endloop
  endfacet
  facet normal 0.986257 0.0862865 0.140894
    outer loop
      vertex 15.67 15.4581 7
      vertex 16.7611 14.4162 0
      vertex 16.5788 16.5 0
    endloop
  endfacet
  facet normal 0.986257 0.0862865 0.140894
    outer loop
      vertex 15.5788 16.5 7
      vertex 15.67 15.4581 7
      vertex 16.5788 16.5 0
    endloop
  endfacet
  facet normal 0.986257 -0.0862864 0.140894
    outer loop
      vertex 16.5788 16.5 0
      vertex 15.6852 17.7155 7
      vertex 15.5788 16.5 7
    endloop
  endfacet
  facet normal 0.986257 -0.0862866 0.140894
    outer loop
      vertex 16.5788 16.5 0
      vertex 16.7611 18.5838 0
      vertex 15.7763 18.7574 7
    endloop
  endfacet
  facet normal 0.986257 -0.0862866 0.140894
    outer loop
      vertex 15.6852 17.7155 7
      vertex 16.5788 16.5 0
      vertex 15.7763 18.7574 7
    endloop
  endfacet
  facet normal 0.95629 -0.256237 0.140894
    outer loop
      vertex 16.7611 18.5838 0
      vertex 17.3025 20.6042 0
      vertex 16.3628 20.9463 7
    endloop
  endfacet
  facet normal 0.95629 -0.256237 0.140894
    outer loop
      vertex 15.7763 18.7574 7
      vertex 16.7611 18.5838 0
      vertex 16.3628 20.9463 7
    endloop
  endfacet
  facet normal 0.897267 -0.418402 0.140894
    outer loop
      vertex 17.3025 20.6042 0
      vertex 16.8785 22.0521 7
      vertex 16.3628 20.9463 7
    endloop
  endfacet
  facet normal 0.897267 -0.418402 0.140894
    outer loop
      vertex 17.3025 20.6042 0
      vertex 17.7708 21.6084 0
      vertex 16.9421 22.1886 7
    endloop
  endfacet
  facet normal 0.897267 -0.418402 0.140894
    outer loop
      vertex 16.8785 22.0521 7
      vertex 17.3025 20.6042 0
      vertex 16.9421 22.1886 7
    endloop
  endfacet
  facet normal 0.573576 0.819152 0
    outer loop
      vertex 14 24.2487 0
      vertex 14 24.2487 7
      vertex 17.7708 21.6084 0
    endloop
  endfacet
  facet normal 0.573576 0.819152 7.57315e-16
    outer loop
      vertex 17.7708 21.6084 0
      vertex 14 24.2487 7
      vertex 16.9421 22.1886 7
    endloop
  endfacet
  facet normal 0.422618 0.906308 0
    outer loop
      vertex 9.57656 26.3114 0
      vertex 9.57656 26.3114 7
      vertex 14 24.2487 0
    endloop
  endfacet
  facet normal 0.422618 0.906308 0
    outer loop
      vertex 14 24.2487 0
      vertex 9.57656 26.3114 7
      vertex 14 24.2487 7
    endloop
  endfacet
  facet normal 0.258819 0.965926 0
    outer loop
      vertex 4.86215 27.5746 0
      vertex 4.86215 27.5746 7
      vertex 9.57656 26.3114 0
    endloop
  endfacet
  facet normal 0.258819 0.965926 0
    outer loop
      vertex 9.57656 26.3114 0
      vertex 4.86215 27.5746 7
      vertex 9.57656 26.3114 7
    endloop
  endfacet
  facet normal 0.0871558 0.996195 0
    outer loop
      vertex 0 28 0
      vertex 0 28 7
      vertex 4.86215 27.5746 0
    endloop
  endfacet
  facet normal 0.0871558 0.996195 0
    outer loop
      vertex 4.86215 27.5746 0
      vertex 0 28 7
      vertex 4.86215 27.5746 7
    endloop
  endfacet
  facet normal -0.0871558 0.996195 0
    outer loop
      vertex -4.86215 27.5746 0
      vertex -4.86215 27.5746 7
      vertex 0 28 0
    endloop
  endfacet
  facet normal -0.0871558 0.996195 0
    outer loop
      vertex 0 28 0
      vertex -4.86215 27.5746 7
      vertex 0 28 7
    endloop
  endfacet
  facet normal -0.258819 0.965926 0
    outer loop
      vertex -9.57656 26.3114 0
      vertex -9.57656 26.3114 7
      vertex -4.86215 27.5746 0
    endloop
  endfacet
  facet normal -0.258819 0.965926 0
    outer loop
      vertex -4.86215 27.5746 0
      vertex -9.57656 26.3114 7
      vertex -4.86215 27.5746 7
    endloop
  endfacet
  facet normal -0.422618 0.906308 0
    outer loop
      vertex -14 24.2487 0
      vertex -14 24.2487 7
      vertex -9.57656 26.3114 0
    endloop
  endfacet
  facet normal -0.422618 0.906308 0
    outer loop
      vertex -9.57656 26.3114 0
      vertex -14 24.2487 7
      vertex -9.57656 26.3114 7
    endloop
  endfacet
  facet normal -0.573576 0.819152 3.72809e-16
    outer loop
      vertex -17.7708 21.6084 0
      vertex -17.1479 22.0446 5.26215
      vertex -14 24.2487 0
    endloop
  endfacet
  facet normal -0.573576 0.819152 -5.10024e-16
    outer loop
      vertex -14 24.2487 0
      vertex -17.1479 22.0446 5.26215
      vertex -16.9421 22.1886 7
    endloop
  endfacet
  facet normal -0.573576 0.819152 0
    outer loop
      vertex -14 24.2487 0
      vertex -16.9421 22.1886 7
      vertex -14 24.2487 7
    endloop
  endfacet
  facet normal -0.897267 -0.418402 0.140894
    outer loop
      vertex -16.3628 20.9463 7
      vertex -16.8048 21.8941 7
      vertex -17.3025 20.6042 0
    endloop
  endfacet
  facet normal -0.897267 -0.418402 0.140894
    outer loop
      vertex -17.3025 20.6042 0
      vertex -16.8048 21.8941 7
      vertex -17.1479 22.0446 5.26215
    endloop
  endfacet
  facet normal -0.897267 -0.418402 0.140894
    outer loop
      vertex -17.3025 20.6042 0
      vertex -17.1479 22.0446 5.26215
      vertex -17.7708 21.6084 0
    endloop
  endfacet
  facet normal -0.95629 -0.256237 0.140894
    outer loop
      vertex -15.7763 18.7574 7
      vertex -16.3628 20.9463 7
      vertex -16.7611 18.5838 0
    endloop
  endfacet
  facet normal -0.95629 -0.256237 0.140894
    outer loop
      vertex -16.7611 18.5838 0
      vertex -16.3628 20.9463 7
      vertex -17.3025 20.6042 0
    endloop
  endfacet
  facet normal -0.986257 -0.0862864 0.140894
    outer loop
      vertex -16.0393 18.4979 5
      vertex -15.7384 18.3242 7
      vertex -15.7763 18.7574 7
    endloop
  endfacet
  facet normal -0.986257 -0.0862864 0.140894
    outer loop
      vertex -16.0393 18.4979 5
      vertex -15.7763 18.7574 7
      vertex -16.7611 18.5838 0
    endloop
  endfacet
  facet normal -0.986257 -0.0862864 0.140894
    outer loop
      vertex -16.0393 18.4979 5
      vertex -16.7611 18.5838 0
      vertex -15.9818 17.8396 5
    endloop
  endfacet
  facet normal -0.986257 -0.0862866 0.140894
    outer loop
      vertex -15.8646 16.5 5
      vertex -15.9818 17.8396 5
      vertex -16.5788 16.5 0
    endloop
  endfacet
  facet normal -0.986257 -0.0862866 0.140894
    outer loop
      vertex -16.5788 16.5 0
      vertex -15.9818 17.8396 5
      vertex -16.7611 18.5838 0
    endloop
  endfacet
  facet normal -0.986257 0.0862864 0.140894
    outer loop
      vertex -15.8989 16.1074 5
      vertex -15.8646 16.5 5
      vertex -16.5788 16.5 0
    endloop
  endfacet
  facet normal -0.5 -0.866025 -0
    outer loop
      vertex 3 5.19615 0
      vertex 3 5.19615 5
      vertex -15.8989 16.1074 5
    endloop
  endfacet
  facet normal -0.5 -0.866025 -1.64716e-16
    outer loop
      vertex -16.5788 16.5 0
      vertex 3 5.19615 0
      vertex -15.8989 16.1074 5
    endloop
  endfacet
  facet normal -0.573576 -0.819152 -0
    outer loop
      vertex 3.85673 4.59627 0
      vertex 3.85673 4.59627 5
      vertex 3 5.19615 5
    endloop
  endfacet
  facet normal -0.573576 -0.819152 -0
    outer loop
      vertex 3 5.19615 0
      vertex 3.85673 4.59627 0
      vertex 3 5.19615 5
    endloop
  endfacet
  facet normal -0.707107 -0.707107 -0
    outer loop
      vertex 4.59627 3.85673 0
      vertex 4.59627 3.85673 5
      vertex 3.85673 4.59627 5
    endloop
  endfacet
  facet normal -0.707107 -0.707107 -0
    outer loop
      vertex 3.85673 4.59627 0
      vertex 4.59627 3.85673 0
      vertex 3.85673 4.59627 5
    endloop
  endfacet
  facet normal -0.819152 -0.573576 0
    outer loop
      vertex 5.19615 3 5
      vertex 4.59627 3.85673 5
      vertex 5.19615 3 0
    endloop
  endfacet
  facet normal -0.819152 -0.573576 0
    outer loop
      vertex 5.19615 3 0
      vertex 4.59627 3.85673 5
      vertex 4.59627 3.85673 0
    endloop
  endfacet
  facet normal -0.906308 -0.422619 0
    outer loop
      vertex 5.63816 2.05212 5
      vertex 5.19615 3 5
      vertex 5.63816 2.05212 0
    endloop
  endfacet
  facet normal -0.906308 -0.422619 0
    outer loop
      vertex 5.63816 2.05212 0
      vertex 5.19615 3 5
      vertex 5.19615 3 0
    endloop
  endfacet
  facet normal -0.965926 -0.258819 0
    outer loop
      vertex 5.90885 1.04189 5
      vertex 5.63816 2.05212 5
      vertex 5.90885 1.04189 0
    endloop
  endfacet
  facet normal -0.965926 -0.258819 0
    outer loop
      vertex 5.90885 1.04189 0
      vertex 5.63816 2.05212 5
      vertex 5.63816 2.05212 0
    endloop
  endfacet
  facet normal -0.996195 -0.0871553 0
    outer loop
      vertex 6 0 5
      vertex 5.90885 1.04189 5
      vertex 6 0 0
    endloop
  endfacet
  facet normal -0.996195 -0.0871553 0
    outer loop
      vertex 6 0 0
      vertex 5.90885 1.04189 5
      vertex 5.90885 1.04189 0
    endloop
  endfacet
  facet normal -0.996195 0.0871553 0
    outer loop
      vertex 6 0 5
      vertex 6 0 0
      vertex 5.90885 -1.04189 5
    endloop
  endfacet
  facet normal -0.996195 0.0871553 0
    outer loop
      vertex 5.90885 -1.04189 5
      vertex 6 0 0
      vertex 5.90885 -1.04189 0
    endloop
  endfacet
  facet normal -0.965926 0.258819 0
    outer loop
      vertex 5.90885 -1.04189 5
      vertex 5.90885 -1.04189 0
      vertex 5.63816 -2.05212 5
    endloop
  endfacet
  facet normal -0.965926 0.258819 0
    outer loop
      vertex 5.63816 -2.05212 5
      vertex 5.90885 -1.04189 0
      vertex 5.63816 -2.05212 0
    endloop
  endfacet
  facet normal -0.906308 0.422619 0
    outer loop
      vertex 5.63816 -2.05212 5
      vertex 5.63816 -2.05212 0
      vertex 5.19615 -3 5
    endloop
  endfacet
  facet normal -0.906308 0.422619 0
    outer loop
      vertex 5.19615 -3 5
      vertex 5.63816 -2.05212 0
      vertex 5.19615 -3 0
    endloop
  endfacet
  facet normal -0.819152 0.573576 0
    outer loop
      vertex 5.19615 -3 5
      vertex 5.19615 -3 0
      vertex 4.59627 -3.85673 5
    endloop
  endfacet
  facet normal -0.819152 0.573576 0
    outer loop
      vertex 4.59627 -3.85673 5
      vertex 5.19615 -3 0
      vertex 4.59627 -3.85673 0
    endloop
  endfacet
  facet normal -0.707107 0.707107 0
    outer loop
      vertex 4.59627 -3.85673 5
      vertex 4.59627 -3.85673 0
      vertex 3.85673 -4.59627 5
    endloop
  endfacet
  facet normal -0.707107 0.707107 0
    outer loop
      vertex 3.85673 -4.59627 5
      vertex 4.59627 -3.85673 0
      vertex 3.85673 -4.59627 0
    endloop
  endfacet
  facet normal -0.573576 0.819152 0
    outer loop
      vertex 3.85673 -4.59627 5
      vertex 3.85673 -4.59627 0
      vertex 3 -5.19615 5
    endloop
  endfacet
  facet normal -0.573576 0.819152 0
    outer loop
      vertex 3 -5.19615 5
      vertex 3.85673 -4.59627 0
      vertex 3 -5.19615 0
    endloop
  endfacet
  facet normal -0.422619 0.906308 0
    outer loop
      vertex 3 -5.19615 5
      vertex 3 -5.19615 0
      vertex 2.05212 -5.63816 5
    endloop
  endfacet
  facet normal -0.422619 0.906308 0
    outer loop
      vertex 2.05212 -5.63816 5
      vertex 3 -5.19615 0
      vertex 2.05212 -5.63816 0
    endloop
  endfacet
  facet normal -0.258819 0.965926 0
    outer loop
      vertex 2.05212 -5.63816 5
      vertex 2.05212 -5.63816 0
      vertex 1.04189 -5.90885 5
    endloop
  endfacet
  facet normal -0.258819 0.965926 0
    outer loop
      vertex 1.04189 -5.90885 5
      vertex 2.05212 -5.63816 0
      vertex 1.04189 -5.90885 0
    endloop
  endfacet
  facet normal -0.0871553 0.996195 0
    outer loop
      vertex 1.04189 -5.90885 5
      vertex 1.04189 -5.90885 0
      vertex 0 -6 5
    endloop
  endfacet
  facet normal -0.0871553 0.996195 0
    outer loop
      vertex 0 -6 5
      vertex 1.04189 -5.90885 0
      vertex 0 -6 0
    endloop
  endfacet
  facet normal 0.0871553 0.996195 -0
    outer loop
      vertex 0 -6 5
      vertex 0 -6 0
      vertex -1.04189 -5.90885 5
    endloop
  endfacet
  facet normal 0.0871553 0.996195 -0
    outer loop
      vertex -1.04189 -5.90885 5
      vertex 0 -6 0
      vertex -1.04189 -5.90885 0
    endloop
  endfacet
  facet normal 0.258819 0.965926 -0
    outer loop
      vertex -1.04189 -5.90885 5
      vertex -1.04189 -5.90885 0
      vertex -2.05212 -5.63816 5
    endloop
  endfacet
  facet normal 0.258819 0.965926 -0
    outer loop
      vertex -2.05212 -5.63816 5
      vertex -1.04189 -5.90885 0
      vertex -2.05212 -5.63816 0
    endloop
  endfacet
  facet normal 0.422619 0.906308 -0
    outer loop
      vertex -2.05212 -5.63816 5
      vertex -2.05212 -5.63816 0
      vertex -3 -5.19615 5
    endloop
  endfacet
  facet normal 0.422619 0.906308 -0
    outer loop
      vertex -3 -5.19615 5
      vertex -2.05212 -5.63816 0
      vertex -3 -5.19615 0
    endloop
  endfacet
  facet normal 0.5 0.866025 -0
    outer loop
      vertex -3 -5.19615 5
      vertex -3 -5.19615 0
      vertex -21.8989 5.71513 5
    endloop
  endfacet
  facet normal 0.5 0.866025 -1.86361e-16
    outer loop
      vertex -21.8989 5.71513 5
      vertex -3 -5.19615 0
      vertex -22.5788 6.1077 0
    endloop
  endfacet
  facet normal -0.567855 0.810981 0.140894
    outer loop
      vertex -22.2217 5.48911 5
      vertex -21.8989 5.71513 5
      vertex -22.5788 6.1077 0
    endloop
  endfacet
  facet normal -0.418402 0.897267 0.140894
    outer loop
      vertex -22.2217 5.48911 5
      vertex -22.5788 6.1077 0
      vertex -23.0116 5.12077 5
    endloop
  endfacet
  facet normal -0.418402 0.897267 0.140894
    outer loop
      vertex -23.7384 4.46779 7
      vertex -24.0393 4.64152 5
      vertex -24.1326 4.284 7
    endloop
  endfacet
  facet normal -0.418402 0.897267 0.140894
    outer loop
      vertex -22.5788 6.1077 0
      vertex -24.0393 4.64152 5
      vertex -23.0116 5.12077 5
    endloop
  endfacet
  facet normal -0.418402 0.897267 0.140894
    outer loop
      vertex -24.4746 5.22369 0
      vertex -24.0393 4.64152 5
      vertex -22.5788 6.1077 0
    endloop
  endfacet
  facet normal -0.418402 0.897267 0.140894
    outer loop
      vertex -24.1326 4.284 7
      vertex -24.0393 4.64152 5
      vertex -24.4746 5.22369 0
    endloop
  endfacet
  facet normal -0.256237 0.95629 0.140894
    outer loop
      vertex -24.1326 4.284 7
      vertex -24.4746 5.22369 0
      vertex -26.3214 3.6975 7
    endloop
  endfacet
  facet normal -0.256237 0.95629 0.140894
    outer loop
      vertex -26.3214 3.6975 7
      vertex -24.4746 5.22369 0
      vertex -26.4951 4.68231 0
    endloop
  endfacet
  facet normal -0.0862864 0.986257 0.140894
    outer loop
      vertex -26.3214 3.6975 7
      vertex -26.4951 4.68231 0
      vertex -27.5369 3.59115 7
    endloop
  endfacet
  facet normal -0.0862866 0.986257 0.140894
    outer loop
      vertex -26.4951 4.68231 0
      vertex -27.5988 4.58574 0
      vertex -27.5369 3.59115 7
    endloop
  endfacet
  facet normal -0.0862866 0.986257 0.140894
    outer loop
      vertex -27.5369 3.59115 7
      vertex -27.5988 4.58574 0
      vertex -27.687 3.57803 7
    endloop
  endfacet
  facet normal 0.965926 0.258818 0
    outer loop
      vertex -17.0215 -9.25 7
      vertex -16.8875 -9.75 7
      vertex -16.8875 -9.75 0
    endloop
  endfacet
  facet normal 0.965926 0.258818 0
    outer loop
      vertex -17.0215 -9.25 0
      vertex -17.0215 -9.25 7
      vertex -16.8875 -9.75 0
    endloop
  endfacet
  facet normal 0.965926 -0.258819 0
    outer loop
      vertex -16.8875 -8.75 0
      vertex -16.8875 -8.75 7
      vertex -17.0215 -9.25 7
    endloop
  endfacet
  facet normal 0.965926 -0.258819 0
    outer loop
      vertex -17.0215 -9.25 0
      vertex -16.8875 -8.75 0
      vertex -17.0215 -9.25 7
    endloop
  endfacet
  facet normal 0.707107 -0.707106 0
    outer loop
      vertex -16.5215 -8.38397 0
      vertex -16.5215 -8.38397 7
      vertex -16.8875 -8.75 7
    endloop
  endfacet
  facet normal 0.707107 -0.707106 0
    outer loop
      vertex -16.8875 -8.75 0
      vertex -16.5215 -8.38397 0
      vertex -16.8875 -8.75 7
    endloop
  endfacet
  facet normal 0.258818 -0.965926 0
    outer loop
      vertex -16.0215 -8.25 0
      vertex -16.0215 -8.25 7
      vertex -16.5215 -8.38397 7
    endloop
  endfacet
  facet normal 0.258818 -0.965926 0
    outer loop
      vertex -16.5215 -8.38397 0
      vertex -16.0215 -8.25 0
      vertex -16.5215 -8.38397 7
    endloop
  endfacet
  facet normal -0.258819 -0.965926 -0
    outer loop
      vertex -15.5215 -8.38397 0
      vertex -15.5215 -8.38397 7
      vertex -16.0215 -8.25 7
    endloop
  endfacet
  facet normal -0.258819 -0.965926 -0
    outer loop
      vertex -16.0215 -8.25 0
      vertex -15.5215 -8.38397 0
      vertex -16.0215 -8.25 7
    endloop
  endfacet
  facet normal -0.707106 -0.707107 -0
    outer loop
      vertex -15.1554 -8.75 0
      vertex -15.1554 -8.75 7
      vertex -15.5215 -8.38397 7
    endloop
  endfacet
  facet normal -0.707106 -0.707107 -0
    outer loop
      vertex -15.5215 -8.38397 0
      vertex -15.1554 -8.75 0
      vertex -15.5215 -8.38397 7
    endloop
  endfacet
  facet normal -0.965926 -0.258818 0
    outer loop
      vertex -15.0215 -9.25 7
      vertex -15.1554 -8.75 7
      vertex -15.0215 -9.25 0
    endloop
  endfacet
  facet normal -0.965926 -0.258818 0
    outer loop
      vertex -15.0215 -9.25 0
      vertex -15.1554 -8.75 7
      vertex -15.1554 -8.75 0
    endloop
  endfacet
  facet normal -0.965926 0.258819 0
    outer loop
      vertex -15.0215 -9.25 7
      vertex -15.0215 -9.25 0
      vertex -15.1554 -9.75 7
    endloop
  endfacet
  facet normal -0.965926 0.258819 0
    outer loop
      vertex -15.1554 -9.75 7
      vertex -15.0215 -9.25 0
      vertex -15.1554 -9.75 0
    endloop
  endfacet
  facet normal -0.707107 0.707106 0
    outer loop
      vertex -15.1554 -9.75 7
      vertex -15.1554 -9.75 0
      vertex -15.5215 -10.116 7
    endloop
  endfacet
  facet normal -0.707107 0.707106 0
    outer loop
      vertex -15.5215 -10.116 7
      vertex -15.1554 -9.75 0
      vertex -15.5215 -10.116 0
    endloop
  endfacet
  facet normal -0.258818 0.965926 0
    outer loop
      vertex -15.5215 -10.116 7
      vertex -15.5215 -10.116 0
      vertex -16.0215 -10.25 7
    endloop
  endfacet
  facet normal -0.258818 0.965926 0
    outer loop
      vertex -16.0215 -10.25 7
      vertex -15.5215 -10.116 0
      vertex -16.0215 -10.25 0
    endloop
  endfacet
  facet normal 0.258819 0.965926 -0
    outer loop
      vertex -16.0215 -10.25 7
      vertex -16.0215 -10.25 0
      vertex -16.5215 -10.116 7
    endloop
  endfacet
  facet normal 0.258819 0.965926 -0
    outer loop
      vertex -16.5215 -10.116 7
      vertex -16.0215 -10.25 0
      vertex -16.5215 -10.116 0
    endloop
  endfacet
  facet normal 0.707106 0.707107 -0
    outer loop
      vertex -16.5215 -10.116 7
      vertex -16.5215 -10.116 0
      vertex -16.8875 -9.75 7
    endloop
  endfacet
  facet normal 0.707106 0.707107 -0
    outer loop
      vertex -16.8875 -9.75 7
      vertex -16.5215 -10.116 0
      vertex -16.8875 -9.75 0
    endloop
  endfacet
  facet normal 0.965926 -0.25882 0
    outer loop
      vertex -0.866025 19 0
      vertex -0.866025 19 7
      vertex -1 18.5 7
    endloop
  endfacet
  facet normal 0.965926 -0.25882 0
    outer loop
      vertex -1 18.5 0
      vertex -0.866025 19 0
      vertex -1 18.5 7
    endloop
  endfacet
  facet normal 0.965926 0.25882 0
    outer loop
      vertex -1 18.5 7
      vertex -0.866025 18 7
      vertex -0.866025 18 0
    endloop
  endfacet
  facet normal 0.965926 0.25882 0
    outer loop
      vertex -1 18.5 0
      vertex -1 18.5 7
      vertex -0.866025 18 0
    endloop
  endfacet
  facet normal 0.707107 -0.707107 0
    outer loop
      vertex -0.5 19.366 0
      vertex -0.5 19.366 7
      vertex -0.866025 19 7
    endloop
  endfacet
  facet normal 0.707107 -0.707107 0
    outer loop
      vertex -0.866025 19 0
      vertex -0.5 19.366 0
      vertex -0.866025 19 7
    endloop
  endfacet
  facet normal 0.25882 -0.965926 0
    outer loop
      vertex 0 19.5 0
      vertex 0 19.5 7
      vertex -0.5 19.366 7
    endloop
  endfacet
  facet normal 0.25882 -0.965926 0
    outer loop
      vertex -0.5 19.366 0
      vertex 0 19.5 0
      vertex -0.5 19.366 7
    endloop
  endfacet
  facet normal -0.25882 -0.965926 -0
    outer loop
      vertex 0.5 19.366 0
      vertex 0.5 19.366 7
      vertex 0 19.5 7
    endloop
  endfacet
  facet normal -0.25882 -0.965926 -0
    outer loop
      vertex 0 19.5 0
      vertex 0.5 19.366 0
      vertex 0 19.5 7
    endloop
  endfacet
  facet normal -0.707107 -0.707107 -0
    outer loop
      vertex 0.866025 19 0
      vertex 0.866025 19 7
      vertex 0.5 19.366 7
    endloop
  endfacet
  facet normal -0.707107 -0.707107 -0
    outer loop
      vertex 0.5 19.366 0
      vertex 0.866025 19 0
      vertex 0.5 19.366 7
    endloop
  endfacet
  facet normal -0.965926 -0.25882 0
    outer loop
      vertex 1 18.5 7
      vertex 0.866025 19 7
      vertex 1 18.5 0
    endloop
  endfacet
  facet normal -0.965926 -0.25882 0
    outer loop
      vertex 1 18.5 0
      vertex 0.866025 19 7
      vertex 0.866025 19 0
    endloop
  endfacet
  facet normal -0.965926 0.25882 0
    outer loop
      vertex 1 18.5 7
      vertex 1 18.5 0
      vertex 0.866025 18 7
    endloop
  endfacet
  facet normal -0.965926 0.25882 0
    outer loop
      vertex 0.866025 18 7
      vertex 1 18.5 0
      vertex 0.866025 18 0
    endloop
  endfacet
  facet normal -0.707107 0.707107 0
    outer loop
      vertex 0.866025 18 7
      vertex 0.866025 18 0
      vertex 0.5 17.634 7
    endloop
  endfacet
  facet normal -0.707107 0.707107 0
    outer loop
      vertex 0.5 17.634 7
      vertex 0.866025 18 0
      vertex 0.5 17.634 0
    endloop
  endfacet
  facet normal -0.25882 0.965926 0
    outer loop
      vertex 0.5 17.634 7
      vertex 0.5 17.634 0
      vertex 0 17.5 7
    endloop
  endfacet
  facet normal -0.25882 0.965926 0
    outer loop
      vertex 0 17.5 7
      vertex 0.5 17.634 0
      vertex 0 17.5 0
    endloop
  endfacet
  facet normal 0.25882 0.965926 -0
    outer loop
      vertex 0 17.5 7
      vertex 0 17.5 0
      vertex -0.5 17.634 7
    endloop
  endfacet
  facet normal 0.25882 0.965926 -0
    outer loop
      vertex -0.5 17.634 7
      vertex 0 17.5 0
      vertex -0.5 17.634 0
    endloop
  endfacet
  facet normal 0.707107 0.707107 -0
    outer loop
      vertex -0.5 17.634 7
      vertex -0.5 17.634 0
      vertex -0.866025 18 7
    endloop
  endfacet
  facet normal 0.707107 0.707107 -0
    outer loop
      vertex -0.866025 18 7
      vertex -0.5 17.634 0
      vertex -0.866025 18 0
    endloop
  endfacet
  facet normal 0.707106 -0.707107 0
    outer loop
      vertex 15.5215 -8.38397 0
      vertex 15.5215 -8.38397 7
      vertex 15.1554 -8.75 7
    endloop
  endfacet
  facet normal 0.707106 -0.707107 0
    outer loop
      vertex 15.1554 -8.75 0
      vertex 15.5215 -8.38397 0
      vertex 15.1554 -8.75 7
    endloop
  endfacet
  facet normal 0.965926 -0.258818 0
    outer loop
      vertex 15.1554 -8.75 0
      vertex 15.1554 -8.75 7
      vertex 15.0215 -9.25 7
    endloop
  endfacet
  facet normal 0.965926 -0.258818 0
    outer loop
      vertex 15.0215 -9.25 0
      vertex 15.1554 -8.75 0
      vertex 15.0215 -9.25 7
    endloop
  endfacet
  facet normal 0.258819 -0.965926 0
    outer loop
      vertex 16.0215 -8.25 0
      vertex 16.0215 -8.25 7
      vertex 15.5215 -8.38397 7
    endloop
  endfacet
  facet normal 0.258819 -0.965926 0
    outer loop
      vertex 15.5215 -8.38397 0
      vertex 16.0215 -8.25 0
      vertex 15.5215 -8.38397 7
    endloop
  endfacet
  facet normal -0.258818 -0.965926 -0
    outer loop
      vertex 16.5215 -8.38397 0
      vertex 16.5215 -8.38397 7
      vertex 16.0215 -8.25 7
    endloop
  endfacet
  facet normal -0.258818 -0.965926 -0
    outer loop
      vertex 16.0215 -8.25 0
      vertex 16.5215 -8.38397 0
      vertex 16.0215 -8.25 7
    endloop
  endfacet
  facet normal -0.707107 -0.707106 0
    outer loop
      vertex 16.8875 -8.75 7
      vertex 16.5215 -8.38397 7
      vertex 16.8875 -8.75 0
    endloop
  endfacet
  facet normal -0.707107 -0.707106 0
    outer loop
      vertex 16.8875 -8.75 0
      vertex 16.5215 -8.38397 7
      vertex 16.5215 -8.38397 0
    endloop
  endfacet
  facet normal -0.965926 -0.258819 0
    outer loop
      vertex 17.0215 -9.25 7
      vertex 16.8875 -8.75 7
      vertex 17.0215 -9.25 0
    endloop
  endfacet
  facet normal -0.965926 -0.258819 0
    outer loop
      vertex 17.0215 -9.25 0
      vertex 16.8875 -8.75 7
      vertex 16.8875 -8.75 0
    endloop
  endfacet
  facet normal -0.965926 0.258818 0
    outer loop
      vertex 17.0215 -9.25 7
      vertex 17.0215 -9.25 0
      vertex 16.8875 -9.75 7
    endloop
  endfacet
  facet normal -0.965926 0.258818 0
    outer loop
      vertex 16.8875 -9.75 7
      vertex 17.0215 -9.25 0
      vertex 16.8875 -9.75 0
    endloop
  endfacet
  facet normal -0.707106 0.707107 0
    outer loop
      vertex 16.8875 -9.75 7
      vertex 16.8875 -9.75 0
      vertex 16.5215 -10.116 7
    endloop
  endfacet
  facet normal -0.707106 0.707107 0
    outer loop
      vertex 16.5215 -10.116 7
      vertex 16.8875 -9.75 0
      vertex 16.5215 -10.116 0
    endloop
  endfacet
  facet normal -0.258819 0.965926 0
    outer loop
      vertex 16.5215 -10.116 7
      vertex 16.5215 -10.116 0
      vertex 16.0215 -10.25 7
    endloop
  endfacet
  facet normal -0.258819 0.965926 0
    outer loop
      vertex 16.0215 -10.25 7
      vertex 16.5215 -10.116 0
      vertex 16.0215 -10.25 0
    endloop
  endfacet
  facet normal 0.258818 0.965926 -0
    outer loop
      vertex 16.0215 -10.25 7
      vertex 16.0215 -10.25 0
      vertex 15.5215 -10.116 7
    endloop
  endfacet
  facet normal 0.258818 0.965926 -0
    outer loop
      vertex 15.5215 -10.116 7
      vertex 16.0215 -10.25 0
      vertex 15.5215 -10.116 0
    endloop
  endfacet
  facet normal 0.707107 0.707106 0
    outer loop
      vertex 15.1554 -9.75 7
      vertex 15.5215 -10.116 7
      vertex 15.5215 -10.116 0
    endloop
  endfacet
  facet normal 0.707107 0.707106 0
    outer loop
      vertex 15.1554 -9.75 0
      vertex 15.1554 -9.75 7
      vertex 15.5215 -10.116 0
    endloop
  endfacet
  facet normal 0.965926 0.258819 0
    outer loop
      vertex 15.0215 -9.25 7
      vertex 15.1554 -9.75 7
      vertex 15.1554 -9.75 0
    endloop
  endfacet
  facet normal 0.965926 0.258819 0
    outer loop
      vertex 15.0215 -9.25 0
      vertex 15.0215 -9.25 7
      vertex 15.1554 -9.75 0
    endloop
  endfacet
  facet normal 0 -0 1
    outer loop
      vertex -27.687 3.57803 7
      vertex -28 0 7
      vertex -27.5746 -4.86215 7
    endloop
  endfacet
  facet normal 0 0 1
    outer loop
      vertex -24.2487 -14 7
      vertex -27.687 3.57803 7
      vertex -26.3114 -9.57656 7
    endloop
  endfacet
  facet normal 0 0 1
    outer loop
      vertex -26.3114 -9.57656 7
      vertex -27.687 3.57803 7
      vertex -27.5746 -4.86215 7
    endloop
  endfacet
  facet normal 0 0 1
    outer loop
      vertex -21.4492 -17.9981 7
      vertex -27.687 3.57803 7
      vertex -24.2487 -14 7
    endloop
  endfacet
  facet normal 0 0 1
    outer loop
      vertex -17.9981 -21.4492 7
      vertex -27.687 3.57803 7
      vertex -21.4492 -17.9981 7
    endloop
  endfacet
  facet normal 0 0 1
    outer loop
      vertex -14 -24.2487 7
      vertex -27.687 3.57803 7
      vertex -17.9981 -21.4492 7
    endloop
  endfacet
  facet normal 0 0 1
    outer loop
      vertex -10.7448 -25.7666 7
      vertex -27.687 3.57803 7
      vertex -14 -24.2487 7
    endloop
  endfacet
  facet normal -0 0 1
    outer loop
      vertex -10.5585 -25.5005 7
      vertex -27.687 3.57803 7
      vertex -10.7448 -25.7666 7
    endloop
  endfacet
  facet normal -0 0 1
    outer loop
      vertex -9.95858 -24.6438 7
      vertex -27.687 3.57803 7
      vertex -10.5585 -25.5005 7
    endloop
  endfacet
  facet normal -0 0 1
    outer loop
      vertex -8.35624 -23.0414 7
      vertex -27.687 3.57803 7
      vertex -9.95858 -24.6438 7
    endloop
  endfacet
  facet normal -0 0 1
    outer loop
      vertex -7.35673 -22.3416 7
      vertex -27.687 3.57803 7
      vertex -8.35624 -23.0414 7
    endloop
  endfacet
  facet normal -0 -0 1
    outer loop
      vertex -16.8875 -9.75 7
      vertex -27.687 3.57803 7
      vertex -7.35673 -22.3416 7
    endloop
  endfacet
  facet normal 0 -0 1
    outer loop
      vertex -15.0215 -9.25 7
      vertex -15.1554 -9.75 7
      vertex -4.44626 -20.784 7
    endloop
  endfacet
  facet normal 0 0 1
    outer loop
      vertex -15.1554 -8.75 7
      vertex -15.0215 -9.25 7
      vertex -3.26766 -20.4682 7
    endloop
  endfacet
  facet normal -0 0 1
    outer loop
      vertex -1.04189 -20.0912 7
      vertex -27.687 3.57803 7
      vertex -2.25743 -20.1975 7
    endloop
  endfacet
  facet normal -0 0 1
    outer loop
      vertex -2.44921e-15 -20 7
      vertex -27.687 3.57803 7
      vertex -1.04189 -20.0912 7
    endloop
  endfacet
  facet normal 0 0 1
    outer loop
      vertex 1.21554 -20.1063 7
      vertex -27.687 3.57803 7
      vertex -2.44921e-15 -20 7
    endloop
  endfacet
  facet normal 0 0 1
    outer loop
      vertex 2.25743 -20.1975 7
      vertex -27.687 3.57803 7
      vertex 1.21554 -20.1063 7
    endloop
  endfacet
  facet normal 0 0 1
    outer loop
      vertex 3.43603 -20.5133 7
      vertex -27.687 3.57803 7
      vertex 2.25743 -20.1975 7
    endloop
  endfacet
  facet normal 0 0 1
    outer loop
      vertex 4.44626 -20.784 7
      vertex -27.687 3.57803 7
      vertex 3.43603 -20.5133 7
    endloop
  endfacet
  facet normal 0 0 1
    outer loop
      vertex 5.55212 -21.2997 7
      vertex -27.687 3.57803 7
      vertex 4.44626 -20.784 7
    endloop
  endfacet
  facet normal 0 0 1
    outer loop
      vertex 6.5 -21.7417 7
      vertex -27.687 3.57803 7
      vertex 5.55212 -21.2997 7
    endloop
  endfacet
  facet normal 0 0 1
    outer loop
      vertex 7.49951 -22.4415 7
      vertex -27.687 3.57803 7
      vertex 6.5 -21.7417 7
    endloop
  endfacet
  facet normal 0 0 1
    outer loop
      vertex 8.35624 -23.0414 7
      vertex -27.687 3.57803 7
      vertex 7.49951 -22.4415 7
    endloop
  endfacet
  facet normal 0 0 1
    outer loop
      vertex 14 -24.2487 7
      vertex -27.687 3.57803 7
      vertex 8.35624 -23.0414 7
    endloop
  endfacet
  facet normal -0 0 1
    outer loop
      vertex 14 -24.2487 7
      vertex 8.35624 -23.0414 7
      vertex 9.95858 -24.6438 7
    endloop
  endfacet
  facet normal 0 0 2.85436e-08
    outer loop
      vertex 10.7448 -25.7666 7
      vertex 9.95858 -24.6438 7
      vertex 10.6584 -25.6433 7
    endloop
  endfacet
  facet normal 0 0 1
    outer loop
      vertex 14 -24.2487 7
      vertex 9.95858 -24.6438 7
      vertex 10.7448 -25.7666 7
    endloop
  endfacet
  facet normal -0 0 1
    outer loop
      vertex 17.9981 -21.4492 7
      vertex -27.687 3.57803 7
      vertex 14 -24.2487 7
    endloop
  endfacet
  facet normal -0 -0 1
    outer loop
      vertex -2.73616 -7.51754 7
      vertex -27.687 3.57803 7
      vertex 17.9981 -21.4492 7
    endloop
  endfacet
  facet normal 0 -0 1
    outer loop
      vertex 4 -6.9282 7
      vertex 2.73616 -7.51754 7
      vertex 24.2487 -14 7
    endloop
  endfacet
  facet normal 0 -0 1
    outer loop
      vertex 6.9282 -4 7
      vertex 6.12836 -5.1423 7
      vertex 26.3114 -9.57656 7
    endloop
  endfacet
  facet normal 0 -0 1
    outer loop
      vertex 7.87846 -1.38918 7
      vertex 7.51754 -2.73616 7
      vertex 27.5746 -4.86215 7
    endloop
  endfacet
  facet normal 0 0 1
    outer loop
      vertex 7.87846 1.38918 7
      vertex 8 0 7
      vertex 28 0 7
    endloop
  endfacet
  facet normal -0 -0 1
    outer loop
      vertex -1.38918 -7.87846 7
      vertex -2.73616 -7.51754 7
      vertex 21.4492 -17.9981 7
    endloop
  endfacet
  facet normal 0 0 1
    outer loop
      vertex 6.9282 4 7
      vertex 27.3633 3.60635 7
      vertex 26.3214 3.6975 7
    endloop
  endfacet
  facet normal 0 0 1
    outer loop
      vertex 6.9282 4 7
      vertex 27.687 3.57803 7
      vertex 27.3633 3.60635 7
    endloop
  endfacet
  facet normal 0 0 1
    outer loop
      vertex 6.9282 4 7
      vertex 7.51754 2.73616 7
      vertex 27.687 3.57803 7
    endloop
  endfacet
  facet normal 0 0 1
    outer loop
      vertex 6.12836 5.1423 7
      vertex 23.0267 4.79967 7
      vertex 22.0788 5.24167 7
    endloop
  endfacet
  facet normal 0 0 1
    outer loop
      vertex 6.12836 5.1423 7
      vertex 24.1326 4.284 7
      vertex 23.0267 4.79967 7
    endloop
  endfacet
  facet normal 0 0 1
    outer loop
      vertex 5.1423 6.12836 7
      vertex 21.0793 5.94154 7
      vertex 20.2226 6.54142 7
    endloop
  endfacet
  facet normal 0 0 1
    outer loop
      vertex 4 6.9282 7
      vertex 19.3598 7.40422 7
      vertex 18.6203 8.14376 7
    endloop
  endfacet
  facet normal 0 0 1
    outer loop
      vertex -15.7763 18.7574 7
      vertex -15.7384 18.3242 7
      vertex -9.57656 26.3114 7
    endloop
  endfacet
  facet normal 0 0 1
    outer loop
      vertex -16.9421 22.1886 7
      vertex -16.8048 21.8941 7
      vertex -14 24.2487 7
    endloop
  endfacet
  facet normal 0 0 1
    outer loop
      vertex -16.8048 21.8941 7
      vertex -16.3628 20.9463 7
      vertex -14 24.2487 7
    endloop
  endfacet
  facet normal 0 -0 1
    outer loop
      vertex -14 24.2487 7
      vertex -15.7763 18.7574 7
      vertex -9.57656 26.3114 7
    endloop
  endfacet
  facet normal 0 -0 1
    outer loop
      vertex -9.57656 26.3114 7
      vertex -15.7384 18.3242 7
      vertex -4.86215 27.5746 7
    endloop
  endfacet
  facet normal 0 -0 1
    outer loop
      vertex 17.9204 9.14327 7
      vertex 4 6.9282 7
      vertex 18.6203 8.14376 7
    endloop
  endfacet
  facet normal 0 0 1
    outer loop
      vertex -17.0215 -9.25 7
      vertex -16.8875 -8.75 7
      vertex -27.687 3.57803 7
    endloop
  endfacet
  facet normal 0 -0 1
    outer loop
      vertex 19.3598 7.40422 7
      vertex 5.1423 6.12836 7
      vertex 20.2226 6.54142 7
    endloop
  endfacet
  facet normal 0 -0 1
    outer loop
      vertex 21.0793 5.94154 7
      vertex 6.12836 5.1423 7
      vertex 22.0788 5.24167 7
    endloop
  endfacet
  facet normal 0 -0 1
    outer loop
      vertex 24.1326 4.284 7
      vertex 6.9282 4 7
      vertex 26.3214 3.6975 7
    endloop
  endfacet
  facet normal 0 -0 1
    outer loop
      vertex 27.687 3.57803 7
      vertex 7.51754 2.73616 7
      vertex 28 0 7
    endloop
  endfacet
  facet normal 0 0 1
    outer loop
      vertex 7.51754 2.73616 7
      vertex 7.87846 1.38918 7
      vertex 28 0 7
    endloop
  endfacet
  facet normal 0 0 1
    outer loop
      vertex 28 0 7
      vertex 8 0 7
      vertex 27.5746 -4.86215 7
    endloop
  endfacet
  facet normal 0 -0 1
    outer loop
      vertex 8 0 7
      vertex 7.87846 -1.38918 7
      vertex 27.5746 -4.86215 7
    endloop
  endfacet
  facet normal -0 0 1
    outer loop
      vertex 27.5746 -4.86215 7
      vertex 7.51754 -2.73616 7
      vertex 26.3114 -9.57656 7
    endloop
  endfacet
  facet normal 0 -0 1
    outer loop
      vertex 7.51754 -2.73616 7
      vertex 6.9282 -4 7
      vertex 26.3114 -9.57656 7
    endloop
  endfacet
  facet normal 0 0 1
    outer loop
      vertex 16.5215 -8.38397 7
      vertex 16.8875 -8.75 7
      vertex 26.3114 -9.57656 7
    endloop
  endfacet
  facet normal -0 -0 1
    outer loop
      vertex 15.5215 -10.116 7
      vertex 5.1423 -6.12836 7
      vertex 24.2487 -14 7
    endloop
  endfacet
  facet normal 0 -0 1
    outer loop
      vertex 5.1423 -6.12836 7
      vertex 4 -6.9282 7
      vertex 24.2487 -14 7
    endloop
  endfacet
  facet normal -0 0 1
    outer loop
      vertex 24.2487 -14 7
      vertex 2.73616 -7.51754 7
      vertex 21.4492 -17.9981 7
    endloop
  endfacet
  facet normal 0 -0 1
    outer loop
      vertex 2.73616 -7.51754 7
      vertex 1.38918 -7.87846 7
      vertex 21.4492 -17.9981 7
    endloop
  endfacet
  facet normal 0 -0 1
    outer loop
      vertex 1.38918 -7.87846 7
      vertex 0 -8 7
      vertex 21.4492 -17.9981 7
    endloop
  endfacet
  facet normal -0 -0 1
    outer loop
      vertex 0 -8 7
      vertex -1.38918 -7.87846 7
      vertex 21.4492 -17.9981 7
    endloop
  endfacet
  facet normal -0 0 1
    outer loop
      vertex 21.4492 -17.9981 7
      vertex -2.73616 -7.51754 7
      vertex 17.9981 -21.4492 7
    endloop
  endfacet
  facet normal -0 -0 1
    outer loop
      vertex -4 -6.9282 7
      vertex -27.687 3.57803 7
      vertex -2.73616 -7.51754 7
    endloop
  endfacet
  facet normal 0 0 1
    outer loop
      vertex 4 6.9282 7
      vertex 5.1423 6.12836 7
      vertex 19.3598 7.40422 7
    endloop
  endfacet
  facet normal 0 0 1
    outer loop
      vertex 5.1423 6.12836 7
      vertex 6.12836 5.1423 7
      vertex 21.0793 5.94154 7
    endloop
  endfacet
  facet normal 0 -0 2.43573e-08
    outer loop
      vertex -27.5369 3.59115 7
      vertex -27.687 3.57803 7
      vertex -26.3214 3.6975 7
    endloop
  endfacet
  facet normal 0 0 1
    outer loop
      vertex 6.12836 5.1423 7
      vertex 6.9282 4 7
      vertex 24.1326 4.284 7
    endloop
  endfacet
  facet normal -0 0 1
    outer loop
      vertex -6.5 -21.7417 7
      vertex -16.8875 -9.75 7
      vertex -7.35673 -22.3416 7
    endloop
  endfacet
  facet normal -0 -0 1
    outer loop
      vertex -17.0215 -9.25 7
      vertex -27.687 3.57803 7
      vertex -16.8875 -9.75 7
    endloop
  endfacet
  facet normal 0 0 1
    outer loop
      vertex -16.8875 -8.75 7
      vertex -16.5215 -8.38397 7
      vertex -27.687 3.57803 7
    endloop
  endfacet
  facet normal -0 -0 1
    outer loop
      vertex -16.0215 -10.25 7
      vertex -16.5215 -10.116 7
      vertex -6.5 -21.7417 7
    endloop
  endfacet
  facet normal 0 0 1
    outer loop
      vertex -16.5215 -8.38397 7
      vertex -16.0215 -8.25 7
      vertex -27.687 3.57803 7
    endloop
  endfacet
  facet normal 0 0 1
    outer loop
      vertex -15.5215 -10.116 7
      vertex -6.5 -21.7417 7
      vertex -5.39414 -21.226 7
    endloop
  endfacet
  facet normal 0 0 1
    outer loop
      vertex -16.0215 -8.25 7
      vertex -15.5215 -8.38397 7
      vertex -27.687 3.57803 7
    endloop
  endfacet
  facet normal 0 0 1
    outer loop
      vertex -15.1554 -9.75 7
      vertex -5.39414 -21.226 7
      vertex -4.44626 -20.784 7
    endloop
  endfacet
  facet normal 0 -0 1
    outer loop
      vertex -15.1554 -9.75 7
      vertex -15.5215 -10.116 7
      vertex -5.39414 -21.226 7
    endloop
  endfacet
  facet normal -0 0 1
    outer loop
      vertex -2.25743 -20.1975 7
      vertex -15.5215 -8.38397 7
      vertex -3.26766 -20.4682 7
    endloop
  endfacet
  facet normal 0 0 1
    outer loop
      vertex -2.25743 -20.1975 7
      vertex -27.687 3.57803 7
      vertex -15.5215 -8.38397 7
    endloop
  endfacet
  facet normal 0 0 1
    outer loop
      vertex -15.5215 -8.38397 7
      vertex -15.1554 -8.75 7
      vertex -3.26766 -20.4682 7
    endloop
  endfacet
  facet normal -0 0 1
    outer loop
      vertex -3.26766 -20.4682 7
      vertex -15.0215 -9.25 7
      vertex -4.44626 -20.784 7
    endloop
  endfacet
  facet normal 0 -0 1
    outer loop
      vertex -15.5215 -10.116 7
      vertex -16.0215 -10.25 7
      vertex -6.5 -21.7417 7
    endloop
  endfacet
  facet normal 0 0 1
    outer loop
      vertex 15.1554 -9.75 7
      vertex 15.0215 -9.25 7
      vertex 6.12836 -5.1423 7
    endloop
  endfacet
  facet normal 0 0 1
    outer loop
      vertex -6.5 -21.7417 7
      vertex -16.5215 -10.116 7
      vertex -16.8875 -9.75 7
    endloop
  endfacet
  facet normal 0 0 1
    outer loop
      vertex -4 -6.9282 7
      vertex -23.7384 4.46779 7
      vertex -24.1326 4.284 7
    endloop
  endfacet
  facet normal 0 0 1
    outer loop
      vertex 0 19.5 7
      vertex 0.5 19.366 7
      vertex 9.57656 26.3114 7
    endloop
  endfacet
  facet normal 0 0 1
    outer loop
      vertex 0.5 19.366 7
      vertex 0.866025 19 7
      vertex 9.57656 26.3114 7
    endloop
  endfacet
  facet normal 0 0 1
    outer loop
      vertex 0.866025 19 7
      vertex 1 18.5 7
      vertex 14 24.2487 7
    endloop
  endfacet
  facet normal 0 -0 1
    outer loop
      vertex 9.57656 26.3114 7
      vertex 0.866025 19 7
      vertex 14 24.2487 7
    endloop
  endfacet
  facet normal 0 0 1
    outer loop
      vertex 15.5215 -10.116 7
      vertex 6.12836 -5.1423 7
      vertex 5.1423 -6.12836 7
    endloop
  endfacet
  facet normal 0 0 1
    outer loop
      vertex -4 -6.9282 7
      vertex -24.1326 4.284 7
      vertex -26.3214 3.6975 7
    endloop
  endfacet
  facet normal 0 -0 1
    outer loop
      vertex 1 18.5 7
      vertex 0.866025 18 7
      vertex 14 24.2487 7
    endloop
  endfacet
  facet normal 0 -0 1
    outer loop
      vertex 0.866025 18 7
      vertex 0.5 17.634 7
      vertex 14 24.2487 7
    endloop
  endfacet
  facet normal 0 0 1
    outer loop
      vertex -4 -6.9282 7
      vertex -26.3214 3.6975 7
      vertex -27.687 3.57803 7
    endloop
  endfacet
  facet normal 0 -0 1
    outer loop
      vertex 16.5215 -10.116 7
      vertex 16.0215 -10.25 7
      vertex 24.2487 -14 7
    endloop
  endfacet
  facet normal -0 0 1
    outer loop
      vertex 15.1554 -8.75 7
      vertex 6.12836 -5.1423 7
      vertex 15.0215 -9.25 7
    endloop
  endfacet
  facet normal -0 0 1
    outer loop
      vertex 15.5215 -8.38397 7
      vertex 6.12836 -5.1423 7
      vertex 15.1554 -8.75 7
    endloop
  endfacet
  facet normal -0 0 1
    outer loop
      vertex 16.0215 -8.25 7
      vertex 6.12836 -5.1423 7
      vertex 15.5215 -8.38397 7
    endloop
  endfacet
  facet normal 0 0 1
    outer loop
      vertex 26.3114 -9.57656 7
      vertex 6.12836 -5.1423 7
      vertex 16.0215 -8.25 7
    endloop
  endfacet
  facet normal 0 0 1
    outer loop
      vertex 16.8875 -8.75 7
      vertex 17.0215 -9.25 7
      vertex 26.3114 -9.57656 7
    endloop
  endfacet
  facet normal 0 0 1
    outer loop
      vertex 26.3114 -9.57656 7
      vertex 16.0215 -8.25 7
      vertex 16.5215 -8.38397 7
    endloop
  endfacet
  facet normal 0 -0 1
    outer loop
      vertex 17.0215 -9.25 7
      vertex 16.8875 -9.75 7
      vertex 26.3114 -9.57656 7
    endloop
  endfacet
  facet normal 0 -0 1
    outer loop
      vertex 16.8875 -9.75 7
      vertex 16.5215 -10.116 7
      vertex 24.2487 -14 7
    endloop
  endfacet
  facet normal 0 0 1
    outer loop
      vertex 26.3114 -9.57656 7
      vertex 16.8875 -9.75 7
      vertex 24.2487 -14 7
    endloop
  endfacet
  facet normal -0 -0 1
    outer loop
      vertex 16.0215 -10.25 7
      vertex 15.5215 -10.116 7
      vertex 24.2487 -14 7
    endloop
  endfacet
  facet normal 0 0 1
    outer loop
      vertex 15.5215 -10.116 7
      vertex 15.1554 -9.75 7
      vertex 6.12836 -5.1423 7
    endloop
  endfacet
  facet normal 0 0 1
    outer loop
      vertex -16.3628 20.9463 7
      vertex -15.7763 18.7574 7
      vertex -14 24.2487 7
    endloop
  endfacet
  facet normal 0 0 1
    outer loop
      vertex -0.5 19.366 7
      vertex 0 19.5 7
      vertex 9.57656 26.3114 7
    endloop
  endfacet
  facet normal 0 0 1
    outer loop
      vertex -15.7384 18.3242 7
      vertex 0 28 7
      vertex -4.86215 27.5746 7
    endloop
  endfacet
  facet normal 0 0 1
    outer loop
      vertex -15.7384 18.3242 7
      vertex 4.86215 27.5746 7
      vertex 0 28 7
    endloop
  endfacet
  facet normal 0 0 1
    outer loop
      vertex -15.7384 18.3242 7
      vertex 9.57656 26.3114 7
      vertex 4.86215 27.5746 7
    endloop
  endfacet
  facet normal 0 0 1
    outer loop
      vertex -15.7384 18.3242 7
      vertex -0.5 19.366 7
      vertex 9.57656 26.3114 7
    endloop
  endfacet
  facet normal 0 0 1
    outer loop
      vertex -15.7384 18.3242 7
      vertex -0.866025 19 7
      vertex -0.5 19.366 7
    endloop
  endfacet
  facet normal 0 0 1
    outer loop
      vertex -15.7384 18.3242 7
      vertex -1 18.5 7
      vertex -0.866025 19 7
    endloop
  endfacet
  facet normal 0 0 1
    outer loop
      vertex -15.7384 18.3242 7
      vertex -0.866025 18 7
      vertex -1 18.5 7
    endloop
  endfacet
  facet normal 0 0 1
    outer loop
      vertex -15.7384 18.3242 7
      vertex -0.5 17.634 7
      vertex -0.866025 18 7
    endloop
  endfacet
  facet normal 0 0 1
    outer loop
      vertex -15.7384 18.3242 7
      vertex 0 17.5 7
      vertex -0.5 17.634 7
    endloop
  endfacet
  facet normal 0 0 1
    outer loop
      vertex 0.5 17.634 7
      vertex 16.9421 22.1886 7
      vertex 14 24.2487 7
    endloop
  endfacet
  facet normal 0 0 1
    outer loop
      vertex 0.5 17.634 7
      vertex 16.8785 22.0521 7
      vertex 16.9421 22.1886 7
    endloop
  endfacet
  facet normal 0 0 1
    outer loop
      vertex 0.5 17.634 7
      vertex 16.3628 20.9463 7
      vertex 16.8785 22.0521 7
    endloop
  endfacet
  facet normal 0 0 1
    outer loop
      vertex 0 17.5 7
      vertex 16.3628 20.9463 7
      vertex 0.5 17.634 7
    endloop
  endfacet
  facet normal 0 0 1
    outer loop
      vertex 0 17.5 7
      vertex 15.7763 18.7574 7
      vertex 16.3628 20.9463 7
    endloop
  endfacet
  facet normal 0 0 1
    outer loop
      vertex 0 17.5 7
      vertex 15.6852 17.7155 7
      vertex 15.7763 18.7574 7
    endloop
  endfacet
  facet normal 0 0 1
    outer loop
      vertex 0 17.5 7
      vertex 15.5788 16.5 7
      vertex 15.6852 17.7155 7
    endloop
  endfacet
  facet normal 0 0 1
    outer loop
      vertex -15.7384 18.3242 7
      vertex 15.5788 16.5 7
      vertex 0 17.5 7
    endloop
  endfacet
  facet normal 0 0 1
    outer loop
      vertex -15.7384 18.3242 7
      vertex 15.67 15.4581 7
      vertex 15.5788 16.5 7
    endloop
  endfacet
  facet normal 0 0 1
    outer loop
      vertex -15.7384 18.3242 7
      vertex 15.7763 14.2426 7
      vertex 15.67 15.4581 7
    endloop
  endfacet
  facet normal 0 0 1
    outer loop
      vertex -15.7384 18.3242 7
      vertex 16.047 13.2323 7
      vertex 15.7763 14.2426 7
    endloop
  endfacet
  facet normal 0 0 1
    outer loop
      vertex -15.7384 18.3242 7
      vertex 16.3628 12.0537 7
      vertex 16.047 13.2323 7
    endloop
  endfacet
  facet normal 0 0 1
    outer loop
      vertex -15.7384 18.3242 7
      vertex 16.8048 11.1059 7
      vertex 16.3628 12.0537 7
    endloop
  endfacet
  facet normal 0 0 1
    outer loop
      vertex -15.7384 18.3242 7
      vertex 17.3205 10 7
      vertex 16.8048 11.1059 7
    endloop
  endfacet
  facet normal 0 0 1
    outer loop
      vertex -15.7384 18.3242 7
      vertex 17.9204 9.14327 7
      vertex 17.3205 10 7
    endloop
  endfacet
  facet normal 0 0 1
    outer loop
      vertex -15.7384 18.3242 7
      vertex 4 6.9282 7
      vertex 17.9204 9.14327 7
    endloop
  endfacet
  facet normal 0.810981 -0.567855 0.140894
    outer loop
      vertex -10.5172 -25.8728 5.26215
      vertex -10.5585 -25.5005 7
      vertex -10.7448 -25.7666 7
    endloop
  endfacet
  facet normal 0.0862864 0.986257 0.140894
    outer loop
      vertex 27.687 3.57803 7
      vertex 27.6651 3.82821 5.26215
      vertex 27.3633 3.60635 7
    endloop
  endfacet
  facet normal -0.897267 -0.418402 0.140894
    outer loop
      vertex -16.8048 21.8941 7
      vertex -16.9421 22.1886 7
      vertex -17.1479 22.0446 5.26215
    endloop
  endfacet
  facet normal 0 0 1
    outer loop
      vertex -1.38918 -7.87846 5
      vertex -4 -6.9282 5
      vertex -2.73616 -7.51754 5
    endloop
  endfacet
  facet normal 0 0 1
    outer loop
      vertex 0 -8 5
      vertex -4 -6.9282 5
      vertex -1.38918 -7.87846 5
    endloop
  endfacet
  facet normal -0 0 1
    outer loop
      vertex -1.04189 -5.90885 5
      vertex -2.05212 -5.63816 5
      vertex -4 -6.9282 5
    endloop
  endfacet
  facet normal -0 0 1
    outer loop
      vertex 1.38918 -7.87846 5
      vertex -4 -6.9282 5
      vertex 0 -8 5
    endloop
  endfacet
  facet normal -0 0 1
    outer loop
      vertex 2.73616 -7.51754 5
      vertex -4 -6.9282 5
      vertex 1.38918 -7.87846 5
    endloop
  endfacet
  facet normal 0 0 1
    outer loop
      vertex 4 -6.9282 5
      vertex -4 -6.9282 5
      vertex 2.73616 -7.51754 5
    endloop
  endfacet
  facet normal 0 0 1
    outer loop
      vertex 5.1423 -6.12836 5
      vertex -4 -6.9282 5
      vertex 4 -6.9282 5
    endloop
  endfacet
  facet normal 0 0 1
    outer loop
      vertex 6.12836 -5.1423 5
      vertex -4 -6.9282 5
      vertex 5.1423 -6.12836 5
    endloop
  endfacet
  facet normal 0 -0 1
    outer loop
      vertex 1.04189 -5.90885 5
      vertex -4 -6.9282 5
      vertex 6.12836 -5.1423 5
    endloop
  endfacet
  facet normal 0 0 1
    outer loop
      vertex 1.04189 -5.90885 5
      vertex 0 -6 5
      vertex -4 -6.9282 5
    endloop
  endfacet
  facet normal 0 -0 1
    outer loop
      vertex 3.85673 -4.59627 5
      vertex 3 -5.19615 5
      vertex 6.9282 -4 5
    endloop
  endfacet
  facet normal 0 -0 1
    outer loop
      vertex 5.19615 -3 5
      vertex 4.59627 -3.85673 5
      vertex 7.51754 -2.73616 5
    endloop
  endfacet
  facet normal 0 -0 1
    outer loop
      vertex 5.63816 -2.05212 5
      vertex 5.19615 -3 5
      vertex 7.87846 -1.38918 5
    endloop
  endfacet
  facet normal 0 -0 1
    outer loop
      vertex 5.90885 -1.04189 5
      vertex 5.63816 -2.05212 5
      vertex 8 0 5
    endloop
  endfacet
  facet normal 0 0 1
    outer loop
      vertex 5.90885 1.04189 5
      vertex 6 0 5
      vertex 7.87846 1.38918 5
    endloop
  endfacet
  facet normal 0 0 1
    outer loop
      vertex 5.63816 2.05212 5
      vertex 5.90885 1.04189 5
      vertex 7.51754 2.73616 5
    endloop
  endfacet
  facet normal 0 0 1
    outer loop
      vertex 5.19615 3 5
      vertex 5.63816 2.05212 5
      vertex 6.9282 4 5
    endloop
  endfacet
  facet normal 0 0 1
    outer loop
      vertex 4.59627 3.85673 5
      vertex 5.19615 3 5
      vertex 6.12836 5.1423 5
    endloop
  endfacet
  facet normal -0 0 1
    outer loop
      vertex -2.05212 -5.63816 5
      vertex -3 -5.19615 5
      vertex -4 -6.9282 5
    endloop
  endfacet
  facet normal 0 0 1
    outer loop
      vertex -16.0393 18.4979 5
      vertex 3 5.19615 5
      vertex 4 6.9282 5
    endloop
  endfacet
  facet normal -0 0 1
    outer loop
      vertex 0 -6 5
      vertex -1.04189 -5.90885 5
      vertex -4 -6.9282 5
    endloop
  endfacet
  facet normal 0 -0 1
    outer loop
      vertex 4 6.9282 5
      vertex 3 5.19615 5
      vertex 5.1423 6.12836 5
    endloop
  endfacet
  facet normal 0 0 1
    outer loop
      vertex 3 5.19615 5
      vertex 3.85673 4.59627 5
      vertex 5.1423 6.12836 5
    endloop
  endfacet
  facet normal -0 0 1
    outer loop
      vertex -3 -5.19615 5
      vertex -21.8989 5.71513 5
      vertex -4 -6.9282 5
    endloop
  endfacet
  facet normal 0 -0 1
    outer loop
      vertex 5.1423 6.12836 5
      vertex 4.59627 3.85673 5
      vertex 6.12836 5.1423 5
    endloop
  endfacet
  facet normal 0 -0 1
    outer loop
      vertex 6.12836 5.1423 5
      vertex 5.19615 3 5
      vertex 6.9282 4 5
    endloop
  endfacet
  facet normal 0 -0 1
    outer loop
      vertex 6.9282 4 5
      vertex 5.63816 2.05212 5
      vertex 7.51754 2.73616 5
    endloop
  endfacet
  facet normal 0 -0 1
    outer loop
      vertex 7.51754 2.73616 5
      vertex 5.90885 1.04189 5
      vertex 7.87846 1.38918 5
    endloop
  endfacet
  facet normal 0 -0 1
    outer loop
      vertex 7.87846 1.38918 5
      vertex 6 0 5
      vertex 8 0 5
    endloop
  endfacet
  facet normal 0 -0 1
    outer loop
      vertex 6 0 5
      vertex 5.90885 -1.04189 5
      vertex 8 0 5
    endloop
  endfacet
  facet normal 0 0 1
    outer loop
      vertex 8 0 5
      vertex 5.63816 -2.05212 5
      vertex 7.87846 -1.38918 5
    endloop
  endfacet
  facet normal 0 0 1
    outer loop
      vertex 7.87846 -1.38918 5
      vertex 5.19615 -3 5
      vertex 7.51754 -2.73616 5
    endloop
  endfacet
  facet normal 0 0 1
    outer loop
      vertex 7.51754 -2.73616 5
      vertex 4.59627 -3.85673 5
      vertex 6.9282 -4 5
    endloop
  endfacet
  facet normal 0 -0 1
    outer loop
      vertex 4.59627 -3.85673 5
      vertex 3.85673 -4.59627 5
      vertex 6.9282 -4 5
    endloop
  endfacet
  facet normal 0 0 1
    outer loop
      vertex 6.9282 -4 5
      vertex 3 -5.19615 5
      vertex 6.12836 -5.1423 5
    endloop
  endfacet
  facet normal 0 -0 1
    outer loop
      vertex 3 -5.19615 5
      vertex 2.05212 -5.63816 5
      vertex 6.12836 -5.1423 5
    endloop
  endfacet
  facet normal 0 -0 1
    outer loop
      vertex 2.05212 -5.63816 5
      vertex 1.04189 -5.90885 5
      vertex 6.12836 -5.1423 5
    endloop
  endfacet
  facet normal 0 0 1
    outer loop
      vertex 3.85673 4.59627 5
      vertex 4.59627 3.85673 5
      vertex 5.1423 6.12836 5
    endloop
  endfacet
  facet normal 0 0 1
    outer loop
      vertex -22.2217 5.48911 5
      vertex -4 -6.9282 5
      vertex -21.8989 5.71513 5
    endloop
  endfacet
  facet normal 0 0 1
    outer loop
      vertex -23.0116 5.12077 5
      vertex -4 -6.9282 5
      vertex -22.2217 5.48911 5
    endloop
  endfacet
  facet normal 0 0 1
    outer loop
      vertex -24.0393 4.64152 5
      vertex -4 -6.9282 5
      vertex -23.0116 5.12077 5
    endloop
  endfacet
  facet normal 0 0 4.36048e-08
    outer loop
      vertex -15.8646 16.5 5
      vertex -16.0393 18.4979 5
      vertex -15.9818 17.8396 5
    endloop
  endfacet
  facet normal 0 0 1
    outer loop
      vertex -15.8646 16.5 5
      vertex 3 5.19615 5
      vertex -16.0393 18.4979 5
    endloop
  endfacet
  facet normal 0 0 1
    outer loop
      vertex -15.8989 16.1074 5
      vertex 3 5.19615 5
      vertex -15.8646 16.5 5
    endloop
  endfacet
  facet normal -0.5 -0.866025 -0
    outer loop
      vertex 4 6.9282 5
      vertex 4 6.9282 7
      vertex -15.7384 18.3242 7
    endloop
  endfacet
  facet normal -0.5 -0.866025 -1.17411e-15
    outer loop
      vertex -16.0393 18.4979 5
      vertex 4 6.9282 5
      vertex -15.7384 18.3242 7
    endloop
  endfacet
  facet normal 0.5 0.866025 -0
    outer loop
      vertex -4 -6.9282 7
      vertex -4 -6.9282 5
      vertex -23.7384 4.46779 7
    endloop
  endfacet
  facet normal 0.5 0.866025 2.92081e-17
    outer loop
      vertex -23.7384 4.46779 7
      vertex -4 -6.9282 5
      vertex -24.0393 4.64152 5
    endloop
  endfacet
  facet normal 0.422618 0.906308 -0
    outer loop
      vertex -2.73616 -7.51754 7
      vertex -2.73616 -7.51754 5
      vertex -4 -6.9282 7
    endloop
  endfacet
  facet normal 0.422618 0.906308 -0
    outer loop
      vertex -4 -6.9282 7
      vertex -2.73616 -7.51754 5
      vertex -4 -6.9282 5
    endloop
  endfacet
  facet normal 0.258819 0.965926 -0
    outer loop
      vertex -1.38918 -7.87846 7
      vertex -1.38918 -7.87846 5
      vertex -2.73616 -7.51754 7
    endloop
  endfacet
  facet normal 0.258819 0.965926 -0
    outer loop
      vertex -2.73616 -7.51754 7
      vertex -1.38918 -7.87846 5
      vertex -2.73616 -7.51754 5
    endloop
  endfacet
  facet normal 0.0871558 0.996195 -0
    outer loop
      vertex 0 -8 7
      vertex 0 -8 5
      vertex -1.38918 -7.87846 7
    endloop
  endfacet
  facet normal 0.0871558 0.996195 -0
    outer loop
      vertex -1.38918 -7.87846 7
      vertex 0 -8 5
      vertex -1.38918 -7.87846 5
    endloop
  endfacet
  facet normal -0.0871558 0.996195 0
    outer loop
      vertex 1.38918 -7.87846 7
      vertex 1.38918 -7.87846 5
      vertex 0 -8 7
    endloop
  endfacet
  facet normal -0.0871558 0.996195 0
    outer loop
      vertex 0 -8 7
      vertex 1.38918 -7.87846 5
      vertex 0 -8 5
    endloop
  endfacet
  facet normal -0.258819 0.965926 0
    outer loop
      vertex 2.73616 -7.51754 7
      vertex 2.73616 -7.51754 5
      vertex 1.38918 -7.87846 7
    endloop
  endfacet
  facet normal -0.258819 0.965926 0
    outer loop
      vertex 1.38918 -7.87846 7
      vertex 2.73616 -7.51754 5
      vertex 1.38918 -7.87846 5
    endloop
  endfacet
  facet normal -0.422618 0.906308 0
    outer loop
      vertex 4 -6.9282 7
      vertex 4 -6.9282 5
      vertex 2.73616 -7.51754 7
    endloop
  endfacet
  facet normal -0.422618 0.906308 0
    outer loop
      vertex 2.73616 -7.51754 7
      vertex 4 -6.9282 5
      vertex 2.73616 -7.51754 5
    endloop
  endfacet
  facet normal -0.573576 0.819152 0
    outer loop
      vertex 5.1423 -6.12836 7
      vertex 5.1423 -6.12836 5
      vertex 4 -6.9282 7
    endloop
  endfacet
  facet normal -0.573576 0.819152 0
    outer loop
      vertex 4 -6.9282 7
      vertex 5.1423 -6.12836 5
      vertex 4 -6.9282 5
    endloop
  endfacet
  facet normal -0.707107 0.707107 0
    outer loop
      vertex 6.12836 -5.1423 7
      vertex 6.12836 -5.1423 5
      vertex 5.1423 -6.12836 7
    endloop
  endfacet
  facet normal -0.707107 0.707107 0
    outer loop
      vertex 5.1423 -6.12836 7
      vertex 6.12836 -5.1423 5
      vertex 5.1423 -6.12836 5
    endloop
  endfacet
  facet normal -0.819152 0.573576 0
    outer loop
      vertex 6.9282 -4 7
      vertex 6.9282 -4 5
      vertex 6.12836 -5.1423 7
    endloop
  endfacet
  facet normal -0.819152 0.573576 0
    outer loop
      vertex 6.12836 -5.1423 7
      vertex 6.9282 -4 5
      vertex 6.12836 -5.1423 5
    endloop
  endfacet
  facet normal -0.906308 0.422618 0
    outer loop
      vertex 7.51754 -2.73616 7
      vertex 7.51754 -2.73616 5
      vertex 6.9282 -4 7
    endloop
  endfacet
  facet normal -0.906308 0.422618 0
    outer loop
      vertex 6.9282 -4 7
      vertex 7.51754 -2.73616 5
      vertex 6.9282 -4 5
    endloop
  endfacet
  facet normal -0.965926 0.258819 0
    outer loop
      vertex 7.87846 -1.38918 7
      vertex 7.87846 -1.38918 5
      vertex 7.51754 -2.73616 7
    endloop
  endfacet
  facet normal -0.965926 0.258819 0
    outer loop
      vertex 7.51754 -2.73616 7
      vertex 7.87846 -1.38918 5
      vertex 7.51754 -2.73616 5
    endloop
  endfacet
  facet normal -0.996195 0.0871558 0
    outer loop
      vertex 8 0 7
      vertex 8 0 5
      vertex 7.87846 -1.38918 7
    endloop
  endfacet
  facet normal -0.996195 0.0871558 0
    outer loop
      vertex 7.87846 -1.38918 7
      vertex 8 0 5
      vertex 7.87846 -1.38918 5
    endloop
  endfacet
  facet normal -0.996195 -0.0871558 0
    outer loop
      vertex 8 0 7
      vertex 7.87846 1.38918 7
      vertex 8 0 5
    endloop
  endfacet
  facet normal -0.996195 -0.0871558 0
    outer loop
      vertex 8 0 5
      vertex 7.87846 1.38918 7
      vertex 7.87846 1.38918 5
    endloop
  endfacet
  facet normal -0.965926 -0.258819 0
    outer loop
      vertex 7.87846 1.38918 7
      vertex 7.51754 2.73616 7
      vertex 7.87846 1.38918 5
    endloop
  endfacet
  facet normal -0.965926 -0.258819 0
    outer loop
      vertex 7.87846 1.38918 5
      vertex 7.51754 2.73616 7
      vertex 7.51754 2.73616 5
    endloop
  endfacet
  facet normal -0.906308 -0.422618 0
    outer loop
      vertex 7.51754 2.73616 7
      vertex 6.9282 4 7
      vertex 7.51754 2.73616 5
    endloop
  endfacet
  facet normal -0.906308 -0.422618 0
    outer loop
      vertex 7.51754 2.73616 5
      vertex 6.9282 4 7
      vertex 6.9282 4 5
    endloop
  endfacet
  facet normal -0.819152 -0.573576 0
    outer loop
      vertex 6.9282 4 7
      vertex 6.12836 5.1423 7
      vertex 6.9282 4 5
    endloop
  endfacet
  facet normal -0.819152 -0.573576 0
    outer loop
      vertex 6.9282 4 5
      vertex 6.12836 5.1423 7
      vertex 6.12836 5.1423 5
    endloop
  endfacet
  facet normal -0.707107 -0.707107 -0
    outer loop
      vertex 6.12836 5.1423 5
      vertex 6.12836 5.1423 7
      vertex 5.1423 6.12836 7
    endloop
  endfacet
  facet normal -0.707107 -0.707107 -0
    outer loop
      vertex 5.1423 6.12836 5
      vertex 6.12836 5.1423 5
      vertex 5.1423 6.12836 7
    endloop
  endfacet
  facet normal -0.573576 -0.819152 -0
    outer loop
      vertex 5.1423 6.12836 5
      vertex 5.1423 6.12836 7
      vertex 4 6.9282 7
    endloop
  endfacet
  facet normal -0.573576 -0.819152 -0
    outer loop
      vertex 4 6.9282 5
      vertex 5.1423 6.12836 5
      vertex 4 6.9282 7
    endloop
  endfacet
endsolid OpenSCAD_Model
