solid OpenSCAD_Model
  facet normal 0 0 -1
    outer loop
      vertex -4 18.5 -8
      vertex -3.69552 20.0307 -8
      vertex -3.69552 16.9693 -8
    endloop
  endfacet
  facet normal 0 0 -1
    outer loop
      vertex -3.69552 16.9693 -8
      vertex -3.69552 20.0307 -8
      vertex -2.82843 21.3284 -8
    endloop
  endfacet
  facet normal 0 0 -1
    outer loop
      vertex -3.69552 16.9693 -8
      vertex -2.82843 21.3284 -8
      vertex -1.53073 22.1955 -8
    endloop
  endfacet
  facet normal 0 0 -1
    outer loop
      vertex -3.69552 16.9693 -8
      vertex -1.53073 22.1955 -8
      vertex 0 22.5 -8
    endloop
  endfacet
  facet normal 0 0 -1
    outer loop
      vertex -0.8625 19.9939 -8
      vertex 0 22.5 -8
      vertex 1.53073 22.1955 -8
    endloop
  endfacet
  facet normal 0 0 -1
    outer loop
      vertex 0 20.225 -8
      vertex 1.53073 22.1955 -8
      vertex 2.82843 21.3284 -8
    endloop
  endfacet
  facet normal 0 0 -1
    outer loop
      vertex 1.49389 19.3625 -8
      vertex 2.82843 21.3284 -8
      vertex 3.69552 20.0307 -8
    endloop
  endfacet
  facet normal 0 0 -1
    outer loop
      vertex 1.725 18.5 -8
      vertex 3.69552 20.0307 -8
      vertex 4 18.5 -8
    endloop
  endfacet
  facet normal 0 0 -1
    outer loop
      vertex 0.8625 17.0061 -8
      vertex 4 18.5 -8
      vertex 3.69552 16.9693 -8
    endloop
  endfacet
  facet normal 0 0 -1
    outer loop
      vertex 0 16.775 -8
      vertex 3.69552 16.9693 -8
      vertex 2.82843 15.6716 -8
    endloop
  endfacet
  facet normal 0 0 -1
    outer loop
      vertex -3.69552 16.9693 -8
      vertex 2.82843 15.6716 -8
      vertex 1.53073 14.8045 -8
    endloop
  endfacet
  facet normal 0 0 -1
    outer loop
      vertex -3.69552 16.9693 -8
      vertex 1.53073 14.8045 -8
      vertex 0 14.5 -8
    endloop
  endfacet
  facet normal 0 0 -1
    outer loop
      vertex -3.69552 16.9693 -8
      vertex 0 14.5 -8
      vertex -1.53073 14.8045 -8
    endloop
  endfacet
  facet normal 0 0 -1
    outer loop
      vertex -3.69552 16.9693 -8
      vertex -1.53073 14.8045 -8
      vertex -2.82843 15.6716 -8
    endloop
  endfacet
  facet normal 0 0 -1
    outer loop
      vertex -1.49389 17.6375 -8
      vertex -3.69552 16.9693 -8
      vertex -1.725 18.5 -8
    endloop
  endfacet
  facet normal 0 0 -1
    outer loop
      vertex -0.8625 17.0061 -8
      vertex -3.69552 16.9693 -8
      vertex -1.49389 17.6375 -8
    endloop
  endfacet
  facet normal 0 0 -1
    outer loop
      vertex 0 16.775 -8
      vertex -3.69552 16.9693 -8
      vertex -0.8625 17.0061 -8
    endloop
  endfacet
  facet normal 0 0 -1
    outer loop
      vertex 0.8625 17.0061 -8
      vertex 3.69552 16.9693 -8
      vertex 0 16.775 -8
    endloop
  endfacet
  facet normal 0 0 -1
    outer loop
      vertex -3.69552 16.9693 -8
      vertex 0 16.775 -8
      vertex 2.82843 15.6716 -8
    endloop
  endfacet
  facet normal 0 0 -1
    outer loop
      vertex 1.49389 17.6375 -8
      vertex 4 18.5 -8
      vertex 0.8625 17.0061 -8
    endloop
  endfacet
  facet normal 0 0 -1
    outer loop
      vertex 1.725 18.5 -8
      vertex 4 18.5 -8
      vertex 1.49389 17.6375 -8
    endloop
  endfacet
  facet normal 0 0 -1
    outer loop
      vertex 1.49389 19.3625 -8
      vertex 3.69552 20.0307 -8
      vertex 1.725 18.5 -8
    endloop
  endfacet
  facet normal 0 0 -1
    outer loop
      vertex 0.8625 19.9939 -8
      vertex 2.82843 21.3284 -8
      vertex 1.49389 19.3625 -8
    endloop
  endfacet
  facet normal 0 0 -1
    outer loop
      vertex -0.8625 19.9939 -8
      vertex 1.53073 22.1955 -8
      vertex 0 20.225 -8
    endloop
  endfacet
  facet normal 0 0 -1
    outer loop
      vertex -1.49389 19.3625 -8
      vertex 0 22.5 -8
      vertex -0.8625 19.9939 -8
    endloop
  endfacet
  facet normal 0 0 -1
    outer loop
      vertex -3.69552 16.9693 -8
      vertex 0 22.5 -8
      vertex -1.49389 19.3625 -8
    endloop
  endfacet
  facet normal 0 0 -1
    outer loop
      vertex -1.725 18.5 -8
      vertex -3.69552 16.9693 -8
      vertex -1.49389 19.3625 -8
    endloop
  endfacet
  facet normal 0 0 -1
    outer loop
      vertex 0 20.225 -8
      vertex 2.82843 21.3284 -8
      vertex 0.8625 19.9939 -8
    endloop
  endfacet
  facet normal -0.976665 0.194271 0.0915624
    outer loop
      vertex -3.69552 20.0307 -8
      vertex -4 18.5 -8
      vertex -2.3097 19.4567 8
    endloop
  endfacet
  facet normal -0.976665 0.194271 0.0915624
    outer loop
      vertex -2.3097 19.4567 8
      vertex -4 18.5 -8
      vertex -2.5 18.5 8
    endloop
  endfacet
  facet normal -0.976665 -0.194271 0.0915624
    outer loop
      vertex -2.5 18.5 8
      vertex -4 18.5 -8
      vertex -3.69552 16.9693 -8
    endloop
  endfacet
  facet normal -0.976665 -0.194271 0.0915624
    outer loop
      vertex -2.5 18.5 8
      vertex -3.69552 16.9693 -8
      vertex -2.3097 17.5433 8
    endloop
  endfacet
  facet normal -0.827977 -0.553237 0.0915624
    outer loop
      vertex -2.3097 17.5433 8
      vertex -3.69552 16.9693 -8
      vertex -2.82843 15.6716 -8
    endloop
  endfacet
  facet normal -0.827977 -0.553237 0.0915624
    outer loop
      vertex -2.3097 17.5433 8
      vertex -2.82843 15.6716 -8
      vertex -1.76777 16.7322 8
    endloop
  endfacet
  facet normal -0.553237 -0.827977 0.0915624
    outer loop
      vertex -1.76777 16.7322 8
      vertex -2.82843 15.6716 -8
      vertex -1.53073 14.8045 -8
    endloop
  endfacet
  facet normal -0.553237 -0.827977 0.0915623
    outer loop
      vertex -0.956709 16.1903 8
      vertex -1.76777 16.7322 8
      vertex -1.53073 14.8045 -8
    endloop
  endfacet
  facet normal -0.194271 -0.976665 0.0915624
    outer loop
      vertex -0.956709 16.1903 8
      vertex -1.53073 14.8045 -8
      vertex 0 14.5 -8
    endloop
  endfacet
  facet normal -0.194271 -0.976665 0.0915624
    outer loop
      vertex 0 16 8
      vertex -0.956709 16.1903 8
      vertex 0 14.5 -8
    endloop
  endfacet
  facet normal 0.194271 -0.976665 0.0915624
    outer loop
      vertex 0 16 8
      vertex 0 14.5 -8
      vertex 1.53073 14.8045 -8
    endloop
  endfacet
  facet normal 0.194271 -0.976665 0.0915624
    outer loop
      vertex 0.956709 16.1903 8
      vertex 0 16 8
      vertex 1.53073 14.8045 -8
    endloop
  endfacet
  facet normal 0.553237 -0.827977 0.0915624
    outer loop
      vertex 2.82843 15.6716 -8
      vertex 0.956709 16.1903 8
      vertex 1.53073 14.8045 -8
    endloop
  endfacet
  facet normal 0.553237 -0.827977 0.0915624
    outer loop
      vertex 1.76777 16.7322 8
      vertex 0.956709 16.1903 8
      vertex 2.82843 15.6716 -8
    endloop
  endfacet
  facet normal 0.827977 -0.553237 0.0915624
    outer loop
      vertex 3.69552 16.9693 -8
      vertex 1.76777 16.7322 8
      vertex 2.82843 15.6716 -8
    endloop
  endfacet
  facet normal 0.827977 -0.553237 0.0915623
    outer loop
      vertex 2.3097 17.5433 8
      vertex 1.76777 16.7322 8
      vertex 3.69552 16.9693 -8
    endloop
  endfacet
  facet normal 0.976665 -0.194271 0.0915624
    outer loop
      vertex 4 18.5 -8
      vertex 2.3097 17.5433 8
      vertex 3.69552 16.9693 -8
    endloop
  endfacet
  facet normal 0.976665 -0.194271 0.0915624
    outer loop
      vertex 2.5 18.5 8
      vertex 2.3097 17.5433 8
      vertex 4 18.5 -8
    endloop
  endfacet
  facet normal 0.976665 0.194271 0.0915624
    outer loop
      vertex 3.69552 20.0307 -8
      vertex 2.5 18.5 8
      vertex 4 18.5 -8
    endloop
  endfacet
  facet normal 0.976665 0.194271 0.0915624
    outer loop
      vertex 3.69552 20.0307 -8
      vertex 2.3097 19.4567 8
      vertex 2.5 18.5 8
    endloop
  endfacet
  facet normal 0.827977 0.553237 0.0915624
    outer loop
      vertex 2.82843 21.3284 -8
      vertex 2.3097 19.4567 8
      vertex 3.69552 20.0307 -8
    endloop
  endfacet
  facet normal 0.827977 0.553237 0.0915624
    outer loop
      vertex 2.82843 21.3284 -8
      vertex 1.76777 20.2678 8
      vertex 2.3097 19.4567 8
    endloop
  endfacet
  facet normal 0.553237 0.827977 0.0915624
    outer loop
      vertex 2.82843 21.3284 -8
      vertex 1.53073 22.1955 -8
      vertex 1.76777 20.2678 8
    endloop
  endfacet
  facet normal 0.553237 0.827977 0.0915623
    outer loop
      vertex 1.53073 22.1955 -8
      vertex 0.956709 20.8097 8
      vertex 1.76777 20.2678 8
    endloop
  endfacet
  facet normal 0.194271 0.976665 0.0915624
    outer loop
      vertex 1.53073 22.1955 -8
      vertex 0 22.5 -8
      vertex 0.956709 20.8097 8
    endloop
  endfacet
  facet normal 0.194271 0.976665 0.0915624
    outer loop
      vertex 0 22.5 -8
      vertex 0 21 8
      vertex 0.956709 20.8097 8
    endloop
  endfacet
  facet normal -0.194271 0.976665 0.0915624
    outer loop
      vertex 0 22.5 -8
      vertex -1.53073 22.1955 -8
      vertex 0 21 8
    endloop
  endfacet
  facet normal -0.194271 0.976665 0.0915624
    outer loop
      vertex 0 21 8
      vertex -1.53073 22.1955 -8
      vertex -0.956709 20.8097 8
    endloop
  endfacet
  facet normal -0.553237 0.827977 0.0915624
    outer loop
      vertex -1.53073 22.1955 -8
      vertex -2.82843 21.3284 -8
      vertex -0.956709 20.8097 8
    endloop
  endfacet
  facet normal -0.553237 0.827977 0.0915624
    outer loop
      vertex -0.956709 20.8097 8
      vertex -2.82843 21.3284 -8
      vertex -1.76777 20.2678 8
    endloop
  endfacet
  facet normal -0.827977 0.553237 0.0915624
    outer loop
      vertex -2.82843 21.3284 -8
      vertex -3.69552 20.0307 -8
      vertex -1.76777 20.2678 8
    endloop
  endfacet
  facet normal -0.827977 0.553237 0.0915623
    outer loop
      vertex -1.76777 20.2678 8
      vertex -3.69552 20.0307 -8
      vertex -2.3097 19.4567 8
    endloop
  endfacet
  facet normal 0.965926 -0.258819 0
    outer loop
      vertex -1.49389 19.3625 -8
      vertex -1.49389 19.3625 24
      vertex -1.725 18.5 24
    endloop
  endfacet
  facet normal 0.965926 -0.258819 0
    outer loop
      vertex -1.725 18.5 -8
      vertex -1.49389 19.3625 -8
      vertex -1.725 18.5 24
    endloop
  endfacet
  facet normal 0.965926 0.258819 0
    outer loop
      vertex -1.725 18.5 24
      vertex -1.49389 17.6375 24
      vertex -1.49389 17.6375 -8
    endloop
  endfacet
  facet normal 0.965926 0.258819 0
    outer loop
      vertex -1.725 18.5 -8
      vertex -1.725 18.5 24
      vertex -1.49389 17.6375 -8
    endloop
  endfacet
  facet normal 0.707107 -0.707107 0
    outer loop
      vertex -0.8625 19.9939 -8
      vertex -0.8625 19.9939 24
      vertex -1.49389 19.3625 24
    endloop
  endfacet
  facet normal 0.707107 -0.707107 0
    outer loop
      vertex -1.49389 19.3625 -8
      vertex -0.8625 19.9939 -8
      vertex -1.49389 19.3625 24
    endloop
  endfacet
  facet normal 0.258819 -0.965926 0
    outer loop
      vertex 0 20.225 -8
      vertex 0 20.225 24
      vertex -0.8625 19.9939 24
    endloop
  endfacet
  facet normal 0.258819 -0.965926 0
    outer loop
      vertex -0.8625 19.9939 -8
      vertex 0 20.225 -8
      vertex -0.8625 19.9939 24
    endloop
  endfacet
  facet normal -0.258819 -0.965926 0
    outer loop
      vertex 0.8625 19.9939 -8
      vertex 0.8625 19.9939 24
      vertex 0 20.225 24
    endloop
  endfacet
  facet normal -0.258819 -0.965926 0
    outer loop
      vertex 0 20.225 -8
      vertex 0.8625 19.9939 -8
      vertex 0 20.225 24
    endloop
  endfacet
  facet normal -0.707107 -0.707107 0
    outer loop
      vertex 1.49389 19.3625 -8
      vertex 1.49389 19.3625 24
      vertex 0.8625 19.9939 24
    endloop
  endfacet
  facet normal -0.707107 -0.707107 0
    outer loop
      vertex 0.8625 19.9939 -8
      vertex 1.49389 19.3625 -8
      vertex 0.8625 19.9939 24
    endloop
  endfacet
  facet normal -0.965926 -0.258819 0
    outer loop
      vertex 1.725 18.5 24
      vertex 1.49389 19.3625 24
      vertex 1.725 18.5 -8
    endloop
  endfacet
  facet normal -0.965926 -0.258819 0
    outer loop
      vertex 1.725 18.5 -8
      vertex 1.49389 19.3625 24
      vertex 1.49389 19.3625 -8
    endloop
  endfacet
  facet normal -0.965926 0.258819 0
    outer loop
      vertex 1.725 18.5 24
      vertex 1.725 18.5 -8
      vertex 1.49389 17.6375 24
    endloop
  endfacet
  facet normal -0.965926 0.258819 0
    outer loop
      vertex 1.49389 17.6375 24
      vertex 1.725 18.5 -8
      vertex 1.49389 17.6375 -8
    endloop
  endfacet
  facet normal -0.707107 0.707107 0
    outer loop
      vertex 1.49389 17.6375 24
      vertex 1.49389 17.6375 -8
      vertex 0.8625 17.0061 24
    endloop
  endfacet
  facet normal -0.707107 0.707107 0
    outer loop
      vertex 0.8625 17.0061 24
      vertex 1.49389 17.6375 -8
      vertex 0.8625 17.0061 -8
    endloop
  endfacet
  facet normal -0.258819 0.965926 0
    outer loop
      vertex 0.8625 17.0061 24
      vertex 0.8625 17.0061 -8
      vertex 0 16.775 24
    endloop
  endfacet
  facet normal -0.258819 0.965926 0
    outer loop
      vertex 0 16.775 24
      vertex 0.8625 17.0061 -8
      vertex 0 16.775 -8
    endloop
  endfacet
  facet normal 0.258819 0.965926 0
    outer loop
      vertex 0 16.775 24
      vertex 0 16.775 -8
      vertex -0.8625 17.0061 24
    endloop
  endfacet
  facet normal 0.258819 0.965926 0
    outer loop
      vertex -0.8625 17.0061 24
      vertex 0 16.775 -8
      vertex -0.8625 17.0061 -8
    endloop
  endfacet
  facet normal 0.707107 0.707107 0
    outer loop
      vertex -0.8625 17.0061 24
      vertex -0.8625 17.0061 -8
      vertex -1.49389 17.6375 24
    endloop
  endfacet
  facet normal 0.707107 0.707107 0
    outer loop
      vertex -1.49389 17.6375 24
      vertex -0.8625 17.0061 -8
      vertex -1.49389 17.6375 -8
    endloop
  endfacet
  facet normal -0.978948 0.194725 -0.0611842
    outer loop
      vertex -2.5 18.5 8
      vertex -3.23358 19.8394 24
      vertex -2.3097 19.4567 8
    endloop
  endfacet
  facet normal -0.829912 0.55453 -0.0611843
    outer loop
      vertex -2.3097 19.4567 8
      vertex -2.47487 20.9749 24
      vertex -1.76777 20.2678 8
    endloop
  endfacet
  facet normal -0.829912 0.554529 -0.0611842
    outer loop
      vertex -2.3097 19.4567 8
      vertex -3.23358 19.8394 24
      vertex -2.47487 20.9749 24
    endloop
  endfacet
  facet normal -0.978948 0.194725 -0.0611842
    outer loop
      vertex -2.5 18.5 8
      vertex -3.5 18.5 24
      vertex -3.23358 19.8394 24
    endloop
  endfacet
  facet normal -0.978948 -0.194725 -0.0611842
    outer loop
      vertex -2.3097 17.5433 8
      vertex -3.5 18.5 24
      vertex -2.5 18.5 8
    endloop
  endfacet
  facet normal -0.978948 -0.194725 -0.0611842
    outer loop
      vertex -3.23358 17.1606 24
      vertex -3.5 18.5 24
      vertex -2.3097 17.5433 8
    endloop
  endfacet
  facet normal -0.829912 -0.55453 -0.0611842
    outer loop
      vertex -1.76777 16.7322 8
      vertex -3.23358 17.1606 24
      vertex -2.3097 17.5433 8
    endloop
  endfacet
  facet normal -0.829912 -0.554529 -0.0611842
    outer loop
      vertex -2.47487 16.0251 24
      vertex -3.23358 17.1606 24
      vertex -1.76777 16.7322 8
    endloop
  endfacet
  facet normal -0.55453 -0.829912 -0.0611843
    outer loop
      vertex -0.956709 16.1903 8
      vertex -2.47487 16.0251 24
      vertex -1.76777 16.7322 8
    endloop
  endfacet
  facet normal -0.554529 -0.829912 -0.0611842
    outer loop
      vertex -1.33939 15.2664 24
      vertex -2.47487 16.0251 24
      vertex -0.956709 16.1903 8
    endloop
  endfacet
  facet normal -0.194725 -0.978948 -0.0611842
    outer loop
      vertex 0 16 8
      vertex -1.33939 15.2664 24
      vertex -0.956709 16.1903 8
    endloop
  endfacet
  facet normal -0.194725 -0.978948 -0.0611842
    outer loop
      vertex 0 15 24
      vertex -1.33939 15.2664 24
      vertex 0 16 8
    endloop
  endfacet
  facet normal 0.194725 -0.978948 -0.0611842
    outer loop
      vertex 0.956709 16.1903 8
      vertex 0 15 24
      vertex 0 16 8
    endloop
  endfacet
  facet normal 0.194725 -0.978948 -0.0611842
    outer loop
      vertex 1.33939 15.2664 24
      vertex 0 15 24
      vertex 0.956709 16.1903 8
    endloop
  endfacet
  facet normal 0.55453 -0.829912 -0.0611842
    outer loop
      vertex 1.33939 15.2664 24
      vertex 0.956709 16.1903 8
      vertex 1.76777 16.7322 8
    endloop
  endfacet
  facet normal 0.554529 -0.829912 -0.0611842
    outer loop
      vertex 2.47487 16.0251 24
      vertex 1.33939 15.2664 24
      vertex 1.76777 16.7322 8
    endloop
  endfacet
  facet normal 0.829912 -0.55453 -0.0611843
    outer loop
      vertex 2.47487 16.0251 24
      vertex 1.76777 16.7322 8
      vertex 2.3097 17.5433 8
    endloop
  endfacet
  facet normal 0.829912 -0.554529 -0.0611842
    outer loop
      vertex 2.47487 16.0251 24
      vertex 2.3097 17.5433 8
      vertex 3.23358 17.1606 24
    endloop
  endfacet
  facet normal 0.978948 -0.194725 -0.0611842
    outer loop
      vertex 3.23358 17.1606 24
      vertex 2.3097 17.5433 8
      vertex 2.5 18.5 8
    endloop
  endfacet
  facet normal 0.978948 -0.194725 -0.0611842
    outer loop
      vertex 3.23358 17.1606 24
      vertex 2.5 18.5 8
      vertex 3.5 18.5 24
    endloop
  endfacet
  facet normal 0.978948 0.194725 -0.0611842
    outer loop
      vertex 2.5 18.5 8
      vertex 2.3097 19.4567 8
      vertex 3.5 18.5 24
    endloop
  endfacet
  facet normal 0.829912 0.55453 -0.0611842
    outer loop
      vertex 2.3097 19.4567 8
      vertex 1.76777 20.2678 8
      vertex 3.23358 19.8394 24
    endloop
  endfacet
  facet normal 0.978948 0.194725 -0.0611842
    outer loop
      vertex 3.5 18.5 24
      vertex 2.3097 19.4567 8
      vertex 3.23358 19.8394 24
    endloop
  endfacet
  facet normal 0.55453 0.829912 -0.0611843
    outer loop
      vertex 1.76777 20.2678 8
      vertex 0.956709 20.8097 8
      vertex 2.47487 20.9749 24
    endloop
  endfacet
  facet normal 0.829912 0.554529 -0.0611842
    outer loop
      vertex 3.23358 19.8394 24
      vertex 1.76777 20.2678 8
      vertex 2.47487 20.9749 24
    endloop
  endfacet
  facet normal 0.194725 0.978948 -0.0611842
    outer loop
      vertex 0.956709 20.8097 8
      vertex 0 21 8
      vertex 1.33939 21.7336 24
    endloop
  endfacet
  facet normal 0.554529 0.829912 -0.0611842
    outer loop
      vertex 2.47487 20.9749 24
      vertex 0.956709 20.8097 8
      vertex 1.33939 21.7336 24
    endloop
  endfacet
  facet normal -0.194725 0.978948 -0.0611842
    outer loop
      vertex 0 21 8
      vertex -0.956709 20.8097 8
      vertex 0 22 24
    endloop
  endfacet
  facet normal 0.194725 0.978948 -0.0611842
    outer loop
      vertex 1.33939 21.7336 24
      vertex 0 21 8
      vertex 0 22 24
    endloop
  endfacet
  facet normal -0.55453 0.829912 -0.0611842
    outer loop
      vertex -0.956709 20.8097 8
      vertex -1.76777 20.2678 8
      vertex -1.33939 21.7336 24
    endloop
  endfacet
  facet normal -0.194725 0.978948 -0.0611842
    outer loop
      vertex -0.956709 20.8097 8
      vertex -1.33939 21.7336 24
      vertex 0 22 24
    endloop
  endfacet
  facet normal -0.554529 0.829912 -0.0611842
    outer loop
      vertex -1.76777 20.2678 8
      vertex -2.47487 20.9749 24
      vertex -1.33939 21.7336 24
    endloop
  endfacet
  facet normal 0 0 1
    outer loop
      vertex -3.23358 19.8394 24
      vertex -3.5 18.5 24
      vertex -3.23358 17.1606 24
    endloop
  endfacet
  facet normal 0 0 1
    outer loop
      vertex -1.33939 15.2664 24
      vertex -3.23358 19.8394 24
      vertex -2.47487 16.0251 24
    endloop
  endfacet
  facet normal 0 0 1
    outer loop
      vertex -2.47487 16.0251 24
      vertex -3.23358 19.8394 24
      vertex -3.23358 17.1606 24
    endloop
  endfacet
  facet normal 0 0 1
    outer loop
      vertex 0 15 24
      vertex -3.23358 19.8394 24
      vertex -1.33939 15.2664 24
    endloop
  endfacet
  facet normal 0 0 1
    outer loop
      vertex -1.49389 17.6375 24
      vertex -3.23358 19.8394 24
      vertex 0 15 24
    endloop
  endfacet
  facet normal 0 0 1
    outer loop
      vertex 1.725 18.5 24
      vertex 1.49389 17.6375 24
      vertex 3.23358 17.1606 24
    endloop
  endfacet
  facet normal 0 0 1
    outer loop
      vertex 1.49389 19.3625 24
      vertex 1.725 18.5 24
      vertex 3.5 18.5 24
    endloop
  endfacet
  facet normal 0 0 1
    outer loop
      vertex 1.33939 21.7336 24
      vertex -3.23358 19.8394 24
      vertex 2.47487 20.9749 24
    endloop
  endfacet
  facet normal 0 0 1
    outer loop
      vertex 0 22 24
      vertex -3.23358 19.8394 24
      vertex 1.33939 21.7336 24
    endloop
  endfacet
  facet normal 0 0 1
    outer loop
      vertex -1.33939 21.7336 24
      vertex -3.23358 19.8394 24
      vertex 0 22 24
    endloop
  endfacet
  facet normal 0 0 1
    outer loop
      vertex -2.47487 20.9749 24
      vertex -3.23358 19.8394 24
      vertex -1.33939 21.7336 24
    endloop
  endfacet
  facet normal 0 0 1
    outer loop
      vertex -0.8625 17.0061 24
      vertex -1.49389 17.6375 24
      vertex 0 15 24
    endloop
  endfacet
  facet normal 0 0 1
    outer loop
      vertex 0.8625 17.0061 24
      vertex 0 16.775 24
      vertex 2.47487 16.0251 24
    endloop
  endfacet
  facet normal 0 0 1
    outer loop
      vertex 1.49389 17.6375 24
      vertex 0.8625 17.0061 24
      vertex 2.47487 16.0251 24
    endloop
  endfacet
  facet normal 0 0 1
    outer loop
      vertex 2.47487 20.9749 24
      vertex -3.23358 19.8394 24
      vertex -0.8625 19.9939 24
    endloop
  endfacet
  facet normal 0 0 1
    outer loop
      vertex 2.47487 20.9749 24
      vertex 0 20.225 24
      vertex 3.23358 19.8394 24
    endloop
  endfacet
  facet normal 0 0 1
    outer loop
      vertex 2.47487 20.9749 24
      vertex -0.8625 19.9939 24
      vertex 0 20.225 24
    endloop
  endfacet
  facet normal 0 0 1
    outer loop
      vertex 0 20.225 24
      vertex 0.8625 19.9939 24
      vertex 3.23358 19.8394 24
    endloop
  endfacet
  facet normal 0 0 1
    outer loop
      vertex 3.23358 19.8394 24
      vertex 1.49389 19.3625 24
      vertex 3.5 18.5 24
    endloop
  endfacet
  facet normal 0 0 1
    outer loop
      vertex 0.8625 19.9939 24
      vertex 1.49389 19.3625 24
      vertex 3.23358 19.8394 24
    endloop
  endfacet
  facet normal 0 0 1
    outer loop
      vertex 3.5 18.5 24
      vertex 1.725 18.5 24
      vertex 3.23358 17.1606 24
    endloop
  endfacet
  facet normal 0 0 1
    outer loop
      vertex 3.23358 17.1606 24
      vertex 1.49389 17.6375 24
      vertex 2.47487 16.0251 24
    endloop
  endfacet
  facet normal 0 0 1
    outer loop
      vertex 0 16.775 24
      vertex -0.8625 17.0061 24
      vertex 1.33939 15.2664 24
    endloop
  endfacet
  facet normal 0 0 1
    outer loop
      vertex -1.49389 19.3625 24
      vertex -0.8625 19.9939 24
      vertex -3.23358 19.8394 24
    endloop
  endfacet
  facet normal 0 0 1
    outer loop
      vertex 2.47487 16.0251 24
      vertex 0 16.775 24
      vertex 1.33939 15.2664 24
    endloop
  endfacet
  facet normal 0 0 1
    outer loop
      vertex 1.33939 15.2664 24
      vertex -0.8625 17.0061 24
      vertex 0 15 24
    endloop
  endfacet
  facet normal 0 0 1
    outer loop
      vertex -1.49389 17.6375 24
      vertex -1.725 18.5 24
      vertex -3.23358 19.8394 24
    endloop
  endfacet
  facet normal 0 0 1
    outer loop
      vertex -1.725 18.5 24
      vertex -1.49389 19.3625 24
      vertex -3.23358 19.8394 24
    endloop
  endfacet
  facet normal 0 0 -1
    outer loop
      vertex -19.9872 -9.7721 -8
      vertex -19.8852 -8.21472 -8
      vertex -19.4856 -11.25 -8
    endloop
  endfacet
  facet normal 0 0 -1
    outer loop
      vertex -19.4856 -11.25 -8
      vertex -19.8852 -8.21472 -8
      vertex -19.1949 -6.81495 -8
    endloop
  endfacet
  facet normal 0 0 -1
    outer loop
      vertex -19.4856 -11.25 -8
      vertex -19.1949 -6.81495 -8
      vertex -18.0215 -5.7859 -8
    endloop
  endfacet
  facet normal 0 0 -1
    outer loop
      vertex -19.4856 -11.25 -8
      vertex -18.0215 -5.7859 -8
      vertex -16.5436 -5.28422 -8
    endloop
  endfacet
  facet normal 0 0 -1
    outer loop
      vertex -17.5154 -8.3875 -8
      vertex -16.5436 -5.28422 -8
      vertex -14.9862 -5.3863 -8
    endloop
  endfacet
  facet normal 0 0 -1
    outer loop
      vertex -16.0215 -7.525 -8
      vertex -14.9862 -5.3863 -8
      vertex -13.5864 -6.07659 -8
    endloop
  endfacet
  facet normal 0 0 -1
    outer loop
      vertex -16.884 -10.7439 -8
      vertex -19.4856 -11.25 -8
      vertex -17.5154 -10.1125 -8
    endloop
  endfacet
  facet normal 0 0 -1
    outer loop
      vertex -14.2965 -9.25 -8
      vertex -12.5574 -7.25 -8
      vertex -12.0557 -8.7279 -8
    endloop
  endfacet
  facet normal 0 0 -1
    outer loop
      vertex -14.5276 -10.1125 -8
      vertex -12.0557 -8.7279 -8
      vertex -12.1578 -10.2853 -8
    endloop
  endfacet
  facet normal 0 0 -1
    outer loop
      vertex -16.0215 -10.975 -8
      vertex -12.1578 -10.2853 -8
      vertex -12.8481 -11.685 -8
    endloop
  endfacet
  facet normal 0 0 -1
    outer loop
      vertex -19.4856 -11.25 -8
      vertex -12.8481 -11.685 -8
      vertex -14.0215 -12.7141 -8
    endloop
  endfacet
  facet normal 0 0 -1
    outer loop
      vertex -19.4856 -11.25 -8
      vertex -14.0215 -12.7141 -8
      vertex -15.4994 -13.2158 -8
    endloop
  endfacet
  facet normal 0 0 -1
    outer loop
      vertex -19.4856 -11.25 -8
      vertex -15.4994 -13.2158 -8
      vertex -17.0567 -13.1137 -8
    endloop
  endfacet
  facet normal 0 0 -1
    outer loop
      vertex -19.4856 -11.25 -8
      vertex -17.0567 -13.1137 -8
      vertex -18.4565 -12.4234 -8
    endloop
  endfacet
  facet normal 0 0 -1
    outer loop
      vertex -19.4856 -11.25 -8
      vertex -16.5436 -5.28422 -8
      vertex -17.5154 -8.3875 -8
    endloop
  endfacet
  facet normal 0 0 -1
    outer loop
      vertex -16.884 -7.75611 -8
      vertex -17.5154 -8.3875 -8
      vertex -14.9862 -5.3863 -8
    endloop
  endfacet
  facet normal 0 0 -1
    outer loop
      vertex -17.5154 -10.1125 -8
      vertex -19.4856 -11.25 -8
      vertex -17.7465 -9.25 -8
    endloop
  endfacet
  facet normal 0 0 -1
    outer loop
      vertex -16.0215 -10.975 -8
      vertex -19.4856 -11.25 -8
      vertex -16.884 -10.7439 -8
    endloop
  endfacet
  facet normal 0 0 -1
    outer loop
      vertex -15.159 -10.7439 -8
      vertex -12.1578 -10.2853 -8
      vertex -16.0215 -10.975 -8
    endloop
  endfacet
  facet normal 0 0 -1
    outer loop
      vertex -19.4856 -11.25 -8
      vertex -16.0215 -10.975 -8
      vertex -12.8481 -11.685 -8
    endloop
  endfacet
  facet normal 0 0 -1
    outer loop
      vertex -14.5276 -10.1125 -8
      vertex -12.1578 -10.2853 -8
      vertex -15.159 -10.7439 -8
    endloop
  endfacet
  facet normal 0 0 -1
    outer loop
      vertex -14.2965 -9.25 -8
      vertex -12.0557 -8.7279 -8
      vertex -14.5276 -10.1125 -8
    endloop
  endfacet
  facet normal 0 0 -1
    outer loop
      vertex -14.5276 -8.3875 -8
      vertex -12.5574 -7.25 -8
      vertex -14.2965 -9.25 -8
    endloop
  endfacet
  facet normal 0 0 -1
    outer loop
      vertex -16.0215 -7.525 -8
      vertex -13.5864 -6.07659 -8
      vertex -15.159 -7.75611 -8
    endloop
  endfacet
  facet normal 0 0 -1
    outer loop
      vertex -13.5864 -6.07659 -8
      vertex -12.5574 -7.25 -8
      vertex -14.5276 -8.3875 -8
    endloop
  endfacet
  facet normal 0 0 -1
    outer loop
      vertex -13.5864 -6.07659 -8
      vertex -14.5276 -8.3875 -8
      vertex -15.159 -7.75611 -8
    endloop
  endfacet
  facet normal 0 0 -1
    outer loop
      vertex -16.884 -7.75611 -8
      vertex -14.9862 -5.3863 -8
      vertex -16.0215 -7.525 -8
    endloop
  endfacet
  facet normal 0 0 -1
    outer loop
      vertex -17.7465 -9.25 -8
      vertex -19.4856 -11.25 -8
      vertex -17.5154 -8.3875 -8
    endloop
  endfacet
  facet normal -0.993667 0.0651285 0.0915624
    outer loop
      vertex -19.8852 -8.21472 -8
      vertex -19.9872 -9.7721 -8
      vertex -18.4363 -8.60295 8
    endloop
  endfacet
  facet normal -0.993667 0.0651287 0.0915623
    outer loop
      vertex -18.4363 -8.60295 8
      vertex -19.9872 -9.7721 -8
      vertex -18.5001 -9.57632 8
    endloop
  endfacet
  facet normal -0.942952 -0.320089 0.0915624
    outer loop
      vertex -18.5001 -9.57632 8
      vertex -19.9872 -9.7721 -8
      vertex -19.4856 -11.25 -8
    endloop
  endfacet
  facet normal -0.942952 -0.320089 0.0915624
    outer loop
      vertex -18.5001 -9.57632 8
      vertex -19.4856 -11.25 -8
      vertex -18.1865 -10.5 8
    endloop
  endfacet
  facet normal -0.748682 -0.656576 0.0915624
    outer loop
      vertex -18.1865 -10.5 8
      vertex -19.4856 -11.25 -8
      vertex -18.4565 -12.4234 -8
    endloop
  endfacet
  facet normal -0.748682 -0.656576 0.0915624
    outer loop
      vertex -18.1865 -10.5 8
      vertex -18.4565 -12.4234 -8
      vertex -17.5434 -11.2334 8
    endloop
  endfacet
  facet normal -0.440431 -0.893105 0.0915624
    outer loop
      vertex -17.5434 -11.2334 8
      vertex -18.4565 -12.4234 -8
      vertex -17.0567 -13.1137 -8
    endloop
  endfacet
  facet normal -0.440431 -0.893105 0.0915624
    outer loop
      vertex -16.6685 -11.6648 8
      vertex -17.5434 -11.2334 8
      vertex -17.0567 -13.1137 -8
    endloop
  endfacet
  facet normal -0.0651285 -0.993667 0.0915624
    outer loop
      vertex -16.6685 -11.6648 8
      vertex -17.0567 -13.1137 -8
      vertex -15.4994 -13.2158 -8
    endloop
  endfacet
  facet normal -0.0651287 -0.993667 0.0915623
    outer loop
      vertex -15.6952 -11.7286 8
      vertex -16.6685 -11.6648 8
      vertex -15.4994 -13.2158 -8
    endloop
  endfacet
  facet normal 0.320089 -0.942952 0.0915624
    outer loop
      vertex -14.0215 -12.7141 -8
      vertex -15.6952 -11.7286 8
      vertex -15.4994 -13.2158 -8
    endloop
  endfacet
  facet normal 0.320089 -0.942952 0.0915624
    outer loop
      vertex -14.7715 -11.4151 8
      vertex -15.6952 -11.7286 8
      vertex -14.0215 -12.7141 -8
    endloop
  endfacet
  facet normal 0.656576 -0.748682 0.0915624
    outer loop
      vertex -12.8481 -11.685 -8
      vertex -14.7715 -11.4151 8
      vertex -14.0215 -12.7141 -8
    endloop
  endfacet
  facet normal 0.656576 -0.748682 0.0915624
    outer loop
      vertex -14.0381 -10.7719 8
      vertex -14.7715 -11.4151 8
      vertex -12.8481 -11.685 -8
    endloop
  endfacet
  facet normal 0.893105 -0.440431 0.0915624
    outer loop
      vertex -12.1578 -10.2853 -8
      vertex -14.0381 -10.7719 8
      vertex -12.8481 -11.685 -8
    endloop
  endfacet
  facet normal 0.893105 -0.440431 0.0915624
    outer loop
      vertex -13.6067 -9.89705 8
      vertex -14.0381 -10.7719 8
      vertex -12.1578 -10.2853 -8
    endloop
  endfacet
  facet normal 0.993667 -0.0651285 0.0915624
    outer loop
      vertex -12.0557 -8.7279 -8
      vertex -13.6067 -9.89705 8
      vertex -12.1578 -10.2853 -8
    endloop
  endfacet
  facet normal 0.993667 -0.0651287 0.0915623
    outer loop
      vertex -13.5429 -8.92368 8
      vertex -13.6067 -9.89705 8
      vertex -12.0557 -8.7279 -8
    endloop
  endfacet
  facet normal 0.942952 0.320089 0.0915624
    outer loop
      vertex -12.5574 -7.25 -8
      vertex -13.5429 -8.92368 8
      vertex -12.0557 -8.7279 -8
    endloop
  endfacet
  facet normal 0.942952 0.320089 0.0915624
    outer loop
      vertex -12.5574 -7.25 -8
      vertex -13.8564 -8 8
      vertex -13.5429 -8.92368 8
    endloop
  endfacet
  facet normal 0.748682 0.656576 0.0915624
    outer loop
      vertex -13.5864 -6.07659 -8
      vertex -13.8564 -8 8
      vertex -12.5574 -7.25 -8
    endloop
  endfacet
  facet normal 0.748682 0.656576 0.0915624
    outer loop
      vertex -13.5864 -6.07659 -8
      vertex -14.4996 -7.26662 8
      vertex -13.8564 -8 8
    endloop
  endfacet
  facet normal 0.440431 0.893105 0.0915624
    outer loop
      vertex -13.5864 -6.07659 -8
      vertex -14.9862 -5.3863 -8
      vertex -14.4996 -7.26662 8
    endloop
  endfacet
  facet normal 0.440431 0.893105 0.0915624
    outer loop
      vertex -14.9862 -5.3863 -8
      vertex -15.3744 -6.83519 8
      vertex -14.4996 -7.26662 8
    endloop
  endfacet
  facet normal 0.0651285 0.993667 0.0915624
    outer loop
      vertex -14.9862 -5.3863 -8
      vertex -16.5436 -5.28422 -8
      vertex -15.3744 -6.83519 8
    endloop
  endfacet
  facet normal 0.0651287 0.993667 0.0915623
    outer loop
      vertex -15.3744 -6.83519 8
      vertex -16.5436 -5.28422 -8
      vertex -16.3478 -6.77139 8
    endloop
  endfacet
  facet normal -0.320089 0.942952 0.0915624
    outer loop
      vertex -16.5436 -5.28422 -8
      vertex -18.0215 -5.7859 -8
      vertex -16.3478 -6.77139 8
    endloop
  endfacet
  facet normal -0.320089 0.942952 0.0915624
    outer loop
      vertex -16.3478 -6.77139 8
      vertex -18.0215 -5.7859 -8
      vertex -17.2715 -7.08494 8
    endloop
  endfacet
  facet normal -0.656576 0.748682 0.0915624
    outer loop
      vertex -18.0215 -5.7859 -8
      vertex -19.1949 -6.81495 -8
      vertex -17.2715 -7.08494 8
    endloop
  endfacet
  facet normal -0.656576 0.748682 0.0915624
    outer loop
      vertex -17.2715 -7.08494 8
      vertex -19.1949 -6.81495 -8
      vertex -18.0049 -7.7281 8
    endloop
  endfacet
  facet normal -0.893105 0.440431 0.0915624
    outer loop
      vertex -19.1949 -6.81495 -8
      vertex -19.8852 -8.21472 -8
      vertex -18.0049 -7.7281 8
    endloop
  endfacet
  facet normal -0.893105 0.440431 0.0915624
    outer loop
      vertex -18.0049 -7.7281 8
      vertex -19.8852 -8.21472 -8
      vertex -18.4363 -8.60295 8
    endloop
  endfacet
  facet normal 0.707107 -0.707107 0
    outer loop
      vertex -16.884 -7.75611 -8
      vertex -16.884 -7.75611 24
      vertex -17.5154 -8.3875 24
    endloop
  endfacet
  facet normal 0.707107 -0.707107 0
    outer loop
      vertex -17.5154 -8.3875 -8
      vertex -16.884 -7.75611 -8
      vertex -17.5154 -8.3875 24
    endloop
  endfacet
  facet normal 0.965926 -0.258819 0
    outer loop
      vertex -17.5154 -8.3875 -8
      vertex -17.5154 -8.3875 24
      vertex -17.7465 -9.25 24
    endloop
  endfacet
  facet normal 0.965926 -0.258819 0
    outer loop
      vertex -17.7465 -9.25 -8
      vertex -17.5154 -8.3875 -8
      vertex -17.7465 -9.25 24
    endloop
  endfacet
  facet normal 0.258819 -0.965926 0
    outer loop
      vertex -16.0215 -7.525 -8
      vertex -16.0215 -7.525 24
      vertex -16.884 -7.75611 24
    endloop
  endfacet
  facet normal 0.258819 -0.965926 0
    outer loop
      vertex -16.884 -7.75611 -8
      vertex -16.0215 -7.525 -8
      vertex -16.884 -7.75611 24
    endloop
  endfacet
  facet normal -0.258819 -0.965926 0
    outer loop
      vertex -15.159 -7.75611 -8
      vertex -15.159 -7.75611 24
      vertex -16.0215 -7.525 24
    endloop
  endfacet
  facet normal -0.258819 -0.965926 0
    outer loop
      vertex -16.0215 -7.525 -8
      vertex -15.159 -7.75611 -8
      vertex -16.0215 -7.525 24
    endloop
  endfacet
  facet normal -0.707107 -0.707107 0
    outer loop
      vertex -14.5276 -8.3875 24
      vertex -15.159 -7.75611 24
      vertex -14.5276 -8.3875 -8
    endloop
  endfacet
  facet normal -0.707107 -0.707107 0
    outer loop
      vertex -14.5276 -8.3875 -8
      vertex -15.159 -7.75611 24
      vertex -15.159 -7.75611 -8
    endloop
  endfacet
  facet normal -0.965926 -0.258819 0
    outer loop
      vertex -14.2965 -9.25 24
      vertex -14.5276 -8.3875 24
      vertex -14.2965 -9.25 -8
    endloop
  endfacet
  facet normal -0.965926 -0.258819 0
    outer loop
      vertex -14.2965 -9.25 -8
      vertex -14.5276 -8.3875 24
      vertex -14.5276 -8.3875 -8
    endloop
  endfacet
  facet normal -0.965926 0.258819 0
    outer loop
      vertex -14.2965 -9.25 24
      vertex -14.2965 -9.25 -8
      vertex -14.5276 -10.1125 24
    endloop
  endfacet
  facet normal -0.965926 0.258819 0
    outer loop
      vertex -14.5276 -10.1125 24
      vertex -14.2965 -9.25 -8
      vertex -14.5276 -10.1125 -8
    endloop
  endfacet
  facet normal -0.707107 0.707107 0
    outer loop
      vertex -14.5276 -10.1125 24
      vertex -14.5276 -10.1125 -8
      vertex -15.159 -10.7439 24
    endloop
  endfacet
  facet normal -0.707107 0.707107 0
    outer loop
      vertex -15.159 -10.7439 24
      vertex -14.5276 -10.1125 -8
      vertex -15.159 -10.7439 -8
    endloop
  endfacet
  facet normal -0.258819 0.965926 0
    outer loop
      vertex -15.159 -10.7439 24
      vertex -15.159 -10.7439 -8
      vertex -16.0215 -10.975 24
    endloop
  endfacet
  facet normal -0.258819 0.965926 0
    outer loop
      vertex -16.0215 -10.975 24
      vertex -15.159 -10.7439 -8
      vertex -16.0215 -10.975 -8
    endloop
  endfacet
  facet normal 0.258819 0.965926 0
    outer loop
      vertex -16.0215 -10.975 24
      vertex -16.0215 -10.975 -8
      vertex -16.884 -10.7439 24
    endloop
  endfacet
  facet normal 0.258819 0.965926 0
    outer loop
      vertex -16.884 -10.7439 24
      vertex -16.0215 -10.975 -8
      vertex -16.884 -10.7439 -8
    endloop
  endfacet
  facet normal 0.707107 0.707107 0
    outer loop
      vertex -17.5154 -10.1125 24
      vertex -16.884 -10.7439 24
      vertex -16.884 -10.7439 -8
    endloop
  endfacet
  facet normal 0.707107 0.707107 0
    outer loop
      vertex -17.5154 -10.1125 -8
      vertex -17.5154 -10.1125 24
      vertex -16.884 -10.7439 -8
    endloop
  endfacet
  facet normal 0.965926 0.258819 0
    outer loop
      vertex -17.7465 -9.25 24
      vertex -17.5154 -10.1125 24
      vertex -17.5154 -10.1125 -8
    endloop
  endfacet
  facet normal 0.965926 0.258819 0
    outer loop
      vertex -17.7465 -9.25 -8
      vertex -17.7465 -9.25 24
      vertex -17.5154 -10.1125 -8
    endloop
  endfacet
  facet normal -0.995989 0.0652809 -0.0611843
    outer loop
      vertex -18.5001 -9.57632 8
      vertex -19.4022 -8.34413 24
      vertex -18.4363 -8.60295 8
    endloop
  endfacet
  facet normal -0.895193 0.44146 -0.0611842
    outer loop
      vertex -18.4363 -8.60295 8
      vertex -18.7982 -7.11934 24
      vertex -18.0049 -7.7281 8
    endloop
  endfacet
  facet normal -0.895192 0.441461 -0.0611842
    outer loop
      vertex -18.4363 -8.60295 8
      vertex -19.4022 -8.34413 24
      vertex -18.7982 -7.11934 24
    endloop
  endfacet
  facet normal -0.945156 -0.320837 -0.0611842
    outer loop
      vertex -18.1865 -10.5 8
      vertex -19.4915 -9.70684 24
      vertex -18.5001 -9.57632 8
    endloop
  endfacet
  facet normal -0.995989 0.0652801 -0.0611842
    outer loop
      vertex -18.5001 -9.57632 8
      vertex -19.4915 -9.70684 24
      vertex -19.4022 -8.34413 24
    endloop
  endfacet
  facet normal -0.750431 -0.65811 -0.0611842
    outer loop
      vertex -17.5434 -11.2334 8
      vertex -19.0526 -11 24
      vertex -18.1865 -10.5 8
    endloop
  endfacet
  facet normal -0.945156 -0.320837 -0.0611842
    outer loop
      vertex -19.0526 -11 24
      vertex -19.4915 -9.70684 24
      vertex -18.1865 -10.5 8
    endloop
  endfacet
  facet normal -0.44146 -0.895193 -0.0611842
    outer loop
      vertex -16.6685 -11.6648 8
      vertex -18.1521 -12.0267 24
      vertex -17.5434 -11.2334 8
    endloop
  endfacet
  facet normal -0.750431 -0.658111 -0.0611842
    outer loop
      vertex -18.1521 -12.0267 24
      vertex -19.0526 -11 24
      vertex -17.5434 -11.2334 8
    endloop
  endfacet
  facet normal -0.0652809 -0.995989 -0.0611843
    outer loop
      vertex -15.6952 -11.7286 8
      vertex -16.9273 -12.6307 24
      vertex -16.6685 -11.6648 8
    endloop
  endfacet
  facet normal -0.441461 -0.895192 -0.0611842
    outer loop
      vertex -16.9273 -12.6307 24
      vertex -18.1521 -12.0267 24
      vertex -16.6685 -11.6648 8
    endloop
  endfacet
  facet normal 0.320837 -0.945156 -0.0611842
    outer loop
      vertex -15.5646 -12.7201 24
      vertex -15.6952 -11.7286 8
      vertex -14.7715 -11.4151 8
    endloop
  endfacet
  facet normal -0.0652801 -0.995989 -0.0611842
    outer loop
      vertex -15.5646 -12.7201 24
      vertex -16.9273 -12.6307 24
      vertex -15.6952 -11.7286 8
    endloop
  endfacet
  facet normal 0.320837 -0.945156 -0.0611842
    outer loop
      vertex -14.2715 -12.2811 24
      vertex -15.5646 -12.7201 24
      vertex -14.7715 -11.4151 8
    endloop
  endfacet
  facet normal 0.65811 -0.750431 -0.0611842
    outer loop
      vertex -14.2715 -12.2811 24
      vertex -14.7715 -11.4151 8
      vertex -14.0381 -10.7719 8
    endloop
  endfacet
  facet normal 0.658111 -0.750431 -0.0611842
    outer loop
      vertex -13.2447 -11.3807 24
      vertex -14.2715 -12.2811 24
      vertex -14.0381 -10.7719 8
    endloop
  endfacet
  facet normal 0.895193 -0.44146 -0.0611842
    outer loop
      vertex -13.2447 -11.3807 24
      vertex -14.0381 -10.7719 8
      vertex -13.6067 -9.89705 8
    endloop
  endfacet
  facet normal 0.895192 -0.441461 -0.0611842
    outer loop
      vertex -13.2447 -11.3807 24
      vertex -13.6067 -9.89705 8
      vertex -12.6407 -10.1559 24
    endloop
  endfacet
  facet normal 0.995989 -0.0652809 -0.0611843
    outer loop
      vertex -12.6407 -10.1559 24
      vertex -13.6067 -9.89705 8
      vertex -13.5429 -8.92368 8
    endloop
  endfacet
  facet normal 0.995989 -0.0652801 -0.0611842
    outer loop
      vertex -12.6407 -10.1559 24
      vertex -13.5429 -8.92368 8
      vertex -12.5514 -8.79316 24
    endloop
  endfacet
  facet normal 0.945156 0.320837 -0.0611842
    outer loop
      vertex -13.5429 -8.92368 8
      vertex -13.8564 -8 8
      vertex -12.5514 -8.79316 24
    endloop
  endfacet
  facet normal 0.945156 0.320837 -0.0611842
    outer loop
      vertex -12.5514 -8.79316 24
      vertex -13.8564 -8 8
      vertex -12.9904 -7.5 24
    endloop
  endfacet
  facet normal 0.750431 0.65811 -0.0611842
    outer loop
      vertex -13.8564 -8 8
      vertex -14.4996 -7.26662 8
      vertex -12.9904 -7.5 24
    endloop
  endfacet
  facet normal 0.750431 0.658111 -0.0611842
    outer loop
      vertex -12.9904 -7.5 24
      vertex -14.4996 -7.26662 8
      vertex -13.8908 -6.47326 24
    endloop
  endfacet
  facet normal 0.44146 0.895193 -0.0611842
    outer loop
      vertex -14.4996 -7.26662 8
      vertex -15.3744 -6.83519 8
      vertex -13.8908 -6.47326 24
    endloop
  endfacet
  facet normal 0.441461 0.895192 -0.0611842
    outer loop
      vertex -13.8908 -6.47326 24
      vertex -15.3744 -6.83519 8
      vertex -15.1156 -5.86926 24
    endloop
  endfacet
  facet normal 0.0652809 0.995989 -0.0611843
    outer loop
      vertex -15.3744 -6.83519 8
      vertex -16.3478 -6.77139 8
      vertex -15.1156 -5.86926 24
    endloop
  endfacet
  facet normal 0.0652801 0.995989 -0.0611842
    outer loop
      vertex -16.3478 -6.77139 8
      vertex -16.4783 -5.77994 24
      vertex -15.1156 -5.86926 24
    endloop
  endfacet
  facet normal -0.320837 0.945156 -0.0611842
    outer loop
      vertex -16.3478 -6.77139 8
      vertex -17.2715 -7.08494 8
      vertex -16.4783 -5.77994 24
    endloop
  endfacet
  facet normal -0.320837 0.945156 -0.0611842
    outer loop
      vertex -17.2715 -7.08494 8
      vertex -17.7715 -6.21891 24
      vertex -16.4783 -5.77994 24
    endloop
  endfacet
  facet normal -0.65811 0.750431 -0.0611842
    outer loop
      vertex -17.2715 -7.08494 8
      vertex -18.0049 -7.7281 8
      vertex -17.7715 -6.21891 24
    endloop
  endfacet
  facet normal -0.658111 0.750431 -0.0611842
    outer loop
      vertex -18.0049 -7.7281 8
      vertex -18.7982 -7.11934 24
      vertex -17.7715 -6.21891 24
    endloop
  endfacet
  facet normal 0 0 1
    outer loop
      vertex -19.4022 -8.34413 24
      vertex -19.4915 -9.70684 24
      vertex -19.0526 -11 24
    endloop
  endfacet
  facet normal 0 0 1
    outer loop
      vertex -16.9273 -12.6307 24
      vertex -19.4022 -8.34413 24
      vertex -18.1521 -12.0267 24
    endloop
  endfacet
  facet normal 0 0 1
    outer loop
      vertex -18.1521 -12.0267 24
      vertex -19.4022 -8.34413 24
      vertex -19.0526 -11 24
    endloop
  endfacet
  facet normal 0 0 1
    outer loop
      vertex -15.5646 -12.7201 24
      vertex -19.4022 -8.34413 24
      vertex -16.9273 -12.6307 24
    endloop
  endfacet
  facet normal 0 0 1
    outer loop
      vertex -16.884 -10.7439 24
      vertex -19.4022 -8.34413 24
      vertex -15.5646 -12.7201 24
    endloop
  endfacet
  facet normal 0 0 1
    outer loop
      vertex -17.5154 -8.3875 24
      vertex -16.884 -7.75611 24
      vertex -19.4022 -8.34413 24
    endloop
  endfacet
  facet normal 0 0 1
    outer loop
      vertex -14.5276 -8.3875 24
      vertex -14.2965 -9.25 24
      vertex -12.5514 -8.79316 24
    endloop
  endfacet
  facet normal 0 0 1
    outer loop
      vertex -16.0215 -7.525 24
      vertex -15.159 -7.75611 24
      vertex -12.9904 -7.5 24
    endloop
  endfacet
  facet normal 0 0 1
    outer loop
      vertex -15.1156 -5.86926 24
      vertex -19.4022 -8.34413 24
      vertex -13.8908 -6.47326 24
    endloop
  endfacet
  facet normal 0 0 1
    outer loop
      vertex -16.4783 -5.77994 24
      vertex -19.4022 -8.34413 24
      vertex -15.1156 -5.86926 24
    endloop
  endfacet
  facet normal 0 0 1
    outer loop
      vertex -17.7715 -6.21891 24
      vertex -19.4022 -8.34413 24
      vertex -16.4783 -5.77994 24
    endloop
  endfacet
  facet normal 0 0 1
    outer loop
      vertex -18.7982 -7.11934 24
      vertex -19.4022 -8.34413 24
      vertex -17.7715 -6.21891 24
    endloop
  endfacet
  facet normal 0 0 1
    outer loop
      vertex -14.2965 -9.25 24
      vertex -14.5276 -10.1125 24
      vertex -12.6407 -10.1559 24
    endloop
  endfacet
  facet normal 0 0 1
    outer loop
      vertex -14.5276 -10.1125 24
      vertex -15.159 -10.7439 24
      vertex -13.2447 -11.3807 24
    endloop
  endfacet
  facet normal 0 0 1
    outer loop
      vertex -15.159 -7.75611 24
      vertex -14.5276 -8.3875 24
      vertex -12.9904 -7.5 24
    endloop
  endfacet
  facet normal 0 0 1
    outer loop
      vertex -13.8908 -6.47326 24
      vertex -19.4022 -8.34413 24
      vertex -16.884 -7.75611 24
    endloop
  endfacet
  facet normal 0 0 1
    outer loop
      vertex -13.8908 -6.47326 24
      vertex -16.0215 -7.525 24
      vertex -12.9904 -7.5 24
    endloop
  endfacet
  facet normal 0 0 1
    outer loop
      vertex -13.8908 -6.47326 24
      vertex -16.884 -7.75611 24
      vertex -16.0215 -7.525 24
    endloop
  endfacet
  facet normal 0 0 1
    outer loop
      vertex -12.9904 -7.5 24
      vertex -14.5276 -8.3875 24
      vertex -12.5514 -8.79316 24
    endloop
  endfacet
  facet normal 0 0 1
    outer loop
      vertex -12.5514 -8.79316 24
      vertex -14.2965 -9.25 24
      vertex -12.6407 -10.1559 24
    endloop
  endfacet
  facet normal 0 0 1
    outer loop
      vertex -12.6407 -10.1559 24
      vertex -14.5276 -10.1125 24
      vertex -13.2447 -11.3807 24
    endloop
  endfacet
  facet normal 0 0 1
    outer loop
      vertex -13.2447 -11.3807 24
      vertex -15.159 -10.7439 24
      vertex -14.2715 -12.2811 24
    endloop
  endfacet
  facet normal 0 0 1
    outer loop
      vertex -14.2715 -12.2811 24
      vertex -16.0215 -10.975 24
      vertex -15.5646 -12.7201 24
    endloop
  endfacet
  facet normal 0 0 1
    outer loop
      vertex -16.0215 -10.975 24
      vertex -16.884 -10.7439 24
      vertex -15.5646 -12.7201 24
    endloop
  endfacet
  facet normal 0 0 1
    outer loop
      vertex -17.5154 -10.1125 24
      vertex -19.4022 -8.34413 24
      vertex -16.884 -10.7439 24
    endloop
  endfacet
  facet normal 0 0 1
    outer loop
      vertex -17.5154 -10.1125 24
      vertex -17.7465 -9.25 24
      vertex -19.4022 -8.34413 24
    endloop
  endfacet
  facet normal 0 0 1
    outer loop
      vertex -15.159 -10.7439 24
      vertex -16.0215 -10.975 24
      vertex -14.2715 -12.2811 24
    endloop
  endfacet
  facet normal 0 0 1
    outer loop
      vertex -17.7465 -9.25 24
      vertex -17.5154 -8.3875 24
      vertex -19.4022 -8.34413 24
    endloop
  endfacet
  facet normal 0 0 -1
    outer loop
      vertex 12.0557 -8.7279 -8
      vertex 12.5574 -7.25 -8
      vertex 12.1578 -10.2853 -8
    endloop
  endfacet
  facet normal 0 0 -1
    outer loop
      vertex 12.1578 -10.2853 -8
      vertex 12.5574 -7.25 -8
      vertex 13.5864 -6.07659 -8
    endloop
  endfacet
  facet normal 0 0 -1
    outer loop
      vertex 12.1578 -10.2853 -8
      vertex 13.5864 -6.07659 -8
      vertex 14.9862 -5.3863 -8
    endloop
  endfacet
  facet normal 0 0 -1
    outer loop
      vertex 12.1578 -10.2853 -8
      vertex 14.9862 -5.3863 -8
      vertex 16.5436 -5.28422 -8
    endloop
  endfacet
  facet normal 0 0 -1
    outer loop
      vertex 15.159 -7.75611 -8
      vertex 16.5436 -5.28422 -8
      vertex 18.0215 -5.7859 -8
    endloop
  endfacet
  facet normal 0 0 -1
    outer loop
      vertex 16.884 -7.75611 -8
      vertex 18.0215 -5.7859 -8
      vertex 19.1949 -6.81495 -8
    endloop
  endfacet
  facet normal 0 0 -1
    outer loop
      vertex 17.5154 -8.3875 -8
      vertex 19.1949 -6.81495 -8
      vertex 19.8852 -8.21472 -8
    endloop
  endfacet
  facet normal 0 0 -1
    outer loop
      vertex 17.7465 -9.25 -8
      vertex 19.8852 -8.21472 -8
      vertex 19.9872 -9.7721 -8
    endloop
  endfacet
  facet normal 0 0 -1
    outer loop
      vertex 16.884 -10.7439 -8
      vertex 19.9872 -9.7721 -8
      vertex 19.4856 -11.25 -8
    endloop
  endfacet
  facet normal 0 0 -1
    outer loop
      vertex 16.0215 -10.975 -8
      vertex 19.4856 -11.25 -8
      vertex 18.4565 -12.4234 -8
    endloop
  endfacet
  facet normal 0 0 -1
    outer loop
      vertex 12.1578 -10.2853 -8
      vertex 18.4565 -12.4234 -8
      vertex 17.0567 -13.1137 -8
    endloop
  endfacet
  facet normal 0 0 -1
    outer loop
      vertex 12.1578 -10.2853 -8
      vertex 17.0567 -13.1137 -8
      vertex 15.4994 -13.2158 -8
    endloop
  endfacet
  facet normal 0 0 -1
    outer loop
      vertex 12.1578 -10.2853 -8
      vertex 15.4994 -13.2158 -8
      vertex 14.0215 -12.7141 -8
    endloop
  endfacet
  facet normal 0 0 -1
    outer loop
      vertex 12.1578 -10.2853 -8
      vertex 14.0215 -12.7141 -8
      vertex 12.8481 -11.685 -8
    endloop
  endfacet
  facet normal 0 0 -1
    outer loop
      vertex 14.5276 -10.1125 -8
      vertex 12.1578 -10.2853 -8
      vertex 14.2965 -9.25 -8
    endloop
  endfacet
  facet normal 0 0 -1
    outer loop
      vertex 15.159 -10.7439 -8
      vertex 12.1578 -10.2853 -8
      vertex 14.5276 -10.1125 -8
    endloop
  endfacet
  facet normal 0 0 -1
    outer loop
      vertex 16.884 -10.7439 -8
      vertex 19.4856 -11.25 -8
      vertex 16.0215 -10.975 -8
    endloop
  endfacet
  facet normal 0 0 -1
    outer loop
      vertex 12.1578 -10.2853 -8
      vertex 15.159 -10.7439 -8
      vertex 18.4565 -12.4234 -8
    endloop
  endfacet
  facet normal 0 0 -1
    outer loop
      vertex 15.159 -10.7439 -8
      vertex 16.0215 -10.975 -8
      vertex 18.4565 -12.4234 -8
    endloop
  endfacet
  facet normal 0 0 -1
    outer loop
      vertex 17.5154 -10.1125 -8
      vertex 19.9872 -9.7721 -8
      vertex 16.884 -10.7439 -8
    endloop
  endfacet
  facet normal 0 0 -1
    outer loop
      vertex 17.5154 -8.3875 -8
      vertex 19.8852 -8.21472 -8
      vertex 17.7465 -9.25 -8
    endloop
  endfacet
  facet normal 0 0 -1
    outer loop
      vertex 16.884 -7.75611 -8
      vertex 19.1949 -6.81495 -8
      vertex 17.5154 -8.3875 -8
    endloop
  endfacet
  facet normal 0 0 -1
    outer loop
      vertex 16.0215 -7.525 -8
      vertex 18.0215 -5.7859 -8
      vertex 16.884 -7.75611 -8
    endloop
  endfacet
  facet normal 0 0 -1
    outer loop
      vertex 17.7465 -9.25 -8
      vertex 19.9872 -9.7721 -8
      vertex 17.5154 -10.1125 -8
    endloop
  endfacet
  facet normal 0 0 -1
    outer loop
      vertex 12.1578 -10.2853 -8
      vertex 16.5436 -5.28422 -8
      vertex 15.159 -7.75611 -8
    endloop
  endfacet
  facet normal 0 0 -1
    outer loop
      vertex 12.1578 -10.2853 -8
      vertex 15.159 -7.75611 -8
      vertex 14.5276 -8.3875 -8
    endloop
  endfacet
  facet normal 0 0 -1
    outer loop
      vertex 14.2965 -9.25 -8
      vertex 12.1578 -10.2853 -8
      vertex 14.5276 -8.3875 -8
    endloop
  endfacet
  facet normal 0 0 -1
    outer loop
      vertex 15.159 -7.75611 -8
      vertex 18.0215 -5.7859 -8
      vertex 16.0215 -7.525 -8
    endloop
  endfacet
  facet normal -0.942952 0.320089 0.0915624
    outer loop
      vertex 12.5574 -7.25 -8
      vertex 12.0557 -8.7279 -8
      vertex 13.8564 -8 8
    endloop
  endfacet
  facet normal -0.942952 0.320089 0.0915624
    outer loop
      vertex 13.8564 -8 8
      vertex 12.0557 -8.7279 -8
      vertex 13.5429 -8.92368 8
    endloop
  endfacet
  facet normal -0.993667 -0.0651285 0.0915624
    outer loop
      vertex 13.5429 -8.92368 8
      vertex 12.0557 -8.7279 -8
      vertex 12.1578 -10.2853 -8
    endloop
  endfacet
  facet normal -0.993667 -0.0651287 0.0915624
    outer loop
      vertex 13.5429 -8.92368 8
      vertex 12.1578 -10.2853 -8
      vertex 13.6067 -9.89705 8
    endloop
  endfacet
  facet normal -0.893105 -0.440431 0.0915624
    outer loop
      vertex 13.6067 -9.89705 8
      vertex 12.1578 -10.2853 -8
      vertex 12.8481 -11.685 -8
    endloop
  endfacet
  facet normal -0.893105 -0.440431 0.0915623
    outer loop
      vertex 13.6067 -9.89705 8
      vertex 12.8481 -11.685 -8
      vertex 14.0381 -10.7719 8
    endloop
  endfacet
  facet normal -0.656576 -0.748682 0.0915624
    outer loop
      vertex 14.0381 -10.7719 8
      vertex 12.8481 -11.685 -8
      vertex 14.0215 -12.7141 -8
    endloop
  endfacet
  facet normal -0.656576 -0.748682 0.0915624
    outer loop
      vertex 14.0381 -10.7719 8
      vertex 14.0215 -12.7141 -8
      vertex 14.7715 -11.4151 8
    endloop
  endfacet
  facet normal -0.320089 -0.942952 0.0915624
    outer loop
      vertex 14.7715 -11.4151 8
      vertex 14.0215 -12.7141 -8
      vertex 15.4994 -13.2158 -8
    endloop
  endfacet
  facet normal -0.320089 -0.942952 0.0915624
    outer loop
      vertex 15.6952 -11.7286 8
      vertex 14.7715 -11.4151 8
      vertex 15.4994 -13.2158 -8
    endloop
  endfacet
  facet normal 0.0651285 -0.993667 0.0915624
    outer loop
      vertex 15.6952 -11.7286 8
      vertex 15.4994 -13.2158 -8
      vertex 17.0567 -13.1137 -8
    endloop
  endfacet
  facet normal 0.0651287 -0.993667 0.0915624
    outer loop
      vertex 16.6685 -11.6648 8
      vertex 15.6952 -11.7286 8
      vertex 17.0567 -13.1137 -8
    endloop
  endfacet
  facet normal 0.440431 -0.893105 0.0915624
    outer loop
      vertex 18.4565 -12.4234 -8
      vertex 16.6685 -11.6648 8
      vertex 17.0567 -13.1137 -8
    endloop
  endfacet
  facet normal 0.440431 -0.893105 0.0915623
    outer loop
      vertex 17.5434 -11.2334 8
      vertex 16.6685 -11.6648 8
      vertex 18.4565 -12.4234 -8
    endloop
  endfacet
  facet normal 0.748682 -0.656576 0.0915624
    outer loop
      vertex 19.4856 -11.25 -8
      vertex 17.5434 -11.2334 8
      vertex 18.4565 -12.4234 -8
    endloop
  endfacet
  facet normal 0.748682 -0.656576 0.0915624
    outer loop
      vertex 18.1865 -10.5 8
      vertex 17.5434 -11.2334 8
      vertex 19.4856 -11.25 -8
    endloop
  endfacet
  facet normal 0.942952 -0.320089 0.0915624
    outer loop
      vertex 19.9872 -9.7721 -8
      vertex 18.1865 -10.5 8
      vertex 19.4856 -11.25 -8
    endloop
  endfacet
  facet normal 0.942952 -0.320089 0.0915624
    outer loop
      vertex 18.5001 -9.57632 8
      vertex 18.1865 -10.5 8
      vertex 19.9872 -9.7721 -8
    endloop
  endfacet
  facet normal 0.993667 0.0651285 0.0915624
    outer loop
      vertex 19.8852 -8.21472 -8
      vertex 18.5001 -9.57632 8
      vertex 19.9872 -9.7721 -8
    endloop
  endfacet
  facet normal 0.993667 0.0651287 0.0915624
    outer loop
      vertex 19.8852 -8.21472 -8
      vertex 18.4363 -8.60295 8
      vertex 18.5001 -9.57632 8
    endloop
  endfacet
  facet normal 0.893105 0.440431 0.0915624
    outer loop
      vertex 19.1949 -6.81495 -8
      vertex 18.4363 -8.60295 8
      vertex 19.8852 -8.21472 -8
    endloop
  endfacet
  facet normal 0.893105 0.440431 0.0915623
    outer loop
      vertex 19.1949 -6.81495 -8
      vertex 18.0049 -7.7281 8
      vertex 18.4363 -8.60295 8
    endloop
  endfacet
  facet normal 0.656576 0.748682 0.0915624
    outer loop
      vertex 18.0215 -5.7859 -8
      vertex 18.0049 -7.7281 8
      vertex 19.1949 -6.81495 -8
    endloop
  endfacet
  facet normal 0.656576 0.748682 0.0915624
    outer loop
      vertex 18.0215 -5.7859 -8
      vertex 17.2715 -7.08494 8
      vertex 18.0049 -7.7281 8
    endloop
  endfacet
  facet normal 0.320089 0.942952 0.0915624
    outer loop
      vertex 18.0215 -5.7859 -8
      vertex 16.5436 -5.28422 -8
      vertex 17.2715 -7.08494 8
    endloop
  endfacet
  facet normal 0.320089 0.942952 0.0915624
    outer loop
      vertex 16.5436 -5.28422 -8
      vertex 16.3478 -6.77139 8
      vertex 17.2715 -7.08494 8
    endloop
  endfacet
  facet normal -0.0651285 0.993667 0.0915624
    outer loop
      vertex 16.5436 -5.28422 -8
      vertex 14.9862 -5.3863 -8
      vertex 16.3478 -6.77139 8
    endloop
  endfacet
  facet normal -0.0651287 0.993667 0.0915624
    outer loop
      vertex 16.3478 -6.77139 8
      vertex 14.9862 -5.3863 -8
      vertex 15.3744 -6.83519 8
    endloop
  endfacet
  facet normal -0.440431 0.893105 0.0915624
    outer loop
      vertex 14.9862 -5.3863 -8
      vertex 13.5864 -6.07659 -8
      vertex 15.3744 -6.83519 8
    endloop
  endfacet
  facet normal -0.440431 0.893105 0.0915623
    outer loop
      vertex 15.3744 -6.83519 8
      vertex 13.5864 -6.07659 -8
      vertex 14.4996 -7.26662 8
    endloop
  endfacet
  facet normal -0.748682 0.656576 0.0915624
    outer loop
      vertex 13.5864 -6.07659 -8
      vertex 12.5574 -7.25 -8
      vertex 14.4996 -7.26662 8
    endloop
  endfacet
  facet normal -0.748682 0.656576 0.0915624
    outer loop
      vertex 14.4996 -7.26662 8
      vertex 12.5574 -7.25 -8
      vertex 13.8564 -8 8
    endloop
  endfacet
  facet normal 0.965926 -0.258819 0
    outer loop
      vertex 14.5276 -8.3875 -8
      vertex 14.5276 -8.3875 24
      vertex 14.2965 -9.25 24
    endloop
  endfacet
  facet normal 0.965926 -0.258819 0
    outer loop
      vertex 14.2965 -9.25 -8
      vertex 14.5276 -8.3875 -8
      vertex 14.2965 -9.25 24
    endloop
  endfacet
  facet normal 0.965926 0.258819 0
    outer loop
      vertex 14.2965 -9.25 24
      vertex 14.5276 -10.1125 24
      vertex 14.5276 -10.1125 -8
    endloop
  endfacet
  facet normal 0.965926 0.258819 0
    outer loop
      vertex 14.2965 -9.25 -8
      vertex 14.2965 -9.25 24
      vertex 14.5276 -10.1125 -8
    endloop
  endfacet
  facet normal 0.707107 -0.707107 0
    outer loop
      vertex 15.159 -7.75611 -8
      vertex 15.159 -7.75611 24
      vertex 14.5276 -8.3875 24
    endloop
  endfacet
  facet normal 0.707107 -0.707107 0
    outer loop
      vertex 14.5276 -8.3875 -8
      vertex 15.159 -7.75611 -8
      vertex 14.5276 -8.3875 24
    endloop
  endfacet
  facet normal 0.258819 -0.965926 0
    outer loop
      vertex 16.0215 -7.525 -8
      vertex 16.0215 -7.525 24
      vertex 15.159 -7.75611 24
    endloop
  endfacet
  facet normal 0.258819 -0.965926 0
    outer loop
      vertex 15.159 -7.75611 -8
      vertex 16.0215 -7.525 -8
      vertex 15.159 -7.75611 24
    endloop
  endfacet
  facet normal -0.258819 -0.965926 0
    outer loop
      vertex 16.884 -7.75611 -8
      vertex 16.884 -7.75611 24
      vertex 16.0215 -7.525 24
    endloop
  endfacet
  facet normal -0.258819 -0.965926 0
    outer loop
      vertex 16.0215 -7.525 -8
      vertex 16.884 -7.75611 -8
      vertex 16.0215 -7.525 24
    endloop
  endfacet
  facet normal -0.707107 -0.707107 0
    outer loop
      vertex 17.5154 -8.3875 -8
      vertex 17.5154 -8.3875 24
      vertex 16.884 -7.75611 24
    endloop
  endfacet
  facet normal -0.707107 -0.707107 0
    outer loop
      vertex 16.884 -7.75611 -8
      vertex 17.5154 -8.3875 -8
      vertex 16.884 -7.75611 24
    endloop
  endfacet
  facet normal -0.965926 -0.258819 0
    outer loop
      vertex 17.7465 -9.25 24
      vertex 17.5154 -8.3875 24
      vertex 17.7465 -9.25 -8
    endloop
  endfacet
  facet normal -0.965926 -0.258819 0
    outer loop
      vertex 17.7465 -9.25 -8
      vertex 17.5154 -8.3875 24
      vertex 17.5154 -8.3875 -8
    endloop
  endfacet
  facet normal -0.965926 0.258819 0
    outer loop
      vertex 17.7465 -9.25 24
      vertex 17.7465 -9.25 -8
      vertex 17.5154 -10.1125 24
    endloop
  endfacet
  facet normal -0.965926 0.258819 0
    outer loop
      vertex 17.5154 -10.1125 24
      vertex 17.7465 -9.25 -8
      vertex 17.5154 -10.1125 -8
    endloop
  endfacet
  facet normal -0.707107 0.707107 0
    outer loop
      vertex 17.5154 -10.1125 24
      vertex 17.5154 -10.1125 -8
      vertex 16.884 -10.7439 24
    endloop
  endfacet
  facet normal -0.707107 0.707107 0
    outer loop
      vertex 16.884 -10.7439 24
      vertex 17.5154 -10.1125 -8
      vertex 16.884 -10.7439 -8
    endloop
  endfacet
  facet normal -0.258819 0.965926 0
    outer loop
      vertex 16.884 -10.7439 24
      vertex 16.884 -10.7439 -8
      vertex 16.0215 -10.975 24
    endloop
  endfacet
  facet normal -0.258819 0.965926 0
    outer loop
      vertex 16.0215 -10.975 24
      vertex 16.884 -10.7439 -8
      vertex 16.0215 -10.975 -8
    endloop
  endfacet
  facet normal 0.258819 0.965926 0
    outer loop
      vertex 16.0215 -10.975 24
      vertex 16.0215 -10.975 -8
      vertex 15.159 -10.7439 24
    endloop
  endfacet
  facet normal 0.258819 0.965926 0
    outer loop
      vertex 15.159 -10.7439 24
      vertex 16.0215 -10.975 -8
      vertex 15.159 -10.7439 -8
    endloop
  endfacet
  facet normal 0.707107 0.707107 0
    outer loop
      vertex 15.159 -10.7439 24
      vertex 15.159 -10.7439 -8
      vertex 14.5276 -10.1125 24
    endloop
  endfacet
  facet normal 0.707107 0.707107 0
    outer loop
      vertex 14.5276 -10.1125 24
      vertex 15.159 -10.7439 -8
      vertex 14.5276 -10.1125 -8
    endloop
  endfacet
  facet normal -0.750431 0.65811 -0.0611842
    outer loop
      vertex 14.4996 -7.26662 8
      vertex 13.8564 -8 8
      vertex 13.8908 -6.47326 24
    endloop
  endfacet
  facet normal -0.750431 0.658111 -0.0611842
    outer loop
      vertex 13.8564 -8 8
      vertex 12.9904 -7.5 24
      vertex 13.8908 -6.47326 24
    endloop
  endfacet
  facet normal -0.945156 0.320837 -0.0611842
    outer loop
      vertex 13.5429 -8.92368 8
      vertex 12.9904 -7.5 24
      vertex 13.8564 -8 8
    endloop
  endfacet
  facet normal -0.945156 0.320837 -0.0611842
    outer loop
      vertex 13.5429 -8.92368 8
      vertex 12.5514 -8.79316 24
      vertex 12.9904 -7.5 24
    endloop
  endfacet
  facet normal -0.995989 -0.0652809 -0.0611842
    outer loop
      vertex 13.6067 -9.89705 8
      vertex 12.5514 -8.79316 24
      vertex 13.5429 -8.92368 8
    endloop
  endfacet
  facet normal -0.995989 -0.0652801 -0.0611842
    outer loop
      vertex 12.6407 -10.1559 24
      vertex 12.5514 -8.79316 24
      vertex 13.6067 -9.89705 8
    endloop
  endfacet
  facet normal -0.895193 -0.44146 -0.0611843
    outer loop
      vertex 14.0381 -10.7719 8
      vertex 12.6407 -10.1559 24
      vertex 13.6067 -9.89705 8
    endloop
  endfacet
  facet normal -0.895192 -0.441461 -0.0611842
    outer loop
      vertex 13.2447 -11.3807 24
      vertex 12.6407 -10.1559 24
      vertex 14.0381 -10.7719 8
    endloop
  endfacet
  facet normal -0.65811 -0.750431 -0.0611842
    outer loop
      vertex 14.7715 -11.4151 8
      vertex 13.2447 -11.3807 24
      vertex 14.0381 -10.7719 8
    endloop
  endfacet
  facet normal -0.658111 -0.750431 -0.0611842
    outer loop
      vertex 14.2715 -12.2811 24
      vertex 13.2447 -11.3807 24
      vertex 14.7715 -11.4151 8
    endloop
  endfacet
  facet normal -0.320837 -0.945156 -0.0611842
    outer loop
      vertex 15.6952 -11.7286 8
      vertex 14.2715 -12.2811 24
      vertex 14.7715 -11.4151 8
    endloop
  endfacet
  facet normal 0.0652809 -0.995989 -0.0611842
    outer loop
      vertex 16.6685 -11.6648 8
      vertex 15.5646 -12.7201 24
      vertex 15.6952 -11.7286 8
    endloop
  endfacet
  facet normal -0.320837 -0.945156 -0.0611842
    outer loop
      vertex 15.5646 -12.7201 24
      vertex 14.2715 -12.2811 24
      vertex 15.6952 -11.7286 8
    endloop
  endfacet
  facet normal 0.44146 -0.895193 -0.0611843
    outer loop
      vertex 16.9273 -12.6307 24
      vertex 16.6685 -11.6648 8
      vertex 17.5434 -11.2334 8
    endloop
  endfacet
  facet normal 0.0652801 -0.995989 -0.0611842
    outer loop
      vertex 16.9273 -12.6307 24
      vertex 15.5646 -12.7201 24
      vertex 16.6685 -11.6648 8
    endloop
  endfacet
  facet normal 0.750431 -0.65811 -0.0611842
    outer loop
      vertex 18.1521 -12.0267 24
      vertex 17.5434 -11.2334 8
      vertex 18.1865 -10.5 8
    endloop
  endfacet
  facet normal 0.441461 -0.895192 -0.0611842
    outer loop
      vertex 18.1521 -12.0267 24
      vertex 16.9273 -12.6307 24
      vertex 17.5434 -11.2334 8
    endloop
  endfacet
  facet normal 0.945156 -0.320837 -0.0611842
    outer loop
      vertex 19.0526 -11 24
      vertex 18.1865 -10.5 8
      vertex 18.5001 -9.57632 8
    endloop
  endfacet
  facet normal 0.750431 -0.658111 -0.0611842
    outer loop
      vertex 19.0526 -11 24
      vertex 18.1521 -12.0267 24
      vertex 18.1865 -10.5 8
    endloop
  endfacet
  facet normal 0.995989 0.0652809 -0.0611842
    outer loop
      vertex 18.5001 -9.57632 8
      vertex 18.4363 -8.60295 8
      vertex 19.4915 -9.70684 24
    endloop
  endfacet
  facet normal 0.945156 -0.320837 -0.0611842
    outer loop
      vertex 19.0526 -11 24
      vertex 18.5001 -9.57632 8
      vertex 19.4915 -9.70684 24
    endloop
  endfacet
  facet normal 0.895193 0.44146 -0.0611843
    outer loop
      vertex 18.4363 -8.60295 8
      vertex 18.0049 -7.7281 8
      vertex 19.4022 -8.34413 24
    endloop
  endfacet
  facet normal 0.995989 0.0652801 -0.0611842
    outer loop
      vertex 19.4915 -9.70684 24
      vertex 18.4363 -8.60295 8
      vertex 19.4022 -8.34413 24
    endloop
  endfacet
  facet normal 0.65811 0.750431 -0.0611842
    outer loop
      vertex 18.0049 -7.7281 8
      vertex 17.2715 -7.08494 8
      vertex 18.7982 -7.11934 24
    endloop
  endfacet
  facet normal 0.895192 0.441461 -0.0611842
    outer loop
      vertex 19.4022 -8.34413 24
      vertex 18.0049 -7.7281 8
      vertex 18.7982 -7.11934 24
    endloop
  endfacet
  facet normal 0.658111 0.750431 -0.0611842
    outer loop
      vertex 18.7982 -7.11934 24
      vertex 17.2715 -7.08494 8
      vertex 17.7715 -6.21891 24
    endloop
  endfacet
  facet normal 0.320837 0.945156 -0.0611842
    outer loop
      vertex 17.2715 -7.08494 8
      vertex 16.3478 -6.77139 8
      vertex 17.7715 -6.21891 24
    endloop
  endfacet
  facet normal 0.320837 0.945156 -0.0611842
    outer loop
      vertex 17.7715 -6.21891 24
      vertex 16.3478 -6.77139 8
      vertex 16.4783 -5.77994 24
    endloop
  endfacet
  facet normal -0.0652809 0.995989 -0.0611842
    outer loop
      vertex 16.3478 -6.77139 8
      vertex 15.3744 -6.83519 8
      vertex 16.4783 -5.77994 24
    endloop
  endfacet
  facet normal -0.0652801 0.995989 -0.0611842
    outer loop
      vertex 15.3744 -6.83519 8
      vertex 15.1156 -5.86926 24
      vertex 16.4783 -5.77994 24
    endloop
  endfacet
  facet normal -0.44146 0.895193 -0.0611843
    outer loop
      vertex 15.3744 -6.83519 8
      vertex 14.4996 -7.26662 8
      vertex 15.1156 -5.86926 24
    endloop
  endfacet
  facet normal -0.441461 0.895192 -0.0611842
    outer loop
      vertex 14.4996 -7.26662 8
      vertex 13.8908 -6.47326 24
      vertex 15.1156 -5.86926 24
    endloop
  endfacet
  facet normal 0 0 1
    outer loop
      vertex 12.9904 -7.5 24
      vertex 12.5514 -8.79316 24
      vertex 12.6407 -10.1559 24
    endloop
  endfacet
  facet normal 0 0 1
    outer loop
      vertex 14.2715 -12.2811 24
      vertex 12.9904 -7.5 24
      vertex 13.2447 -11.3807 24
    endloop
  endfacet
  facet normal 0 0 1
    outer loop
      vertex 13.2447 -11.3807 24
      vertex 12.9904 -7.5 24
      vertex 12.6407 -10.1559 24
    endloop
  endfacet
  facet normal 0 0 1
    outer loop
      vertex 15.5646 -12.7201 24
      vertex 12.9904 -7.5 24
      vertex 14.2715 -12.2811 24
    endloop
  endfacet
  facet normal 0 0 1
    outer loop
      vertex 14.5276 -10.1125 24
      vertex 12.9904 -7.5 24
      vertex 15.5646 -12.7201 24
    endloop
  endfacet
  facet normal 0 0 1
    outer loop
      vertex 16.884 -10.7439 24
      vertex 16.0215 -10.975 24
      vertex 18.1521 -12.0267 24
    endloop
  endfacet
  facet normal 0 0 1
    outer loop
      vertex 19.0526 -11 24
      vertex 17.5154 -10.1125 24
      vertex 18.1521 -12.0267 24
    endloop
  endfacet
  facet normal 0 0 1
    outer loop
      vertex 17.5154 -8.3875 24
      vertex 17.7465 -9.25 24
      vertex 19.4915 -9.70684 24
    endloop
  endfacet
  facet normal 0 0 1
    outer loop
      vertex 17.7715 -6.21891 24
      vertex 12.9904 -7.5 24
      vertex 18.7982 -7.11934 24
    endloop
  endfacet
  facet normal 0 0 1
    outer loop
      vertex 16.4783 -5.77994 24
      vertex 12.9904 -7.5 24
      vertex 17.7715 -6.21891 24
    endloop
  endfacet
  facet normal 0 0 1
    outer loop
      vertex 15.1156 -5.86926 24
      vertex 12.9904 -7.5 24
      vertex 16.4783 -5.77994 24
    endloop
  endfacet
  facet normal 0 0 1
    outer loop
      vertex 13.8908 -6.47326 24
      vertex 12.9904 -7.5 24
      vertex 15.1156 -5.86926 24
    endloop
  endfacet
  facet normal 0 0 1
    outer loop
      vertex 16.9273 -12.6307 24
      vertex 14.5276 -10.1125 24
      vertex 15.5646 -12.7201 24
    endloop
  endfacet
  facet normal 0 0 1
    outer loop
      vertex 14.2965 -9.25 24
      vertex 12.9904 -7.5 24
      vertex 14.5276 -10.1125 24
    endloop
  endfacet
  facet normal 0 0 1
    outer loop
      vertex 14.5276 -8.3875 24
      vertex 15.159 -7.75611 24
      vertex 12.9904 -7.5 24
    endloop
  endfacet
  facet normal 0 0 1
    outer loop
      vertex 16.0215 -7.525 24
      vertex 12.9904 -7.5 24
      vertex 15.159 -7.75611 24
    endloop
  endfacet
  facet normal 0 0 1
    outer loop
      vertex 16.884 -7.75611 24
      vertex 17.5154 -8.3875 24
      vertex 19.4022 -8.34413 24
    endloop
  endfacet
  facet normal 0 0 1
    outer loop
      vertex 18.7982 -7.11934 24
      vertex 12.9904 -7.5 24
      vertex 16.0215 -7.525 24
    endloop
  endfacet
  facet normal 0 0 1
    outer loop
      vertex 18.7982 -7.11934 24
      vertex 16.884 -7.75611 24
      vertex 19.4022 -8.34413 24
    endloop
  endfacet
  facet normal 0 0 1
    outer loop
      vertex 19.4022 -8.34413 24
      vertex 17.5154 -8.3875 24
      vertex 19.4915 -9.70684 24
    endloop
  endfacet
  facet normal 0 0 1
    outer loop
      vertex 16.0215 -7.525 24
      vertex 16.884 -7.75611 24
      vertex 18.7982 -7.11934 24
    endloop
  endfacet
  facet normal 0 0 1
    outer loop
      vertex 19.4915 -9.70684 24
      vertex 17.7465 -9.25 24
      vertex 19.0526 -11 24
    endloop
  endfacet
  facet normal 0 0 1
    outer loop
      vertex 17.7465 -9.25 24
      vertex 17.5154 -10.1125 24
      vertex 19.0526 -11 24
    endloop
  endfacet
  facet normal 0 0 1
    outer loop
      vertex 17.5154 -10.1125 24
      vertex 16.884 -10.7439 24
      vertex 18.1521 -12.0267 24
    endloop
  endfacet
  facet normal 0 0 1
    outer loop
      vertex 18.1521 -12.0267 24
      vertex 16.0215 -10.975 24
      vertex 16.9273 -12.6307 24
    endloop
  endfacet
  facet normal 0 0 1
    outer loop
      vertex 16.0215 -10.975 24
      vertex 15.159 -10.7439 24
      vertex 16.9273 -12.6307 24
    endloop
  endfacet
  facet normal 0 0 1
    outer loop
      vertex 16.9273 -12.6307 24
      vertex 15.159 -10.7439 24
      vertex 14.5276 -10.1125 24
    endloop
  endfacet
  facet normal 0 0 1
    outer loop
      vertex 14.2965 -9.25 24
      vertex 14.5276 -8.3875 24
      vertex 12.9904 -7.5 24
    endloop
  endfacet
endsolid OpenSCAD_Model
